<svg xmlns="http://www.w3.org/2000/svg" xmlns:xlink="http://www.w3.org/1999/xlink" width="500" zoomAndPan="magnify" viewBox="0 0 375 374.999991" height="500" preserveAspectRatio="xMidYMid meet" version="1.0"><path stroke-linecap="round" transform="matrix(0.274306, 0, 0, 0.274306, 189.554538, 191.193943)" fill-opacity="1" fill="#ffffff" fill-rule="nonzero" stroke-linejoin="round" d="M 186.451506 44.335693 C 186.451506 44.335693 186.451506 -44.339946 186.451506 -44.339946 C 186.451506 -44.339946 139.386629 -44.339946 139.386629 -44.339946 C 136.866059 -52.271908 133.676186 -59.919061 129.902451 -67.19596 C 129.902451 -67.19596 163.196757 -100.490266 163.196757 -100.490266 C 163.196757 -100.490266 100.510044 -163.19122 100.510044 -163.19122 C 100.510044 -163.19122 67.201497 -129.896914 67.201497 -129.896914 C 59.924598 -133.684889 52.277446 -136.874762 44.331243 -139.395332 C 44.331243 -139.395332 44.331243 -186.460209 44.331243 -186.460209 C 44.331243 -186.460209 -44.330156 -186.460209 -44.330156 -186.460209 C -44.330156 -186.460209 -44.330156 -139.395332 -44.330156 -139.395332 C -52.276359 -136.874762 -59.923511 -133.684889 -67.214651 -129.896914 C -67.214651 -129.896914 -100.508957 -163.19122 -100.508957 -163.19122 C -100.508957 -163.19122 -163.195671 -100.490266 -163.195671 -100.490266 C -163.195671 -100.490266 -129.901364 -67.19596 -129.901364 -67.19596 C -133.675099 -59.919061 -136.864973 -52.271908 -139.385542 -44.339946 C -139.385542 -44.339946 -186.450419 -44.339946 -186.450419 -44.339946 C -186.450419 -44.339946 -186.450419 44.335693 -186.450419 44.335693 C -186.450419 44.335693 -139.385542 44.335693 -139.385542 44.335693 C -136.864973 52.267656 -133.70358 59.914808 -129.901364 67.205948 C -129.901364 67.205948 -163.195671 100.500254 -163.195671 100.500254 C -163.195671 100.500254 -100.508957 163.186967 -100.508957 163.186967 C -100.508957 163.186967 -67.214651 129.892661 -67.214651 129.892661 C -59.923511 133.694877 -52.276359 136.87051 -44.330156 139.39108 C -44.330156 139.39108 -44.330156 186.470197 -44.330156 186.470197 C -44.330156 186.470197 44.331243 186.470197 44.331243 186.470197 C 44.331243 186.470197 44.331243 139.39108 44.331243 139.39108 C 52.277446 136.87051 59.924598 133.694877 67.201497 129.892661 C 67.201497 129.892661 100.510044 163.186967 100.510044 163.186967 C 100.510044 163.186967 163.196757 100.500254 163.196757 100.500254 C 163.196757 100.500254 129.902451 67.205948 129.902451 67.205948 C 133.704667 59.914808 136.866059 52.267656 139.386629 44.335693 C 139.386629 44.335693 186.451506 44.335693 186.451506 44.335693 Z M 66.204662 3.493918 C 65.392953 19.172717 59.12713 33.384743 49.286939 44.335693 C 47.720483 46.073035 46.068585 47.724934 44.331243 49.29139 C 33.380293 59.13158 19.154026 65.383163 3.489468 66.194872 C 2.335987 66.251834 1.182505 66.280315 0.000543363 66.280315 C -1.167178 66.280315 -2.3349 66.251834 -3.488381 66.194872 C -19.152939 65.383163 -33.379206 59.13158 -44.330156 49.29139 C -46.067498 47.724934 -47.719397 46.073035 -49.285852 44.335693 C -59.126043 33.384743 -65.391866 19.172717 -66.203575 3.493918 C -66.246297 2.340437 -66.289018 1.186956 -66.289018 0.0049939 C -66.289018 -1.162728 -66.246297 -2.330449 -66.203575 -3.498171 C -65.391866 -19.176969 -59.126043 -33.388996 -49.285852 -44.339946 C -47.719397 -46.077288 -46.067498 -47.729187 -44.330156 -49.295642 C -33.379206 -59.135833 -19.152939 -65.373175 -3.488381 -66.199125 C -2.3349 -66.241846 -1.167178 -66.284568 0.000543363 -66.284568 C 1.182505 -66.284568 2.335987 -66.241846 3.489468 -66.199125 C 19.154026 -65.373175 33.380293 -59.135833 44.331243 -49.295642 C 46.068585 -47.729187 47.720483 -46.077288 49.286939 -44.339946 C 59.12713 -33.388996 65.392953 -19.176969 66.204662 -3.498171 C 66.261624 -2.330449 66.290105 -1.162728 66.290105 0.0049939 C 66.290105 1.186956 66.261624 2.340437 66.204662 3.493918 Z M 66.204662 3.493918 " stroke="#253237" stroke-width="2" stroke-opacity="1" stroke-miterlimit="4"/><path stroke-linecap="round" transform="matrix(0.274306, 0, 0, 0.274306, 67.878641, 143.87898)" fill-opacity="1" fill="#ffffff" fill-rule="nonzero" stroke-linejoin="round" d="M 186.45193 44.33043 C 186.45193 44.33043 186.45193 -44.330969 186.45193 -44.330969 C 186.45193 -44.330969 139.387053 -44.330969 139.387053 -44.330969 C 136.866483 -52.262931 133.69085 -59.910084 129.902875 -67.201223 C 129.902875 -67.201223 163.197181 -100.49553 163.197181 -100.49553 C 163.197181 -100.49553 100.510468 -163.196483 100.510468 -163.196483 C 100.510468 -163.196483 67.201922 -129.902177 67.201922 -129.902177 C 59.925022 -133.690152 52.27787 -136.880026 44.331667 -139.400596 C 44.331667 -139.400596 44.331667 -186.465472 44.331667 -186.465472 C 44.331667 -186.465472 -44.329732 -186.465472 -44.329732 -186.465472 C -44.329732 -186.465472 -44.329732 -139.400596 -44.329732 -139.400596 C -52.275935 -136.880026 -59.923087 -133.690152 -67.199987 -129.902177 C -67.199987 -129.902177 -100.508533 -163.196483 -100.508533 -163.196483 C -100.508533 -163.196483 -163.195246 -100.49553 -163.195246 -100.49553 C -163.195246 -100.49553 -129.90094 -67.201223 -129.90094 -67.201223 C -133.688915 -59.910084 -136.864548 -52.262931 -139.385118 -44.330969 C -139.385118 -44.330969 -186.449995 -44.330969 -186.449995 -44.330969 C -186.449995 -44.330969 -186.449995 44.33043 -186.449995 44.33043 C -186.449995 44.33043 -139.385118 44.33043 -139.385118 44.33043 C -136.864548 52.276633 -133.703156 59.909545 -129.90094 67.200685 C -129.90094 67.200685 -163.195246 100.494991 -163.195246 100.494991 C -163.195246 100.494991 -100.508533 163.195945 -100.508533 163.195945 C -100.508533 163.195945 -67.199987 129.901638 -67.199987 129.901638 C -59.923087 133.689613 -52.275935 136.879487 -44.329732 139.400057 C -44.329732 139.400057 -44.329732 186.464933 -44.329732 186.464933 C -44.329732 186.464933 44.331667 186.464933 44.331667 186.464933 C 44.331667 186.464933 44.331667 139.400057 44.331667 139.400057 C 52.27787 136.879487 59.925022 133.689613 67.201922 129.901638 C 67.201922 129.901638 100.510468 163.195945 100.510468 163.195945 C 100.510468 163.195945 163.197181 100.494991 163.197181 100.494991 C 163.197181 100.494991 129.902875 67.200685 129.902875 67.200685 C 133.705091 59.909545 136.866483 52.276633 139.387053 44.33043 C 139.387053 44.33043 186.45193 44.33043 186.45193 44.33043 Z M 66.205086 3.502895 C 65.393377 19.181694 59.127554 33.39372 49.287363 44.33043 C 47.720908 46.067772 46.069009 47.719671 44.331667 49.286126 C 33.380717 59.126317 19.15445 65.3779 3.489892 66.189609 C 2.336411 66.246571 1.18293 66.275052 0.000967561 66.275052 C -1.180995 66.275052 -2.334476 66.246571 -3.487957 66.189609 C -19.152515 65.3779 -33.378782 59.126317 -44.329732 49.286126 C -46.067074 47.719671 -47.718972 46.067772 -49.285428 44.33043 C -59.125619 33.39372 -65.391442 19.181694 -66.203151 3.502895 C -66.260113 2.335174 -66.288594 1.181693 -66.288594 0.0139711 C -66.288594 -1.167991 -66.260113 -2.321472 -66.203151 -3.503434 C -65.391442 -19.182233 -59.125619 -33.394259 -49.285428 -44.330969 C -47.718972 -46.068311 -46.067074 -47.720209 -44.329732 -49.286665 C -33.378782 -59.126856 -19.152515 -65.378439 -3.487957 -66.190147 C -2.334476 -66.247109 -1.180995 -66.275591 0.000967561 -66.275591 C 1.18293 -66.275591 2.336411 -66.247109 3.489892 -66.190147 C 19.15445 -65.378439 33.380717 -59.126856 44.331667 -49.286665 C 46.069009 -47.720209 47.720908 -46.068311 49.287363 -44.330969 C 59.127554 -33.394259 65.393377 -19.182233 66.205086 -3.503434 C 66.262048 -2.321472 66.290529 -1.167991 66.290529 0.0139711 C 66.290529 1.181693 66.262048 2.335174 66.205086 3.502895 Z M 66.205086 3.502895 " stroke="#253237" stroke-width="2" stroke-opacity="1" stroke-miterlimit="4"/><path stroke-linecap="butt" transform="matrix(0.274306, 0, 0, 0.274306, 173.001569, 82.642187)" fill-opacity="1" fill="#253237" fill-rule="nonzero" stroke-linejoin="miter" d="M 69.174664 63.962663 C 69.174664 63.962663 -69.171864 63.962663 -69.171864 63.962663 C -78.627561 63.962663 -86.288954 56.30127 -86.288954 46.859814 C -86.288954 46.859814 -86.288954 -46.856965 -86.288954 -46.856965 C -86.288954 -56.298421 -78.627561 -63.959814 -69.171864 -63.959814 C -69.171864 -63.959814 69.174664 -63.959814 69.174664 -63.959814 C 78.630361 -63.959814 86.277513 -56.298421 86.277513 -46.856965 C 86.277513 -46.856965 86.277513 46.859814 86.277513 46.859814 C 86.277513 56.30127 78.630361 63.962663 69.174664 63.962663 Z M 69.174664 63.962663 " stroke="#253237" stroke-width="2" stroke-opacity="1" stroke-miterlimit="10"/><path stroke-linecap="butt" transform="matrix(0.274306, 0, 0, 0.274306, 169.422416, 79.063046)" fill-opacity="1" fill="#ffffff" fill-rule="nonzero" stroke-linejoin="miter" d="M 69.178413 63.966368 C 69.178413 63.966368 -69.168116 63.966368 -69.168116 63.966368 C -78.623812 63.966368 -86.285205 56.304975 -86.285205 46.849279 C -86.285205 46.849279 -86.285205 -46.85326 -86.285205 -46.85326 C -86.285205 -56.308956 -78.623812 -63.956109 -69.168116 -63.956109 C -69.168116 -63.956109 69.178413 -63.956109 69.178413 -63.956109 C 78.61987 -63.956109 86.281262 -56.308956 86.281262 -46.85326 C 86.281262 -46.85326 86.281262 46.849279 86.281262 46.849279 C 86.281262 56.304975 78.61987 63.966368 69.178413 63.966368 Z M 69.178413 63.966368 " stroke="#253237" stroke-width="2" stroke-opacity="1" stroke-miterlimit="10"/><path stroke-linecap="round" transform="matrix(0.274306, 0, 0, 0.274306, 169.422709, 79.063046)" fill="none" stroke-linejoin="round" d="M 52.829243 36.012253 C 52.829243 36.012253 -53.9176 33.9901 -53.9176 33.9901 C -53.9176 33.9901 -52.821081 -36.016234 -52.821081 -36.016234 C -52.821081 -36.016234 53.925762 -33.979841 53.925762 -33.979841 C 53.925762 -33.979841 52.829243 36.012253 52.829243 36.012253 Z M 52.829243 36.012253 " stroke="#253237" stroke-width="2" stroke-opacity="1" stroke-miterlimit="4"/><path stroke-linecap="round" transform="matrix(0.274306, 0, 0, 0.274306, 169.572459, 74.123081)" fill="none" stroke-linejoin="round" d="M -53.367006 -18.007245 C -53.367006 -18.007245 -0.548964 18.006998 -0.548964 18.006998 C -0.548964 18.006998 53.379837 -15.970852 53.379837 -15.970852 " stroke="#253237" stroke-width="2" stroke-opacity="1" stroke-miterlimit="4"/><path stroke-linecap="round" transform="matrix(0.274306, 0, 0, 0.274306, 160.462494, 82.657545)" fill="none" stroke-linejoin="round" d="M -21.252511 20.886103 C -21.252511 20.886103 21.255403 -20.881305 21.255403 -20.881305 " stroke="#253237" stroke-width="2" stroke-opacity="1" stroke-miterlimit="4"/><path stroke-linecap="round" transform="matrix(0.274306, 0, 0, 0.274306, 178.264944, 82.996591)" fill="none" stroke-linejoin="round" d="M 20.594256 21.672241 C 20.594256 21.672241 -20.589291 -21.675863 -20.589291 -21.675863 " stroke="#253237" stroke-width="2" stroke-opacity="1" stroke-miterlimit="4"/><path stroke-linecap="butt" transform="matrix(0.274306, 0, 0, 0.274306, 253.368444, 112.055287)" fill-opacity="1" fill="#253237" fill-rule="nonzero" stroke-linejoin="miter" d="M 69.175804 63.966173 C 69.175804 63.966173 -69.170724 63.966173 -69.170724 63.966173 C -78.626421 63.966173 -86.287814 56.30478 -86.287814 46.849083 C -86.287814 46.849083 -86.287814 -46.853455 -86.287814 -46.853455 C -86.287814 -56.309152 -78.626421 -63.956304 -69.170724 -63.956304 C -69.170724 -63.956304 69.175804 -63.956304 69.175804 -63.956304 C 78.617261 -63.956304 86.278654 -56.309152 86.278654 -46.853455 C 86.278654 -46.853455 86.278654 46.849083 86.278654 46.849083 C 86.278654 56.30478 78.617261 63.966173 69.175804 63.966173 Z M 69.175804 63.966173 " stroke="#253237" stroke-width="2" stroke-opacity="1" stroke-miterlimit="10"/><path stroke-linecap="butt" transform="matrix(0.274306, 0, 0, 0.274306, 249.789276, 108.83411)" fill-opacity="1" fill="#ffffff" fill-rule="nonzero" stroke-linejoin="miter" d="M 69.179606 63.960779 C 69.179606 63.960779 -69.181163 63.960779 -69.181163 63.960779 C -78.62262 63.960779 -86.284013 56.299386 -86.284013 46.85793 C -86.284013 46.85793 -86.284013 -46.858849 -86.284013 -46.858849 C -86.284013 -56.300305 -78.62262 -63.961698 -69.181163 -63.961698 C -69.181163 -63.961698 69.179606 -63.961698 69.179606 -63.961698 C 78.621062 -63.961698 86.282455 -56.300305 86.282455 -46.858849 C 86.282455 -46.858849 86.282455 46.85793 86.282455 46.85793 C 86.282455 56.299386 78.621062 63.960779 69.179606 63.960779 Z M 69.179606 63.960779 " stroke="#253237" stroke-width="2" stroke-opacity="1" stroke-miterlimit="10"/><path fill="#253237" d="M 259.847656 111.347656 C 259.847656 111.347656 244.507812 111.347656 244.507812 111.347656 C 244.292969 111.347656 244.113281 111.171875 244.113281 110.957031 C 244.113281 110.738281 244.292969 110.5625 244.507812 110.5625 C 244.507812 110.5625 259.515625 110.5625 259.515625 110.5625 C 259.515625 110.5625 261.207031 101.097656 261.207031 101.097656 C 261.207031 101.097656 243.0625 101.097656 243.0625 101.097656 C 242.847656 101.097656 242.667969 100.921875 242.667969 100.707031 C 242.667969 100.488281 242.847656 100.3125 243.0625 100.3125 C 243.0625 100.3125 261.675781 100.3125 261.675781 100.3125 C 261.792969 100.3125 261.90625 100.363281 261.980469 100.453125 C 262.054688 100.542969 262.085938 100.660156 262.066406 100.773438 C 262.066406 100.773438 260.234375 111.023438 260.234375 111.023438 C 260.203125 111.210938 260.039062 111.347656 259.847656 111.347656 Z M 259.847656 111.347656 " fill-opacity="1" fill-rule="nonzero"/><path fill="#253237" d="M 259.335938 114.933594 C 259.335938 114.933594 244.730469 114.882812 244.730469 114.882812 C 244.53125 114.882812 244.363281 114.738281 244.339844 114.542969 C 244.339844 114.542969 242.246094 98.367188 242.246094 98.367188 C 242.246094 98.367188 237.902344 98.367188 237.902344 98.367188 C 237.683594 98.367188 237.507812 98.195312 237.507812 97.976562 C 237.507812 97.761719 237.683594 97.585938 237.902344 97.585938 C 237.902344 97.585938 242.59375 97.585938 242.59375 97.585938 C 242.792969 97.585938 242.960938 97.730469 242.984375 97.925781 C 242.984375 97.925781 245.078125 114.101562 245.078125 114.101562 C 245.078125 114.101562 259.339844 114.152344 259.339844 114.152344 C 259.558594 114.152344 259.734375 114.328125 259.734375 114.542969 C 259.730469 114.757812 259.554688 114.933594 259.335938 114.933594 Z M 259.335938 114.933594 " fill-opacity="1" fill-rule="nonzero"/><path fill="#253237" d="M 247.113281 120.082031 C 245.894531 120.082031 244.902344 119.097656 244.902344 117.890625 C 244.902344 116.679688 245.894531 115.695312 247.113281 115.695312 C 248.335938 115.695312 249.328125 116.679688 249.328125 117.890625 C 249.328125 119.097656 248.335938 120.082031 247.113281 120.082031 Z M 247.113281 116.480469 C 246.328125 116.480469 245.691406 117.113281 245.691406 117.890625 C 245.691406 118.667969 246.328125 119.300781 247.113281 119.300781 C 247.898438 119.300781 248.539062 118.667969 248.539062 117.890625 C 248.539062 117.113281 247.898438 116.480469 247.113281 116.480469 Z M 247.113281 116.480469 " fill-opacity="1" fill-rule="nonzero"/><path fill="#253237" d="M 257.195312 120.082031 C 255.976562 120.082031 254.984375 119.097656 254.984375 117.890625 C 254.984375 116.679688 255.976562 115.695312 257.195312 115.695312 C 258.417969 115.695312 259.410156 116.679688 259.410156 117.890625 C 259.410156 119.097656 258.417969 120.082031 257.195312 120.082031 Z M 257.195312 116.480469 C 256.410156 116.480469 255.773438 117.113281 255.773438 117.890625 C 255.773438 118.667969 256.410156 119.300781 257.195312 119.300781 C 257.980469 119.300781 258.621094 118.667969 258.621094 117.890625 C 258.621094 117.113281 257.980469 116.480469 257.195312 116.480469 Z M 257.195312 116.480469 " fill-opacity="1" fill-rule="nonzero"/><path fill="#253237" d="M 249.246094 111.347656 C 249.039062 111.347656 248.863281 111.1875 248.851562 110.980469 C 248.851562 110.980469 248.226562 101.0625 248.226562 101.0625 C 248.210938 100.84375 248.378906 100.660156 248.597656 100.644531 C 248.832031 100.636719 249 100.796875 249.015625 101.011719 C 249.015625 101.011719 249.640625 110.929688 249.640625 110.929688 C 249.652344 111.148438 249.488281 111.332031 249.269531 111.347656 C 249.261719 111.347656 249.253906 111.347656 249.246094 111.347656 Z M 249.246094 111.347656 " fill-opacity="1" fill-rule="nonzero"/><path fill="#253237" d="M 254.851562 111.347656 C 254.84375 111.347656 254.835938 111.347656 254.828125 111.347656 C 254.613281 111.335938 254.445312 111.148438 254.457031 110.933594 C 254.457031 110.933594 255.015625 101.015625 255.015625 101.015625 C 255.03125 100.800781 255.195312 100.636719 255.433594 100.644531 C 255.652344 100.65625 255.820312 100.84375 255.804688 101.058594 C 255.804688 101.058594 255.246094 110.976562 255.246094 110.976562 C 255.234375 111.1875 255.0625 111.347656 254.851562 111.347656 Z M 254.851562 111.347656 " fill-opacity="1" fill-rule="nonzero"/><path fill="#253237" d="M 243.632812 106.386719 C 243.414062 106.386719 243.238281 106.214844 243.234375 106 C 243.234375 105.785156 243.410156 105.605469 243.628906 105.605469 C 243.628906 105.605469 260.757812 105.441406 260.757812 105.441406 C 261.007812 105.433594 261.152344 105.609375 261.15625 105.828125 C 261.160156 106.042969 260.984375 106.21875 260.765625 106.222656 C 260.765625 106.222656 243.636719 106.386719 243.636719 106.386719 C 243.636719 106.386719 243.632812 106.386719 243.632812 106.386719 Z M 243.632812 106.386719 " fill-opacity="1" fill-rule="nonzero"/><path stroke-linecap="butt" transform="matrix(0.274306, 0, 0, 0.274306, 310.146371, 172.219779)" fill-opacity="1" fill="#253237" fill-rule="nonzero" stroke-linejoin="miter" d="M 69.173679 63.964607 C 69.173679 63.964607 -69.172849 63.964607 -69.172849 63.964607 C -78.628546 63.964607 -86.275699 56.303214 -86.275699 46.861758 C -86.275699 46.861758 -86.275699 -46.855021 -86.275699 -46.855021 C -86.275699 -56.296477 -78.628546 -63.95787 -69.172849 -63.95787 C -69.172849 -63.95787 69.173679 -63.95787 69.173679 -63.95787 C 78.629376 -63.95787 86.276529 -56.296477 86.276529 -46.855021 C 86.276529 -46.855021 86.276529 46.861758 86.276529 46.861758 C 86.276529 56.303214 78.629376 63.964607 69.173679 63.964607 Z M 69.173679 63.964607 " stroke="#253237" stroke-width="2" stroke-opacity="1" stroke-miterlimit="10"/><path stroke-linecap="butt" transform="matrix(0.274306, 0, 0, 0.274306, 306.56726, 168.640638)" fill-opacity="1" fill="#ffffff" fill-rule="nonzero" stroke-linejoin="miter" d="M 69.177271 63.968313 C 69.177271 63.968313 -69.169258 63.968313 -69.169258 63.968313 C -78.624955 63.968313 -86.286348 56.30692 -86.286348 46.851223 C -86.286348 46.851223 -86.286348 -46.851315 -86.286348 -46.851315 C -86.286348 -56.307012 -78.624955 -63.968405 -69.169258 -63.968405 C -69.169258 -63.968405 69.177271 -63.968405 69.177271 -63.968405 C 78.618727 -63.968405 86.28012 -56.307012 86.28012 -46.851315 C 86.28012 -46.851315 86.28012 46.851223 86.28012 46.851223 C 86.28012 56.30692 78.618727 63.968313 69.177271 63.968313 Z M 69.177271 63.968313 " stroke="#253237" stroke-width="2" stroke-opacity="1" stroke-miterlimit="10"/><path stroke-linecap="round" transform="matrix(0.274306, 0, 0, 0.274306, 306.56726, 168.640638)" fill="none" stroke-linejoin="round" d="M 41.308598 -0.0000463933 C 41.308598 22.813246 22.810179 41.311665 -0.00311375 41.311665 C -22.816406 41.311665 -41.314825 22.813246 -41.314825 -0.0000463933 C -41.314825 -22.813339 -22.816406 -41.311758 -0.00311375 -41.311758 C 22.810179 -41.311758 41.308598 -22.813339 41.308598 -0.0000463933 Z M 41.308598 -0.0000463933 " stroke="#253237" stroke-width="2" stroke-opacity="1" stroke-miterlimit="4"/><path stroke-linecap="round" transform="matrix(0.274306, 0, 0, 0.274306, 306.534594, 168.640638)" fill="none" stroke-linejoin="round" d="M 0.443506 -41.311758 C 29.309014 -41.311758 29.309014 41.311665 0.443506 41.311665 C -29.319155 41.311665 -29.319155 -41.311758 0.443506 -41.311758 Z M 0.443506 -41.311758 " stroke="#253237" stroke-width="2" stroke-opacity="1" stroke-miterlimit="4"/><path stroke-linecap="round" transform="matrix(0.274306, 0, 0, 0.274306, 281.5281, 149.723985)" fill="none" stroke-linejoin="round" d="M 91.606425 27.65022 C 91.606425 27.65022 91.606425 110.273643 91.606425 110.273643 " stroke="#253237" stroke-width="2" stroke-opacity="1" stroke-miterlimit="4"/><path stroke-linecap="round" transform="matrix(0.274306, 0, 0, 0.274306, 281.5281, 149.723985)" fill="none" stroke-linejoin="round" d="M 49.967182 68.961932 C 49.967182 68.961932 132.590605 68.961932 132.590605 68.961932 " stroke="#253237" stroke-width="2" stroke-opacity="1" stroke-miterlimit="4"/><path stroke-linecap="round" transform="matrix(0.274306, 0, 0, 0.274306, 98.533095, 252.533069)" fill-opacity="1" fill="#2e99ff" fill-rule="nonzero" stroke-linejoin="round" d="M 214.797087 -41.019292 C 214.797087 -41.019292 208.004365 176.689584 208.004365 176.689584 C 208.004365 176.689584 206.366707 220.721232 206.366707 220.721232 C 206.366707 220.721232 206.338226 221.532941 206.338226 221.532941 C 206.338226 221.532941 206.153099 220.721232 206.153099 220.721232 C 206.153099 220.721232 -158.774142 196.768699 -158.774142 196.768699 C -158.774142 196.768699 -175.407054 176.689584 -175.407054 176.689584 C -175.407054 176.689584 -205.539968 -64.145876 -205.539968 -64.145876 C -216.035222 -147.965502 -145.54471 -221.531963 -54.747236 -221.531963 C -54.747236 -221.531963 26.096124 -221.531963 26.096124 -221.531963 C 89.608787 -221.531963 145.630943 -192.424366 179.822401 -147.937021 C 202.906263 -117.903791 216.036011 -80.849991 214.797087 -41.019292 Z M 214.797087 -41.019292 " stroke="#253237" stroke-width="2" stroke-opacity="1" stroke-miterlimit="4"/><path stroke-linecap="round" transform="matrix(0.274306, 0, 0, 0.274306, 156.107104, 259.884417)" fill-opacity="1" fill="#e6e6e6" fill-rule="nonzero" stroke-linejoin="round" d="M 61.19974 193.921378 C 61.19974 193.921378 -3.523366 193.921378 -3.523366 193.921378 C -3.523366 193.921378 -3.551847 194.733087 -3.551847 194.733087 C -3.551847 194.733087 -3.736974 193.921378 -3.736974 193.921378 C -3.736974 193.921378 -14.944253 149.88973 -14.944253 149.88973 C -14.944253 149.88973 -59.274952 -59.759019 -59.274952 -59.759019 C -61.197421 -101.554908 -49.975901 -147.751114 -30.067672 -174.736875 C -23.27495 -183.950484 -15.456911 -190.928332 -6.812923 -194.730548 C 13.194989 -134.763771 33.544674 1.318517 53.965562 149.88973 C 56.386448 167.419794 58.793094 176.134985 61.19974 193.921378 Z M 61.19974 193.921378 " stroke="#253237" stroke-width="2" stroke-opacity="1" stroke-miterlimit="4"/><path stroke-linecap="round" transform="matrix(0.274306, 0, 0, 0.274306, 110.345798, 250.899564)" fill-opacity="1" fill="#e6e6e6" fill-rule="nonzero" stroke-linejoin="round" d="M 161.209317 -162.0326 C 130.350138 -179.391779 100.217224 -194.387033 71.536842 -204.68292 C 71.536842 -204.68292 -61.469496 -210.350642 -61.469496 -210.350642 C -96.130891 -195.625957 -129.667286 -178.067411 -161.210009 -155.425005 C -161.210009 -155.425005 -79.497978 201.954767 -79.497978 201.954767 C 9.932408 210.356666 81.191906 208.377236 125.593808 191.018057 C 125.593808 191.018057 161.209317 -162.0326 161.209317 -162.0326 Z M 161.209317 -162.0326 " stroke="#253237" stroke-width="2" stroke-opacity="1" stroke-miterlimit="4"/><path stroke-linecap="butt" transform="matrix(0.274306, 0, 0, 0.274306, 110.00566, 189.575817)" fill-opacity="1" fill="#ffffff" fill-rule="nonzero" stroke-linejoin="miter" d="M -46.430449 -66.865009 C -46.430449 -66.865009 -39.780132 -5.459941 -39.780132 -5.459941 C -39.780132 -5.459941 24.302151 66.867595 24.302151 66.867595 C 24.302151 66.867595 46.431899 21.397655 46.431899 21.397655 C 46.431899 21.397655 44.139178 -37.999501 44.139178 -37.999501 C 44.139178 -37.999501 -46.430449 -66.865009 -46.430449 -66.865009 Z M -46.430449 -66.865009 " stroke="#253237" stroke-width="2" stroke-opacity="1" stroke-miterlimit="10"/><path stroke-linecap="round" transform="matrix(0.274306, 0, 0, 0.274306, 102.673745, 197.687843)" fill-opacity="1" fill="#e6e6e6" fill-rule="nonzero" stroke-linejoin="round" d="M 51.031161 37.294638 C 51.031161 37.294638 18.70521 20.975017 18.70521 20.975017 C 18.70521 20.975017 1.972613 46.850019 1.972613 46.850019 C 1.972613 46.850019 -51.030555 -18.699037 -51.030555 -18.699037 C -51.030555 -18.699037 -27.163465 -46.354102 -27.163465 -46.354102 C -27.163465 -46.354102 -14.332767 -46.85252 -14.332767 -46.85252 C -14.332767 -46.85252 -13.051122 -35.032899 -13.051122 -35.032899 C -13.051122 -35.032899 51.031161 37.294638 51.031161 37.294638 Z M 51.031161 37.294638 " stroke="#253237" stroke-width="2" stroke-opacity="1" stroke-miterlimit="4"/><path stroke-linecap="round" transform="matrix(0.274306, 0, 0, 0.274306, 123.31964, 199.934416)" fill-opacity="1" fill="#e6e6e6" fill-rule="nonzero" stroke-linejoin="round" d="M -24.234893 29.104601 C -24.234893 29.104601 -2.774449 14.308713 -2.774449 14.308713 C -2.774449 14.308713 22.530933 37.962196 22.530933 37.962196 C 22.530933 37.962196 24.239794 -18.885909 24.239794 -18.885909 C 24.239794 -18.885909 -2.945335 -37.968189 -2.945335 -37.968189 C -2.945335 -37.968189 -2.105145 -16.365339 -2.105145 -16.365339 C -2.105145 -16.365339 -24.234893 29.104601 -24.234893 29.104601 Z M -24.234893 29.104601 " stroke="#253237" stroke-width="2" stroke-opacity="1" stroke-miterlimit="4"/><path stroke-linecap="round" transform="matrix(0.274306, 0, 0, 0.274306, 115.487099, 210.426329)" fill-opacity="1" fill="#2e99ff" fill-rule="nonzero" stroke-linejoin="round" d="M 20.52488 -20.323202 C 23.031209 -3.718771 21.749564 10.393572 16.566019 21.928383 C 16.566019 21.928383 -9.992527 22.9537 -9.992527 22.9537 C -18.109616 11.475851 -21.541579 -4.758328 -23.036832 -22.957696 C -23.036832 -22.957696 4.319183 -9.144404 4.319183 -9.144404 C 4.319183 -9.144404 20.52488 -20.323202 20.52488 -20.323202 Z M 20.52488 -20.323202 " stroke="#253237" stroke-width="2" stroke-opacity="1" stroke-miterlimit="4"/><path stroke-linecap="round" transform="matrix(0.274306, 0, 0, 0.274306, 118.410657, 258.26465)" fill-opacity="1" fill="#2e99ff" fill-rule="nonzero" stroke-linejoin="round" d="M 5.907986 -152.469558 C 5.907986 -152.469558 30.771912 -28.135689 30.771912 -28.135689 C 27.411152 28.299442 19.051974 89.71875 9.354189 152.462425 C -6.62366 96.240902 -21.49075 37.441847 -30.76132 -34.33031 C -30.76132 -34.33031 -20.65056 -151.444242 -20.65056 -151.444242 C -20.65056 -151.444242 5.907986 -152.469558 5.907986 -152.469558 Z M 5.907986 -152.469558 " stroke="#253237" stroke-width="2" stroke-opacity="1" stroke-miterlimit="4"/><path stroke-linecap="round" transform="matrix(0.274306, 0, 0, 0.274306, 61.586338, 259.292503)" fill-opacity="1" fill="#e6e6e6" fill-rule="nonzero" stroke-linejoin="round" d="M 66.80076 -29.476152 C 66.80076 -29.476152 20.390946 136.952657 20.390946 136.952657 C 5.822907 185.427344 -72.927098 161.759621 -58.344819 113.284934 C -37.112222 1.810242 -11.465069 -96.50622 17.329237 -185.423948 C 55.721645 -154.208756 72.924178 -102.900208 66.80076 -29.476152 Z M 66.80076 -29.476152 " stroke="#253237" stroke-width="2" stroke-opacity="1" stroke-miterlimit="4"/><path stroke-linecap="round" transform="matrix(0.274306, 0, 0, 0.274306, 109.89456, 180.829572)" fill-opacity="1" fill="#253237" fill-rule="nonzero" stroke-linejoin="round" d="M 42.963507 1.0058 C 42.963507 1.0058 43.775216 22.067511 43.775216 22.067511 C -1.908332 24.716245 -25.44789 6.089662 -43.775423 -24.712556 C -14.027003 -5.316985 12.802112 2.657699 42.963507 1.0058 Z M 42.963507 1.0058 " stroke="#253237" stroke-width="2" stroke-opacity="1" stroke-miterlimit="4"/><path stroke-linecap="butt" transform="matrix(0.274306, 0, 0, 0.274306, 121.172363, 250.327894)" fill-opacity="1" fill="#ffffff" fill-rule="nonzero" stroke-linejoin="miter" d="M -57.690074 2.692298 C -46.767605 -13.399475 -32.341971 -27.654223 -16.264438 -41.05454 C -14.085641 -42.877325 -11.493868 -44.215933 -8.674248 -44.643148 C -4.117285 -45.326693 -0.913171 -43.503908 1.165943 -39.616249 C 4.213411 -33.920046 2.803601 -26.828274 -1.71064 -22.214349 C -1.71064 -22.214349 -17.759691 -5.852006 -17.759691 -5.852006 C -9.03026 -7.532386 -0.927412 -10.465931 6.733981 -14.325108 C 16.616893 -19.295045 24.078919 -28.067198 27.881135 -38.462768 C 27.923856 -38.562452 27.966578 -38.676376 27.995059 -38.776059 C 31.569426 -48.516566 44.983984 -49.442199 49.854237 -40.299793 C 50.423858 -39.231755 50.950756 -38.120996 51.434934 -36.967515 C 57.686516 -22.214349 54.639048 -5.154221 44.613731 7.334704 C 36.339996 17.61635 25.260881 26.573629 9.923855 33.494515 C 9.923855 33.494515 -37.069819 49.443884 -37.069819 49.443884 C -37.069819 49.443884 -57.690074 2.692298 -57.690074 2.692298 Z M -57.690074 2.692298 " stroke="#253237" stroke-width="2" stroke-opacity="1" stroke-miterlimit="10"/><path fill="#e6e6e6" d="M 62.609375 302.972656 C 51.953125 311.347656 38.015625 293.613281 48.671875 285.238281 C 48.671875 285.238281 105.90625 248.234375 105.90625 248.234375 C 105.90625 248.234375 114.214844 264.074219 114.214844 264.074219 C 114.214844 264.074219 62.609375 302.972656 62.609375 302.972656 Z M 62.609375 302.972656 " fill-opacity="1" fill-rule="nonzero"/><path stroke-linecap="butt" transform="matrix(0.274306, 0, 0, 0.274306, 88.412605, 275.604356)" fill="none" stroke-linejoin="miter" d="M 63.774305 -99.779179 C 63.774305 -99.779179 94.063864 -42.033922 94.063864 -42.033922 C 94.063864 -42.033922 -94.067478 99.77305 -94.067478 99.77305 " stroke="#253237" stroke-width="2" stroke-opacity="1" stroke-miterlimit="10"/><path stroke-linecap="round" transform="matrix(0.274306, 0, 0, 0.274306, 52.096199, 298.414785)" fill="none" stroke-linejoin="round" d="M -21.44089 -41.371308 C -38.330132 3.073315 0.688858 41.38028 38.326519 16.616037 " stroke="#253237" stroke-width="2" stroke-opacity="1" stroke-miterlimit="4"/><path stroke-linecap="round" transform="matrix(0.274306, 0, 0, 0.274306, 83.077631, 262.994808)" fill="none" stroke-linejoin="round" d="M -83.219724 53.805326 C -83.219724 53.805326 83.223326 -53.810188 83.223326 -53.810188 " stroke="#253237" stroke-width="2" stroke-opacity="1" stroke-miterlimit="4"/><path stroke-linecap="round" transform="matrix(0.274306, 0, 0, 0.274306, 136.501652, 138.198389)" fill-opacity="1" fill="#253237" fill-rule="nonzero" stroke-linejoin="round" d="M 7.626891 -36.466916 C 16.156955 -12.927357 12.212334 11.438151 -1.729122 36.472963 C -1.729122 36.472963 -16.154756 -31.838751 -16.154756 -31.838751 C -16.154756 -31.838751 7.626891 -36.466916 7.626891 -36.466916 Z M 7.626891 -36.466916 " stroke="#253237" stroke-width="2" stroke-opacity="1" stroke-miterlimit="4"/><path stroke-linecap="butt" transform="matrix(0.274306, 0, 0, 0.274306, 115.495874, 150.170469)" fill-opacity="1" fill="#ffffff" fill-rule="nonzero" stroke-linejoin="miter" d="M -73.722304 -12.241712 C -73.722304 -12.241712 -71.315659 32.501962 -71.315659 32.501962 C -71.315659 32.501962 -65.420088 86.131713 -65.420088 86.131713 C -28.907428 109.742474 9.185929 120.921272 50.141628 109.585828 C 58.913781 107.164942 65.763465 100.301018 68.212832 91.528865 C 79.021377 52.92285 78.366314 0.00512444 66.575174 -66.797095 C 32.711247 -120.911023 -37.352049 -114.830327 -79.019773 -67.466399 C -79.019773 -67.466399 -73.722304 -12.241712 -73.722304 -12.241712 Z M -73.722304 -12.241712 " stroke="#253237" stroke-width="2" stroke-opacity="1" stroke-miterlimit="10"/><path stroke-linecap="butt" transform="matrix(0.274306, 0, 0, 0.274306, 91.096391, 151.256988)" fill-opacity="1" fill="#ffffff" fill-rule="nonzero" stroke-linejoin="miter" d="M 15.227717 -16.20269 C 5.971387 -30.272312 -17.824501 -19.890982 -9.536526 3.976109 C -0.921019 23.855857 8.378033 28.697629 17.819489 30.264085 C 17.819489 30.264085 15.227717 -16.20269 15.227717 -16.20269 Z M 15.227717 -16.20269 " stroke="#253237" stroke-width="2" stroke-opacity="1" stroke-miterlimit="10"/><path stroke-linecap="round" transform="matrix(0.274306, 0, 0, 0.274306, 94.458008, 137.962755)" fill-opacity="1" fill="#253237" fill-rule="nonzero" stroke-linejoin="round" d="M 20.545492 -43.08416 C 39.143594 -16.710741 27.039163 37.18958 4.524921 52.042429 C 4.524921 52.042429 2.972706 32.262364 2.972706 32.262364 C -3.107991 26.409515 -9.53046 23.006034 -17.376979 29.115212 C -35.818436 -3.267702 -39.136475 -30.7234 -23.5716 -52.041439 C -23.5716 -52.041439 20.545492 -43.08416 20.545492 -43.08416 Z M 20.545492 -43.08416 " stroke="#253237" stroke-width="2" stroke-opacity="1" stroke-miterlimit="4"/><path stroke-linecap="round" transform="matrix(0.274306, 0, 0, 0.274306, 116.210987, 120.201753)" fill-opacity="1" fill="#253237" fill-rule="nonzero" stroke-linejoin="round" d="M 74.947609 -46.746583 C 102.873243 -8.040885 90.398559 22.889497 65.491912 51.413234 C 42.621657 28.770827 3.645388 27.361017 -49.970122 45.289815 C -49.970122 45.289815 -102.873606 12.707535 -102.873606 12.707535 C -100.110948 -34.115253 -49.172653 -51.403229 -8.615688 -29.771899 C 34.903302 -13.608923 63.370076 -18.422214 74.947609 -46.746583 Z M 74.947609 -46.746583 " stroke="#253237" stroke-width="2" stroke-opacity="1" stroke-miterlimit="4"/><path stroke-linecap="butt" transform="matrix(0.274306, 0, 0, 0.274306, 101.357621, 161.423838)" fill="none" stroke-linejoin="miter" d="M -25.256266 -24.913804 C -15.017341 -1.146398 -0.548986 18.035566 25.254814 24.913731 " stroke="#253237" stroke-width="4" stroke-opacity="1" stroke-miterlimit="10"/><path stroke-linecap="butt" transform="matrix(0.274306, 0, 0, 0.274306, 108.771266, 168.327294)" fill-opacity="1" fill="#253237" fill-rule="nonzero" stroke-linejoin="miter" d="M 2.329118 7.237208 C 2.329118 7.237208 -6.386072 5.101132 -6.386072 5.101132 C -9.106009 4.431828 -10.686705 1.982461 -9.903477 -0.352982 C -9.903477 -0.352982 -8.636072 -4.197919 -8.636072 -4.197919 C -7.867085 -6.547603 -5.047464 -7.900451 -2.327527 -7.245388 C -2.327527 -7.245388 6.387663 -5.095071 6.387663 -5.095071 C 9.1076 -4.425767 10.674056 -1.990641 9.905068 0.359043 C 9.905068 0.359043 8.637663 4.20398 8.637663 4.20398 C 7.868676 6.539423 5.049055 7.906512 2.329118 7.237208 Z M 2.329118 7.237208 " stroke="#253237" stroke-width="2" stroke-opacity="1" stroke-miterlimit="10"/><path stroke-linecap="butt" transform="matrix(0.274306, 0, 0, 0.274306, 94.180693, 152.312232)" fill-opacity="1" fill="#2e99ff" fill-rule="nonzero" stroke-linejoin="miter" d="M 29.986844 0.000978478 C 29.986844 16.562688 16.558045 29.977246 -0.00366458 29.977246 C -16.565375 29.977246 -29.979933 16.562688 -29.979933 0.000978478 C -29.979933 -16.560732 -16.565375 -29.975289 -0.00366458 -29.975289 C 16.558045 -29.975289 29.986844 -16.560732 29.986844 0.000978478 Z M 29.986844 0.000978478 " stroke="#253237" stroke-width="2" stroke-opacity="1" stroke-miterlimit="10"/><path stroke-linecap="butt" transform="matrix(0.274306, 0, 0, 0.274306, 104.607866, 132.633565)" fill-opacity="1" fill="#2e99ff" fill-rule="nonzero" stroke-linejoin="miter" d="M -50.676466 68.081123 C -44.083111 13.497258 -28.546718 -38.423632 24.755501 -79.165723 C 40.519743 -81.572369 43.595693 -78.952115 52.552972 -69.168887 C -7.257159 -44.988506 -22.907477 8.384916 -32.477098 71.470363 C -34.356845 81.566883 -52.556213 78.177642 -50.676466 68.081123 Z M -50.676466 68.081123 " stroke="#253237" stroke-width="2" stroke-opacity="1" stroke-miterlimit="10"/><path stroke-linecap="round" transform="matrix(0.274306, 0, 0, 0.274306, 127.330791, 153.715581)" fill="none" stroke-linejoin="round" d="M -5.89105 -33.966298 C -3.726493 -8.988448 2.510849 12.030541 12.764015 29.076428 C 3.65009 32.750479 -4.808771 33.960922 -12.769215 33.220416 " stroke="#253237" stroke-width="2" stroke-opacity="1" stroke-miterlimit="4"/><path stroke-linecap="round" transform="matrix(0.274306, 0, 0, 0.274306, 112.62472, 141.962129)" fill="none" stroke-linejoin="round" d="M 12.176653 -5.045484 C 1.154501 -6.270167 -6.948348 -2.496433 -12.174614 6.261479 " stroke="#253237" stroke-width="2" stroke-opacity="1" stroke-miterlimit="4"/><path stroke-linecap="round" transform="matrix(0.274306, 0, 0, 0.274306, 131.176285, 143.318575)" fill="none" stroke-linejoin="round" d="M 9.866836 3.110763 C 4.726013 -0.990503 -1.397405 -3.112338 -9.870507 -0.477844 " stroke="#253237" stroke-width="2" stroke-opacity="1" stroke-miterlimit="4"/><path stroke-linecap="round" transform="matrix(0.274306, 0, 0, 0.274306, 115.066871, 150.891612)" fill-opacity="1" fill="#253237" fill-rule="nonzero" stroke-linejoin="round" d="M -5.028595 0.19577 C -4.814987 5.706846 -2.394101 10.078682 0.382798 9.978999 C 3.159697 9.865075 5.238811 5.308112 5.025204 -0.188724 C 4.811596 -5.6998 2.39071 -10.085876 -0.386189 -9.971952 C -3.163088 -9.872269 -5.242202 -5.315306 -5.028595 0.19577 Z M -5.028595 0.19577 " stroke="#253237" stroke-width="2" stroke-opacity="1" stroke-miterlimit="4"/><path stroke-linecap="round" transform="matrix(0.274306, 0, 0, 0.274306, 131.367754, 148.632149)" fill-opacity="1" fill="#253237" fill-rule="nonzero" stroke-linejoin="round" d="M -3.975168 0.159066 C -3.804282 4.630585 -1.881813 8.190712 0.311225 8.105269 C 2.504263 8.019826 4.141921 4.317294 3.971035 -0.154225 C 3.800149 -4.625745 1.877681 -8.185872 -0.315357 -8.100429 C -2.508396 -8.014985 -4.146054 -4.326694 -3.975168 0.159066 Z M -3.975168 0.159066 " stroke="#253237" stroke-width="2" stroke-opacity="1" stroke-miterlimit="4"/><path stroke-linecap="round" transform="matrix(0.274306, 0, 0, 0.274306, 118.469351, 171.154837)" fill="none" stroke-linejoin="round" d="M 14.822177 4.334266 C 3.899708 3.793127 -6.225293 1.429203 -14.82656 -4.338203 " stroke="#253237" stroke-width="2" stroke-opacity="1" stroke-miterlimit="4"/><path stroke-linecap="round" transform="matrix(0.274306, 0, 0, 0.274306, 321.07009, 271.758849)" fill-opacity="1" fill="#ffffff" fill-rule="nonzero" stroke-linejoin="round" d="M 7.719167 -86.5291 C 8.160623 -89.562328 10.62423 -91.88353 13.671699 -92.1541 C 17.958092 -92.538594 21.461256 -88.807581 20.806193 -84.56391 C 20.806193 -84.56391 -8.20172 92.54528 -8.20172 92.54528 C -8.20172 92.54528 -21.459633 92.54528 -21.459633 92.54528 C -21.459633 92.54528 7.719167 -86.5291 7.719167 -86.5291 Z M 7.719167 -86.5291 " stroke="#253237" stroke-width="2" stroke-opacity="1" stroke-miterlimit="4"/><path stroke-linecap="round" transform="matrix(0.274306, 0, 0, 0.274306, 309.019818, 232.25392)" fill-opacity="1" fill="#ffffff" fill-rule="nonzero" stroke-linejoin="round" d="M 61.987884 59.667676 C 61.987884 59.667676 -57.618137 -71.743726 -57.618137 -71.743726 C -57.618137 -71.743726 -58.501049 -70.305435 -58.501049 -70.305435 C -58.501049 -70.305435 -64.296935 -60.707333 -64.296935 -60.707333 C -64.296935 -60.707333 52.176174 68.553752 52.176174 68.553752 C 55.052757 71.743626 60.165099 71.387613 62.571745 67.841727 C 64.294846 65.306917 64.052757 61.931916 61.987884 59.667676 Z M 61.987884 59.667676 " stroke="#253237" stroke-width="2" stroke-opacity="1" stroke-miterlimit="4"/><path stroke-linecap="round" transform="matrix(0.274306, 0, 0, 0.274306, 315.718373, 299.052489)" fill-opacity="1" fill="#e6e6e6" fill-rule="nonzero" stroke-linejoin="round" d="M -54.454327 8.666243 C -54.454327 8.666243 54.457073 8.666243 54.457073 8.666243 C 54.457073 8.666243 40.558338 -8.664455 4.287766 -8.664455 C -29.476477 -8.664455 -49.598314 1.261179 -54.454327 8.666243 Z M -54.454327 8.666243 " stroke="#253237" stroke-width="2" stroke-opacity="1" stroke-miterlimit="4"/><path stroke-linecap="round" transform="matrix(0.274306, 0, 0, 0.274306, 293.176742, 205.000271)" fill-opacity="1" fill="#e6e6e6" fill-rule="nonzero" stroke-linejoin="round" d="M 0.822447 6.777495 C 0.822447 6.777495 6.362004 -1.524721 6.362004 -1.524721 C 6.362004 -1.524721 -0.473439 -6.779468 -0.473439 -6.779468 C -0.473439 -6.779468 -6.354769 1.57971 -6.354769 1.57971 C -6.354769 1.57971 0.822447 6.777495 0.822447 6.777495 Z M 0.822447 6.777495 " stroke="#253237" stroke-width="2" stroke-opacity="1" stroke-miterlimit="4"/><path stroke-linecap="round" transform="matrix(0.274306, 0, 0, 0.274306, 281.927213, 219.031831)" fill-opacity="1" fill="#ffffff" fill-rule="nonzero" stroke-linejoin="round" d="M 51.203644 -39.362881 C 51.203644 -39.362881 27.365035 -56.650857 27.365035 -56.650857 C 27.365035 -56.650857 4.48054 -29.123956 4.48054 -29.123956 C -35.207754 -22.729969 -51.214085 2.233641 -51.214085 2.233641 C -51.214085 2.233641 19.846047 56.646619 19.846047 56.646619 C 44.168833 29.760541 32.648263 -8.646107 32.648263 -8.646107 C 32.648263 -8.646107 51.203644 -39.362881 51.203644 -39.362881 Z M 51.203644 -39.362881 " stroke="#253237" stroke-width="2" stroke-opacity="1" stroke-miterlimit="4"/><path stroke-linecap="round" transform="matrix(0.274306, 0, 0, 0.274306, 287.018863, 213.851837)" fill="none" stroke-linejoin="round" d="M -14.081427 -10.239926 C -14.081427 -10.239926 14.086297 10.237923 14.086297 10.237923 " stroke="#253237" stroke-width="2" stroke-opacity="1" stroke-miterlimit="4"/><path stroke-linecap="round" transform="matrix(0.274306, 0, 0, 0.274306, 145.541129, 298.9842)" fill-opacity="1" fill="#ffffff" fill-rule="nonzero" stroke-linejoin="round" d="M 110.299438 11.022792 C 110.299438 11.022792 -110.300261 11.022792 -110.300261 11.022792 C -110.300261 11.022792 -110.300261 -11.035754 -110.300261 -11.035754 C -110.300261 -11.035754 110.299438 -11.035754 110.299438 -11.035754 C 110.299438 -11.035754 110.299438 11.022792 110.299438 11.022792 Z M 110.299438 11.022792 " stroke="#253237" stroke-width="2" stroke-opacity="1" stroke-miterlimit="4"/><path stroke-linecap="round" transform="matrix(0.274306, 0, 0, 0.274306, 196.381748, 235.11958)" fill-opacity="1" fill="#ffffff" fill-rule="nonzero" stroke-linejoin="round" d="M -245.103733 160.923252 C -245.103733 160.923252 245.097251 160.923252 245.097251 160.923252 C 245.097251 160.923252 245.097251 -160.926454 245.097251 -160.926454 C 245.097251 -160.926454 -245.103733 -160.926454 -245.103733 -160.926454 C -245.103733 -160.926454 -245.103733 160.923252 -245.103733 160.923252 Z M -245.103733 160.923252 " stroke="#253237" stroke-width="2" stroke-opacity="1" stroke-miterlimit="4"/><path stroke-linecap="round" transform="matrix(0.274306, 0, 0, 0.274306, 126.749835, 235.119858)" fill-opacity="1" fill="#ffffff" fill-rule="nonzero" stroke-linejoin="round" d="M 8.744272 -160.927469 C 8.744272 -160.927469 -8.743071 -160.927469 -8.743071 -160.927469 C -8.743071 -160.927469 -8.743071 160.936478 -8.743071 160.936478 C -8.743071 160.936478 8.744272 160.936478 8.744272 160.936478 C 8.744272 160.936478 8.744272 -160.927469 8.744272 -160.927469 Z M 8.744272 -160.927469 " stroke="#253237" stroke-width="2" stroke-opacity="1" stroke-miterlimit="4"/><path stroke-linecap="round" transform="matrix(0.274306, 0, 0, 0.274306, 206.936475, 277.493185)" fill-opacity="1" fill="#ffffff" fill-rule="nonzero" stroke-linejoin="round" d="M -86.849117 -83.823262 C -86.849117 -83.823262 30.549625 -83.823262 30.549625 -83.823262 C 30.549625 -83.823262 86.842351 83.81599 86.842351 83.81599 C 86.842351 83.81599 -56.645001 83.81599 -56.645001 83.81599 C -56.645001 83.81599 -86.849117 -83.823262 -86.849117 -83.823262 Z M -86.849117 -83.823262 " stroke="#253237" stroke-width="2" stroke-opacity="1" stroke-miterlimit="4"/><path stroke-linecap="round" transform="matrix(0.274306, 0, 0, 0.274306, 184.666984, 277.493185)" fill-opacity="1" fill="#ffffff" fill-rule="nonzero" stroke-linejoin="round" d="M -5.664133 -83.823262 C -5.664133 -83.823262 -24.547046 -83.823262 -24.547046 -83.823262 C -24.547046 -83.823262 2.225108 83.81599 2.225108 83.81599 C 2.225108 83.81599 24.539983 83.81599 24.539983 83.81599 C 24.539983 83.81599 -5.664133 -83.823262 -5.664133 -83.823262 Z M -5.664133 -83.823262 " stroke="#253237" stroke-width="2" stroke-opacity="1" stroke-miterlimit="4"/><path stroke-linecap="round" transform="matrix(0.274306, 0, 0, 0.274306, 191.861462, 308.275761)" fill-opacity="1" fill="#253237" fill-rule="nonzero" stroke-linejoin="round" d="M -609.615244 26.507356 C -609.615244 26.507356 609.614272 26.507356 609.614272 26.507356 C 609.614272 26.507356 609.614272 -26.510053 609.614272 -26.510053 C 609.614272 -26.510053 -609.615244 -26.510053 -609.615244 -26.510053 C -609.615244 -26.510053 -609.615244 26.507356 -609.615244 26.507356 Z M -609.615244 26.507356 " stroke="#253237" stroke-width="2" stroke-opacity="1" stroke-miterlimit="4"/><path stroke-linecap="round" transform="matrix(0.274306, 0, 0, 0.274306, 337.880608, 308.27494)" fill-opacity="1" fill="#253237" fill-rule="nonzero" stroke-linejoin="round" d="M 77.29127 26.510348 C 77.29127 26.510348 -77.289437 26.510348 -77.289437 26.510348 C -77.289437 26.510348 -77.289437 -26.521301 -77.289437 -26.521301 C -77.289437 -26.521301 77.29127 -26.521301 77.29127 -26.521301 C 77.29127 -26.521301 77.29127 26.510348 77.29127 26.510348 Z M 77.29127 26.510348 " stroke="#253237" stroke-width="2" stroke-opacity="1" stroke-miterlimit="4"/></svg>