<svg xmlns="http://www.w3.org/2000/svg" xmlns:xlink="http://www.w3.org/1999/xlink" width="500" zoomAndPan="magnify" viewBox="0 0 375 374.999991" height="500" preserveAspectRatio="xMidYMid meet" version="1.0"><defs><clipPath id="7aafa02ee5"><path d="M 100 110 L 358.316406 110 L 358.316406 247 L 100 247 Z M 100 110 " clip-rule="nonzero"/></clipPath></defs><rect x="-37.5" width="450" fill="#ffffff" y="-37.499999" height="449.999989" fill-opacity="1"/><rect x="-37.5" width="450" fill="#ffffff" y="-37.499999" height="449.999989" fill-opacity="1"/><g clip-path="url(#7aafa02ee5)"><path fill="#00b1f2" d="M 192.027344 165.453125 C 182.566406 123.296875 142.328125 116.425781 133.976562 154.238281 C 134.222656 153.320312 134.03125 154.054688 134.078125 153.882812 C 125.480469 194.296875 173.882812 216.699219 208.171875 216.3125 C 208.09375 216.320312 208.511719 216.296875 208.027344 216.328125 C 257.269531 215.210938 311.929688 192.460938 358.445312 216.683594 C 335.039062 214.074219 307.707031 220.605469 285.210938 228.214844 C 165.695312 275.75 115.152344 219.5625 103.714844 186.839844 C 88.851562 142.355469 129.164062 93.695312 171.90625 115.601562 C 171.882812 115.589844 172.445312 115.820312 172.265625 115.757812 C 190.183594 124.859375 196.453125 146.042969 192.027344 165.453125 " fill-opacity="1" fill-rule="nonzero"/></g><path fill="#2ea5e4" d="M 32.246094 154.871094 C 46.710938 264.648438 136.871094 277.167969 225.246094 260.835938 C 267.347656 251.851562 309.921875 227.761719 353.597656 236.84375 C 330.242188 240.90625 305.507812 254.570312 284.59375 266.1875 C 153.378906 344.140625 -5.042969 276.824219 32.246094 154.871094 " fill-opacity="1" fill-rule="nonzero"/><path fill="#00b1f2" d="M 88.539062 85.898438 C 88.539062 85.898438 23.222656 166.953125 115.453125 239.296875 C 115.453125 239.296875 -15.1875 177.886719 88.539062 85.898438 " fill-opacity="1" fill-rule="nonzero"/><path fill="#00b1f2" d="M 167.828125 89.035156 C 167.828125 89.035156 97.429688 79.84375 85.417969 148.398438 C 85.417969 148.398438 77.9375 63.507812 167.828125 89.035156 " fill-opacity="1" fill-rule="nonzero"/></svg>