<svg xmlns="http://www.w3.org/2000/svg" xmlns:xlink="http://www.w3.org/1999/xlink" width="300" zoomAndPan="magnify" viewBox="0 0 224.87999 74.999997" height="100" preserveAspectRatio="xMidYMid meet" version="1.0"><defs><g/><clipPath id="04612aceee"><path d="M 27 14 L 102.46875 14 L 102.46875 55 L 27 55 Z M 27 14 " clip-rule="nonzero"/></clipPath></defs><g fill="#00b1f2" fill-opacity="1"><g transform="translate(62.589823, 39.003438)"><g><path d="M 11.40625 0.203125 C 9.570312 0.203125 7.921875 -0.132812 6.453125 -0.8125 C 4.992188 -1.5 3.832031 -2.503906 2.96875 -3.828125 C 2.101562 -5.148438 1.671875 -6.75 1.671875 -8.625 C 1.671875 -9.9375 1.898438 -11.359375 2.359375 -12.890625 C 3.367188 -16.171875 4.890625 -18.535156 6.921875 -19.984375 C 8.953125 -21.441406 11.128906 -22.171875 13.453125 -22.171875 C 14.691406 -22.171875 15.789062 -21.984375 16.75 -21.609375 C 17.71875 -21.242188 18.609375 -20.707031 19.421875 -20 L 20.296875 -20.6875 C 20.890625 -21.15625 21.390625 -21.472656 21.796875 -21.640625 C 22.203125 -21.816406 22.65625 -21.90625 23.15625 -21.90625 C 23.695312 -21.90625 24.128906 -21.785156 24.453125 -21.546875 C 24.785156 -21.304688 24.953125 -20.957031 24.953125 -20.5 C 24.953125 -20.257812 24.910156 -20.019531 24.828125 -19.78125 L 22.984375 -14.65625 C 22.796875 -14.070312 22.5625 -13.65625 22.28125 -13.40625 C 22.007812 -13.164062 21.601562 -13.046875 21.0625 -13.046875 C 20.488281 -13.046875 20.019531 -13.25 19.65625 -13.65625 C 19.300781 -14.0625 18.894531 -14.757812 18.4375 -15.75 C 17.90625 -16.769531 17.472656 -17.441406 17.140625 -17.765625 C 16.816406 -18.097656 16.335938 -18.265625 15.703125 -18.265625 C 14.804688 -18.265625 13.941406 -17.710938 13.109375 -16.609375 C 12.285156 -15.503906 11.535156 -13.847656 10.859375 -11.640625 C 10.285156 -9.785156 10 -8.234375 10 -6.984375 C 10 -5.890625 10.207031 -5.070312 10.625 -4.53125 C 11.039062 -4 11.597656 -3.734375 12.296875 -3.734375 C 13.328125 -3.734375 14.175781 -3.960938 14.84375 -4.421875 C 15.507812 -4.878906 16.191406 -5.503906 16.890625 -6.296875 C 17.328125 -6.773438 17.679688 -7.128906 17.953125 -7.359375 C 18.222656 -7.585938 18.515625 -7.703125 18.828125 -7.703125 C 19.222656 -7.703125 19.640625 -7.503906 20.078125 -7.109375 C 20.515625 -6.722656 20.71875 -6.332031 20.6875 -5.9375 C 20.71875 -5.457031 20.332031 -4.710938 19.53125 -3.703125 C 18.726562 -2.703125 17.625 -1.800781 16.21875 -1 C 14.8125 -0.195312 13.207031 0.203125 11.40625 0.203125 Z M 11.40625 0.203125 "/></g></g></g><g fill="#00b1f2" fill-opacity="1"><g transform="translate(85.289097, 39.003438)"><g><path d="M 11.125 -17.515625 C 13.894531 -17.515625 15.898438 -17.070312 17.140625 -16.1875 C 18.390625 -15.300781 19.015625 -14.171875 19.015625 -12.796875 C 19.015625 -12.378906 18.972656 -11.992188 18.890625 -11.640625 C 18.566406 -10.203125 17.65625 -9.171875 16.15625 -8.546875 C 14.65625 -7.921875 12.890625 -7.609375 10.859375 -7.609375 C 9.828125 -7.609375 8.863281 -7.675781 7.96875 -7.8125 C 7.945312 -6.664062 8.253906 -5.863281 8.890625 -5.40625 C 9.523438 -4.945312 10.410156 -4.71875 11.546875 -4.71875 C 12.066406 -4.71875 12.566406 -4.773438 13.046875 -4.890625 C 13.535156 -5.015625 14.148438 -5.195312 14.890625 -5.4375 C 15.503906 -5.65625 15.921875 -5.765625 16.140625 -5.765625 C 16.378906 -5.765625 16.5 -5.625 16.5 -5.34375 C 16.519531 -4.582031 16.234375 -3.78125 15.640625 -2.9375 C 15.054688 -2.09375 14.179688 -1.375 13.015625 -0.78125 C 11.859375 -0.195312 10.460938 0.09375 8.828125 0.09375 C 6.398438 0.09375 4.410156 -0.515625 2.859375 -1.734375 C 1.304688 -2.960938 0.53125 -4.742188 0.53125 -7.078125 C 0.53125 -7.734375 0.613281 -8.5 0.78125 -9.375 C 1.332031 -12.0625 2.53125 -14.085938 4.375 -15.453125 C 6.226562 -16.828125 8.476562 -17.515625 11.125 -17.515625 Z M 8.203125 -9.78125 C 8.285156 -9.75 8.40625 -9.734375 8.5625 -9.734375 C 9.476562 -9.734375 10.175781 -10.160156 10.65625 -11.015625 C 11.132812 -11.867188 11.363281 -12.820312 11.34375 -13.875 C 11.320312 -14.488281 11.148438 -14.796875 10.828125 -14.796875 C 10.585938 -14.796875 10.300781 -14.601562 9.96875 -14.21875 C 9.644531 -13.832031 9.320312 -13.253906 9 -12.484375 C 8.6875 -11.722656 8.421875 -10.820312 8.203125 -9.78125 Z M 8.203125 -9.78125 "/></g></g></g><g fill="#00b1f2" fill-opacity="1"><g transform="translate(103.65845, 39.003438)"><g><path d="M 16.109375 -17.34375 C 17.328125 -17.34375 18.300781 -16.972656 19.03125 -16.234375 C 19.769531 -15.492188 20.140625 -14.578125 20.140625 -13.484375 C 20.140625 -13.066406 20.09375 -12.679688 20 -12.328125 C 19.78125 -11.429688 19.363281 -10.742188 18.75 -10.265625 C 18.144531 -9.785156 17.414062 -9.546875 16.5625 -9.546875 C 15.726562 -9.546875 15.097656 -9.738281 14.671875 -10.125 C 14.242188 -10.519531 13.867188 -11.046875 13.546875 -11.703125 C 13.367188 -12.078125 13.203125 -12.351562 13.046875 -12.53125 C 12.898438 -12.707031 12.726562 -12.796875 12.53125 -12.796875 C 12.3125 -12.796875 12.117188 -12.707031 11.953125 -12.53125 C 11.785156 -12.351562 11.640625 -12.046875 11.515625 -11.609375 L 8.984375 -3.40625 C 8.941406 -3.300781 8.921875 -3.140625 8.921875 -2.921875 C 8.921875 -2.640625 9 -2.40625 9.15625 -2.21875 C 9.320312 -2.03125 9.550781 -1.847656 9.84375 -1.671875 C 10.101562 -1.492188 10.273438 -1.347656 10.359375 -1.234375 C 10.453125 -1.128906 10.488281 -0.988281 10.46875 -0.8125 C 10.414062 -0.53125 10.253906 -0.320312 9.984375 -0.1875 C 9.710938 -0.0625 9.25 0 8.59375 0 L 0.203125 0 C -0.367188 0 -0.78125 -0.09375 -1.03125 -0.28125 C -1.28125 -0.46875 -1.375 -0.710938 -1.3125 -1.015625 C -1.226562 -1.273438 -1 -1.503906 -0.625 -1.703125 C -0.289062 -1.878906 -0.015625 -2.085938 0.203125 -2.328125 C 0.421875 -2.566406 0.601562 -2.945312 0.75 -3.46875 L 3.671875 -12.953125 C 3.710938 -13.066406 3.734375 -13.21875 3.734375 -13.40625 C 3.734375 -13.65625 3.679688 -13.84375 3.578125 -13.96875 C 3.484375 -14.101562 3.328125 -14.269531 3.109375 -14.46875 C 2.890625 -14.632812 2.738281 -14.785156 2.65625 -14.921875 C 2.570312 -15.054688 2.5625 -15.234375 2.625 -15.453125 C 2.757812 -15.953125 3.445312 -16.390625 4.6875 -16.765625 C 5.9375 -17.148438 7.238281 -17.34375 8.59375 -17.34375 C 9.488281 -17.34375 10.226562 -17.140625 10.8125 -16.734375 C 11.40625 -16.335938 11.789062 -15.765625 11.96875 -15.015625 C 13.019531 -16.566406 14.398438 -17.34375 16.109375 -17.34375 Z M 16.109375 -17.34375 "/></g></g></g><g fill="#00b1f2" fill-opacity="1"><g transform="translate(122.65105, 39.003438)"><g><path d="M 19.484375 -4.53125 C 19.441406 -4.351562 19.421875 -4.21875 19.421875 -4.125 C 19.421875 -3.976562 19.457031 -3.859375 19.53125 -3.765625 C 19.601562 -3.679688 19.707031 -3.640625 19.84375 -3.640625 C 20.101562 -3.640625 20.328125 -3.753906 20.515625 -3.984375 C 20.703125 -4.210938 20.828125 -4.328125 20.890625 -4.328125 C 21.003906 -4.328125 21.097656 -4.253906 21.171875 -4.109375 C 21.242188 -3.972656 21.28125 -3.804688 21.28125 -3.609375 C 21.300781 -2.992188 21.082031 -2.382812 20.625 -1.78125 C 20.164062 -1.1875 19.519531 -0.691406 18.6875 -0.296875 C 17.863281 0.0976562 16.9375 0.296875 15.90625 0.296875 C 14.613281 0.296875 13.582031 0.0351562 12.8125 -0.484375 C 12.050781 -1.015625 11.5625 -1.707031 11.34375 -2.5625 C 10.5625 -1.6875 9.691406 -1.023438 8.734375 -0.578125 C 7.785156 -0.128906 6.820312 0.09375 5.84375 0.09375 C 4.3125 0.09375 3.023438 -0.28125 1.984375 -1.03125 C 0.941406 -1.789062 0.421875 -2.847656 0.421875 -4.203125 C 0.421875 -4.804688 0.53125 -5.4375 0.75 -6.09375 L 2.859375 -12.953125 C 2.921875 -13.148438 2.953125 -13.316406 2.953125 -13.453125 C 2.953125 -13.691406 2.894531 -13.878906 2.78125 -14.015625 C 2.675781 -14.160156 2.515625 -14.3125 2.296875 -14.46875 C 2.078125 -14.632812 1.921875 -14.785156 1.828125 -14.921875 C 1.742188 -15.054688 1.734375 -15.234375 1.796875 -15.453125 C 1.929688 -15.953125 2.617188 -16.390625 3.859375 -16.765625 C 5.109375 -17.148438 6.410156 -17.34375 7.765625 -17.34375 C 9.035156 -17.34375 9.96875 -17.101562 10.5625 -16.625 C 11.15625 -16.144531 11.453125 -15.488281 11.453125 -14.65625 C 11.453125 -14.15625 11.375 -13.675781 11.21875 -13.21875 L 9.15625 -6.390625 C 9.0625 -6.148438 9.015625 -5.921875 9.015625 -5.703125 C 9.015625 -5.398438 9.101562 -5.171875 9.28125 -5.015625 C 9.457031 -4.859375 9.6875 -4.78125 9.96875 -4.78125 C 10.382812 -4.78125 10.722656 -4.898438 10.984375 -5.140625 C 11.242188 -5.390625 11.507812 -5.796875 11.78125 -6.359375 L 13.78125 -12.953125 C 13.84375 -13.148438 13.875 -13.316406 13.875 -13.453125 C 13.875 -13.691406 13.816406 -13.878906 13.703125 -14.015625 C 13.597656 -14.160156 13.445312 -14.3125 13.25 -14.46875 C 13.03125 -14.632812 12.875 -14.785156 12.78125 -14.921875 C 12.695312 -15.054688 12.691406 -15.234375 12.765625 -15.453125 C 12.867188 -15.953125 13.539062 -16.390625 14.78125 -16.765625 C 16.03125 -17.148438 17.332031 -17.34375 18.6875 -17.34375 C 19.957031 -17.34375 20.894531 -17.101562 21.5 -16.625 C 22.101562 -16.144531 22.40625 -15.5 22.40625 -14.6875 C 22.40625 -14.269531 22.316406 -13.78125 22.140625 -13.21875 Z M 19.484375 -4.53125 "/></g></g></g><g fill="#00b1f2" fill-opacity="1"><g transform="translate(145.153513, 39.003438)"><g><path d="M 10.46875 -24.234375 C 11.726562 -24.234375 12.660156 -23.992188 13.265625 -23.515625 C 13.867188 -23.035156 14.171875 -22.378906 14.171875 -21.546875 C 14.171875 -21.066406 14.09375 -20.597656 13.9375 -20.140625 L 8.796875 -3.40625 C 8.722656 -3.144531 8.6875 -2.914062 8.6875 -2.71875 C 8.6875 -2.4375 8.738281 -2.210938 8.84375 -2.046875 C 8.957031 -1.878906 9.113281 -1.722656 9.3125 -1.578125 C 9.46875 -1.421875 9.578125 -1.289062 9.640625 -1.1875 C 9.703125 -1.09375 9.710938 -0.96875 9.671875 -0.8125 C 9.566406 -0.53125 9.347656 -0.320312 9.015625 -0.1875 C 8.691406 -0.0625 8.191406 0 7.515625 0 L 0.03125 0 C -0.53125 0 -0.941406 -0.09375 -1.203125 -0.28125 C -1.472656 -0.46875 -1.5625 -0.710938 -1.46875 -1.015625 C -1.382812 -1.273438 -1.15625 -1.503906 -0.78125 -1.703125 C -0.457031 -1.878906 -0.1875 -2.085938 0.03125 -2.328125 C 0.25 -2.566406 0.4375 -2.945312 0.59375 -3.46875 L 5.578125 -19.84375 C 5.640625 -20.039062 5.671875 -20.203125 5.671875 -20.328125 C 5.671875 -20.566406 5.609375 -20.765625 5.484375 -20.921875 C 5.367188 -21.078125 5.210938 -21.234375 5.015625 -21.390625 C 4.796875 -21.554688 4.632812 -21.707031 4.53125 -21.84375 C 4.4375 -21.976562 4.425781 -22.15625 4.5 -22.375 C 4.625 -22.875 5.304688 -23.304688 6.546875 -23.671875 C 7.796875 -24.046875 9.101562 -24.234375 10.46875 -24.234375 Z M 10.46875 -24.234375 "/></g></g></g><g fill="#00b1f2" fill-opacity="1"><g transform="translate(157.159201, 39.003438)"><g><path d="M 11.125 -17.515625 C 13.894531 -17.515625 15.898438 -17.070312 17.140625 -16.1875 C 18.390625 -15.300781 19.015625 -14.171875 19.015625 -12.796875 C 19.015625 -12.378906 18.972656 -11.992188 18.890625 -11.640625 C 18.566406 -10.203125 17.65625 -9.171875 16.15625 -8.546875 C 14.65625 -7.921875 12.890625 -7.609375 10.859375 -7.609375 C 9.828125 -7.609375 8.863281 -7.675781 7.96875 -7.8125 C 7.945312 -6.664062 8.253906 -5.863281 8.890625 -5.40625 C 9.523438 -4.945312 10.410156 -4.71875 11.546875 -4.71875 C 12.066406 -4.71875 12.566406 -4.773438 13.046875 -4.890625 C 13.535156 -5.015625 14.148438 -5.195312 14.890625 -5.4375 C 15.503906 -5.65625 15.921875 -5.765625 16.140625 -5.765625 C 16.378906 -5.765625 16.5 -5.625 16.5 -5.34375 C 16.519531 -4.582031 16.234375 -3.78125 15.640625 -2.9375 C 15.054688 -2.09375 14.179688 -1.375 13.015625 -0.78125 C 11.859375 -0.195312 10.460938 0.09375 8.828125 0.09375 C 6.398438 0.09375 4.410156 -0.515625 2.859375 -1.734375 C 1.304688 -2.960938 0.53125 -4.742188 0.53125 -7.078125 C 0.53125 -7.734375 0.613281 -8.5 0.78125 -9.375 C 1.332031 -12.0625 2.53125 -14.085938 4.375 -15.453125 C 6.226562 -16.828125 8.476562 -17.515625 11.125 -17.515625 Z M 8.203125 -9.78125 C 8.285156 -9.75 8.40625 -9.734375 8.5625 -9.734375 C 9.476562 -9.734375 10.175781 -10.160156 10.65625 -11.015625 C 11.132812 -11.867188 11.363281 -12.820312 11.34375 -13.875 C 11.320312 -14.488281 11.148438 -14.796875 10.828125 -14.796875 C 10.585938 -14.796875 10.300781 -14.601562 9.96875 -14.21875 C 9.644531 -13.832031 9.320312 -13.253906 9 -12.484375 C 8.6875 -11.722656 8.421875 -10.820312 8.203125 -9.78125 Z M 8.203125 -9.78125 "/></g></g></g><g fill="#00b1f2" fill-opacity="1"><g transform="translate(175.528555, 39.003438)"><g><path d="M 11.703125 -17.34375 C 14.222656 -17.34375 16.234375 -16.878906 17.734375 -15.953125 C 19.242188 -15.023438 20 -13.609375 20 -11.703125 C 20 -10.984375 19.867188 -10.164062 19.609375 -9.25 L 18.265625 -4.71875 C 18.242188 -4.632812 18.234375 -4.523438 18.234375 -4.390625 C 18.234375 -4.046875 18.375 -3.875 18.65625 -3.875 C 18.925781 -3.875 19.148438 -3.988281 19.328125 -4.21875 C 19.515625 -4.445312 19.640625 -4.5625 19.703125 -4.5625 C 19.816406 -4.5625 19.910156 -4.484375 19.984375 -4.328125 C 20.066406 -4.171875 20.109375 -3.992188 20.109375 -3.796875 C 20.128906 -3.210938 19.90625 -2.613281 19.4375 -2 C 18.96875 -1.382812 18.335938 -0.878906 17.546875 -0.484375 C 16.753906 -0.0976562 15.890625 0.09375 14.953125 0.09375 C 13.816406 0.09375 12.84375 -0.109375 12.03125 -0.515625 C 11.226562 -0.929688 10.671875 -1.546875 10.359375 -2.359375 C 9.703125 -1.578125 8.925781 -0.972656 8.03125 -0.546875 C 7.132812 -0.117188 6.175781 0.09375 5.15625 0.09375 C 3.988281 0.09375 3.007812 -0.128906 2.21875 -0.578125 C 1.4375 -1.023438 0.851562 -1.601562 0.46875 -2.3125 C 0.09375 -3.019531 -0.09375 -3.769531 -0.09375 -4.5625 C -0.09375 -4.90625 -0.0625 -5.242188 0 -5.578125 C 0.351562 -7.085938 1.113281 -8.222656 2.28125 -8.984375 C 3.445312 -9.753906 4.84375 -10.140625 6.46875 -10.140625 C 8.28125 -10.140625 10.0625 -9.851562 11.8125 -9.28125 L 12.625 -11.453125 C 12.90625 -12.367188 13.046875 -13.078125 13.046875 -13.578125 C 13.023438 -14.097656 12.847656 -14.488281 12.515625 -14.75 C 12.191406 -15.019531 11.691406 -15.15625 11.015625 -15.15625 C 11.148438 -14.800781 11.21875 -14.4375 11.21875 -14.0625 C 11.21875 -13.257812 10.910156 -12.5625 10.296875 -11.96875 C 9.679688 -11.375 8.804688 -11.078125 7.671875 -11.078125 C 6.597656 -11.078125 5.757812 -11.3125 5.15625 -11.78125 C 4.5625 -12.257812 4.265625 -12.847656 4.265625 -13.546875 C 4.265625 -14.640625 4.875 -15.546875 6.09375 -16.265625 C 7.320312 -16.984375 9.191406 -17.34375 11.703125 -17.34375 Z M 9.875 -7.40625 C 9.257812 -7.40625 8.757812 -7.171875 8.375 -6.703125 C 8 -6.234375 7.8125 -5.726562 7.8125 -5.1875 C 7.8125 -4.832031 7.890625 -4.546875 8.046875 -4.328125 C 8.210938 -4.109375 8.445312 -4 8.75 -4 C 9.039062 -4 9.351562 -4.113281 9.6875 -4.34375 C 10.03125 -4.570312 10.273438 -4.914062 10.421875 -5.375 L 11.125 -7.3125 C 10.75 -7.375 10.332031 -7.40625 9.875 -7.40625 Z M 9.875 -7.40625 "/></g></g></g><g fill="#00b1f2" fill-opacity="1"><g transform="translate(196.981335, 39.003438)"><g><path d="M 20.296875 -4.53125 C 20.253906 -4.4375 20.234375 -4.300781 20.234375 -4.125 C 20.234375 -3.976562 20.269531 -3.859375 20.34375 -3.765625 C 20.425781 -3.679688 20.53125 -3.640625 20.65625 -3.640625 C 20.925781 -3.640625 21.148438 -3.753906 21.328125 -3.984375 C 21.515625 -4.210938 21.644531 -4.328125 21.71875 -4.328125 C 21.820312 -4.328125 21.90625 -4.253906 21.96875 -4.109375 C 22.039062 -3.972656 22.078125 -3.804688 22.078125 -3.609375 C 22.097656 -2.972656 21.890625 -2.351562 21.453125 -1.75 C 21.015625 -1.15625 20.375 -0.664062 19.53125 -0.28125 C 18.6875 0.101562 17.675781 0.296875 16.5 0.296875 C 15.050781 0.296875 13.898438 -0.0351562 13.046875 -0.703125 C 12.203125 -1.367188 11.765625 -2.257812 11.734375 -3.375 C 11.734375 -4.1875 11.929688 -5.09375 12.328125 -6.09375 L 14.140625 -10.828125 C 14.242188 -11.109375 14.296875 -11.335938 14.296875 -11.515625 C 14.296875 -11.796875 14.203125 -12.019531 14.015625 -12.1875 C 13.828125 -12.351562 13.601562 -12.4375 13.34375 -12.4375 C 12.863281 -12.4375 12.40625 -12.207031 11.96875 -11.75 C 11.53125 -11.300781 11.210938 -10.75 11.015625 -10.09375 L 8.984375 -3.40625 C 8.898438 -3.164062 8.859375 -2.9375 8.859375 -2.71875 C 8.859375 -2.457031 8.910156 -2.242188 9.015625 -2.078125 C 9.128906 -1.921875 9.285156 -1.753906 9.484375 -1.578125 C 9.628906 -1.441406 9.734375 -1.316406 9.796875 -1.203125 C 9.867188 -1.097656 9.882812 -0.96875 9.84375 -0.8125 C 9.75 -0.53125 9.535156 -0.320312 9.203125 -0.1875 C 8.878906 -0.0625 8.367188 0 7.671875 0 L 0.203125 0 C -0.367188 0 -0.78125 -0.09375 -1.03125 -0.28125 C -1.28125 -0.46875 -1.375 -0.710938 -1.3125 -1.015625 C -1.226562 -1.273438 -1 -1.503906 -0.625 -1.703125 C -0.289062 -1.878906 -0.015625 -2.085938 0.203125 -2.328125 C 0.421875 -2.566406 0.601562 -2.945312 0.75 -3.46875 L 3.671875 -12.953125 C 3.710938 -13.066406 3.734375 -13.21875 3.734375 -13.40625 C 3.734375 -13.65625 3.679688 -13.84375 3.578125 -13.96875 C 3.484375 -14.101562 3.328125 -14.269531 3.109375 -14.46875 C 2.890625 -14.632812 2.738281 -14.785156 2.65625 -14.921875 C 2.570312 -15.054688 2.5625 -15.234375 2.625 -15.453125 C 2.757812 -15.953125 3.445312 -16.390625 4.6875 -16.765625 C 5.9375 -17.148438 7.238281 -17.34375 8.59375 -17.34375 C 9.6875 -17.34375 10.550781 -17.039062 11.1875 -16.4375 C 11.820312 -15.84375 12.101562 -15.007812 12.03125 -13.9375 C 12.925781 -15.226562 13.875 -16.117188 14.875 -16.609375 C 15.882812 -17.097656 16.984375 -17.34375 18.171875 -17.34375 C 19.503906 -17.34375 20.578125 -16.9375 21.390625 -16.125 C 22.210938 -15.320312 22.625 -14.273438 22.625 -12.984375 C 22.625 -12.304688 22.515625 -11.640625 22.296875 -10.984375 Z M 20.296875 -4.53125 "/></g></g></g><g fill="#545454" fill-opacity="1"><g transform="translate(114.623327, 54.961176)"><g><path d="M 3.8125 0.191406 L 4.132812 0.191406 L 5.789062 -3.890625 L 7.460938 0.152344 L 7.792969 0.152344 L 11.515625 -9.117188 L 9.460938 -9.117188 L 7.625 -4.464844 L 5.839844 -9.027344 L 5.75 -9.027344 L 3.964844 -4.464844 L 2.128906 -9.117188 L 0.078125 -9.117188 Z M 3.8125 0.191406 "/></g></g></g><g fill="#545454" fill-opacity="1"><g transform="translate(128.432113, 54.961176)"><g><path d="M 5.738281 0 L 5.738281 -1.824219 L 2.84375 -1.824219 L 2.84375 -3.648438 L 5.242188 -3.648438 L 5.242188 -5.46875 L 2.84375 -5.46875 L 2.84375 -7.292969 L 5.585938 -7.292969 L 5.585938 -9.117188 L 1.019531 -9.117188 L 1.019531 0 Z M 5.738281 0 "/></g></g></g><g fill="#545454" fill-opacity="1"><g transform="translate(137.064664, 54.961176)"><g><path d="M 1.019531 0 L 4.628906 0 C 6.109375 0 7.320312 -1.210938 7.320312 -2.742188 C 7.320312 -3.457031 6.976562 -4.15625 6.375 -4.566406 C 6.949219 -4.960938 7.191406 -5.675781 7.21875 -6.363281 C 7.253906 -7.96875 6.25 -9.128906 4.628906 -9.128906 L 1.019531 -9.128906 Z M 2.855469 -7.308594 L 4.476562 -7.308594 C 5 -7.308594 5.316406 -6.898438 5.316406 -6.390625 C 5.316406 -5.890625 5 -5.46875 4.476562 -5.46875 L 2.855469 -5.46875 Z M 2.855469 -3.648438 L 4.476562 -3.648438 C 5 -3.648438 5.394531 -3.25 5.394531 -2.742188 C 5.394531 -2.230469 5 -1.824219 4.476562 -1.824219 L 2.855469 -1.824219 Z M 2.855469 -3.648438 "/></g></g></g><g fill="#545454" fill-opacity="1"><g transform="translate(147.188892, 54.961176)"><g/></g></g><g fill="#545454" fill-opacity="1"><g transform="translate(153.016579, 54.961176)"><g><path d="M 0.597656 -0.585938 C 1.835938 0.0507812 2.972656 0.113281 3.480469 0.078125 C 5.191406 -0.0117188 6.234375 -1.171875 6.234375 -2.691406 C 6.234375 -4.144531 5.011719 -4.960938 3.597656 -5.484375 C 3.074219 -5.660156 2.625 -5.890625 2.574219 -6.402344 C 2.539062 -6.910156 2.832031 -7.382812 3.480469 -7.421875 C 3.761719 -7.433594 4.335938 -7.445312 5.34375 -7.039062 L 5.574219 -8.796875 C 4.398438 -9.207031 3.773438 -9.207031 3.304688 -9.179688 C 1.785156 -9.105469 0.726562 -7.933594 0.726562 -6.402344 C 0.726562 -4.871094 2.003906 -4.144531 3.429688 -3.621094 C 3.941406 -3.441406 4.335938 -3.214844 4.375 -2.691406 C 4.425781 -2.191406 3.964844 -1.8125 3.429688 -1.773438 C 3.007812 -1.734375 1.875 -1.757812 0.828125 -2.5 Z M 0.597656 -0.585938 "/></g></g></g><g fill="#545454" fill-opacity="1"><g transform="translate(161.96786, 54.961176)"><g><path d="M 4.347656 0 L 4.347656 -7.292969 L 6.617188 -7.292969 L 6.617188 -9.105469 L 0.253906 -9.105469 L 0.253906 -7.292969 L 2.523438 -7.292969 L 2.523438 0 Z M 4.347656 0 "/></g></g></g><g fill="#545454" fill-opacity="1"><g transform="translate(171.148632, 54.961176)"><g><path d="M 7.5625 -3.175781 L 7.5625 -9.117188 L 5.75 -9.117188 L 5.75 -3.1875 C 5.75 -1.273438 2.792969 -1.273438 2.792969 -3.1875 L 2.792969 -9.117188 L 0.96875 -9.117188 L 0.96875 -3.175781 C 0.96875 1.160156 7.5625 1.160156 7.5625 -3.175781 Z M 7.5625 -3.175781 "/></g></g></g><g fill="#545454" fill-opacity="1"><g transform="translate(181.910319, 54.961176)"><g><path d="M 3.734375 -9.117188 L 1.019531 -9.117188 L 1.019531 0 L 3.734375 0 C 9.804688 0 9.804688 -9.117188 3.734375 -9.117188 Z M 3.734375 -7.292969 C 7.28125 -7.292969 7.28125 -1.824219 3.734375 -1.824219 L 2.84375 -1.824219 L 2.84375 -7.292969 Z M 3.734375 -7.292969 "/></g></g></g><g fill="#545454" fill-opacity="1"><g transform="translate(193.092739, 54.961176)"><g><path d="M 2.84375 0 L 2.84375 -9.117188 L 1.019531 -9.117188 L 1.019531 0 Z M 2.84375 0 "/></g></g></g><g fill="#545454" fill-opacity="1"><g transform="translate(199.175422, 54.961176)"><g><path d="M 5.40625 0.128906 C 11.679688 0.128906 11.679688 -9.269531 5.40625 -9.269531 C -0.867188 -9.269531 -0.867188 0.128906 5.40625 0.128906 Z M 5.40625 -1.757812 C 1.757812 -1.757812 1.757812 -7.394531 5.40625 -7.394531 C 9.054688 -7.394531 9.054688 -1.757812 5.40625 -1.757812 Z M 5.40625 -1.757812 "/></g></g></g><g clip-path="url(#04612aceee)"><path fill="#00b1f2" d="M 53.996094 31.054688 C 51.230469 18.730469 39.464844 16.722656 37.023438 27.773438 C 37.097656 27.503906 37.039062 27.71875 37.054688 27.671875 C 34.542969 39.484375 48.691406 46.035156 58.714844 45.921875 C 58.691406 45.921875 58.8125 45.917969 58.671875 45.925781 C 73.066406 45.597656 89.046875 38.949219 102.644531 46.03125 C 95.800781 45.265625 87.8125 47.175781 81.234375 49.402344 C 46.296875 63.296875 31.523438 46.871094 28.179688 37.304688 C 23.832031 24.300781 35.617188 10.074219 48.113281 16.480469 C 48.105469 16.476562 48.269531 16.542969 48.21875 16.523438 C 53.457031 19.1875 55.289062 25.378906 53.996094 31.054688 " fill-opacity="1" fill-rule="nonzero"/></g><path fill="#2ea5e4" d="M 7.285156 27.960938 C 11.515625 60.050781 37.871094 63.710938 63.707031 58.9375 C 76.011719 56.308594 88.457031 49.269531 101.226562 51.921875 C 94.398438 53.109375 87.167969 57.105469 81.054688 60.5 C 42.695312 83.289062 -3.617188 63.609375 7.285156 27.960938 " fill-opacity="1" fill-rule="nonzero"/><path fill="#00b1f2" d="M 23.742188 7.796875 C 23.742188 7.796875 4.648438 31.492188 31.609375 52.640625 C 31.609375 52.640625 -6.582031 34.6875 23.742188 7.796875 " fill-opacity="1" fill-rule="nonzero"/><path fill="#00b1f2" d="M 46.921875 8.714844 C 46.921875 8.714844 26.339844 6.027344 22.828125 26.066406 C 22.828125 26.066406 20.644531 1.25 46.921875 8.714844 " fill-opacity="1" fill-rule="nonzero"/></svg>