<svg xmlns="http://www.w3.org/2000/svg" xmlns:xlink="http://www.w3.org/1999/xlink" width="500" zoomAndPan="magnify" viewBox="0 0 375 374.999991" height="500" preserveAspectRatio="xMidYMid meet" version="1.0"><defs><clipPath id="6b4f38f91e"><path d="M 87 102 L 370.207031 102 L 370.207031 253 L 87 253 Z M 87 102 " clip-rule="nonzero"/></clipPath></defs><g clip-path="url(#6b4f38f91e)"><path fill="#00b1f2" d="M 187.972656 163.320312 C 177.59375 117.082031 133.460938 109.546875 124.300781 151.019531 C 124.574219 150.011719 124.363281 150.816406 124.417969 150.628906 C 114.984375 194.953125 168.074219 219.523438 205.679688 219.101562 C 205.59375 219.109375 206.050781 219.085938 205.523438 219.117188 C 259.527344 217.890625 319.480469 192.941406 370.5 219.507812 C 344.828125 216.644531 314.851562 223.8125 290.175781 232.15625 C 159.089844 284.292969 103.660156 222.664062 91.113281 186.773438 C 74.808594 137.984375 119.027344 84.613281 165.902344 108.640625 C 165.875 108.628906 166.496094 108.882812 166.296875 108.8125 C 185.949219 118.792969 192.824219 142.03125 187.972656 163.320312 " fill-opacity="1" fill-rule="nonzero"/></g><path fill="#2ea5e4" d="M 12.726562 151.710938 C 28.59375 272.113281 127.476562 285.84375 224.40625 267.933594 C 270.582031 258.078125 317.277344 231.65625 365.179688 241.621094 C 339.566406 246.074219 312.4375 261.058594 289.5 273.800781 C 145.582031 359.300781 -28.171875 285.46875 12.726562 151.710938 " fill-opacity="1" fill-rule="nonzero"/><path fill="#00b1f2" d="M 74.464844 76.066406 C 74.464844 76.066406 2.828125 164.964844 103.984375 244.308594 C 103.984375 244.308594 -39.300781 176.953125 74.464844 76.066406 " fill-opacity="1" fill-rule="nonzero"/><path fill="#00b1f2" d="M 161.433594 79.503906 C 161.433594 79.503906 84.21875 69.421875 71.042969 144.613281 C 71.042969 144.613281 62.839844 51.503906 161.433594 79.503906 " fill-opacity="1" fill-rule="nonzero"/></svg>