<svg xmlns="http://www.w3.org/2000/svg" xmlns:xlink="http://www.w3.org/1999/xlink" width="500" zoomAndPan="magnify" viewBox="0 0 375 299.999988" height="400" preserveAspectRatio="xMidYMid meet" version="1.0"><path stroke-linecap="round" transform="matrix(0.277778, 0, 0, 0.277778, 188.703904, 168.232765)" fill-opacity="1" fill="#2e99ff" fill-rule="nonzero" stroke-linejoin="round" d="M 420.95817 0.00579722 C 420.95817 232.487068 232.492528 420.966772 -0.00280472 420.966772 C -232.484075 420.966772 -420.963779 232.487068 -420.963779 0.00579722 C -420.963779 -232.489536 -232.484075 -420.955177 -0.00280472 -420.955177 C 232.492528 -420.955177 420.95817 -232.489536 420.95817 0.00579722 Z M 420.95817 0.00579722 " stroke="#000000" stroke-width="2" stroke-opacity="1" stroke-miterlimit="4"/><path stroke-linecap="round" transform="matrix(0.277778, 0, 0, 0.277778, 188.364191, 168.232472)" fill="none" stroke-linejoin="round" d="M 4.524849 -420.954123 C 298.7405 -420.954123 298.7405 420.967826 4.524849 420.967826 C -298.747053 420.967826 -298.747053 -420.954123 4.524849 -420.954123 Z M 4.524849 -420.954123 " stroke="#000000" stroke-width="2" stroke-opacity="1" stroke-miterlimit="4"/><path stroke-linecap="round" transform="matrix(0.277778, 0, 0, 0.277778, 70.381415, 49.909995)" fill="none" stroke-linejoin="round" d="M 429.26288 5.00683 C 429.26288 5.00683 429.26288 846.92878 429.26288 846.92878 " stroke="#000000" stroke-width="2" stroke-opacity="1" stroke-miterlimit="4"/><path stroke-linecap="round" transform="matrix(0.277778, 0, 0, 0.277778, 70.381415, 49.909995)" fill="none" stroke-linejoin="round" d="M 846.919167 425.967805 C 846.919167 425.967805 4.997218 425.967805 4.997218 425.967805 " stroke="#000000" stroke-width="2" stroke-opacity="1" stroke-miterlimit="4"/><path stroke-linecap="round" transform="matrix(0.277778, 0, 0, 0.277778, 276.160591, 109.415828)" fill-opacity="1" fill="#ffffff" fill-rule="nonzero" stroke-linejoin="round" d="M 225.940644 171.246785 C 225.940644 171.246785 -225.943771 171.246785 -225.943771 171.246785 C -225.943771 171.246785 -225.943771 -171.245433 -225.943771 -171.245433 C -225.943771 -171.245433 225.940644 -171.245433 225.940644 -171.245433 C 225.940644 -171.245433 225.940644 171.246785 225.940644 171.246785 Z M 225.940644 171.246785 " stroke="#000000" stroke-width="2" stroke-opacity="1" stroke-miterlimit="4"/><path stroke-linecap="round" transform="matrix(0.277778, 0, 0, 0.277778, 276.160591, 70.483609)" fill-opacity="1" fill="#ffffff" fill-rule="nonzero" stroke-linejoin="round" d="M 225.940644 31.094946 C 225.940644 31.094946 -225.943771 31.094946 -225.943771 31.094946 C -225.943771 31.094946 -225.943771 -31.089434 -225.943771 -31.089434 C -225.943771 -31.089434 225.940644 -31.089434 225.940644 -31.089434 C 225.940644 -31.089434 225.940644 31.094946 225.940644 31.094946 Z M 225.940644 31.094946 " stroke="#000000" stroke-width="2" stroke-opacity="1" stroke-miterlimit="4"/><path stroke-linecap="round" transform="matrix(0.277778, 0, 0, 0.277778, 302.577784, 70.483331)" fill-opacity="1" fill="#ffffff" fill-rule="nonzero" stroke-linejoin="round" d="M 15.244978 15.24751 C 15.244978 15.24751 -15.242525 15.24751 -15.242525 15.24751 C -15.242525 15.24751 -15.242525 -15.239993 -15.242525 -15.239993 C -15.242525 -15.239993 15.244978 -15.239993 15.244978 -15.239993 C 15.244978 -15.239993 15.244978 15.24751 15.244978 15.24751 Z M 15.244978 15.24751 " stroke="#000000" stroke-width="2" stroke-opacity="1" stroke-miterlimit="4"/><path stroke-linecap="round" transform="matrix(0.277778, 0, 0, 0.277778, 316.076115, 70.483331)" fill-opacity="1" fill="#ffffff" fill-rule="nonzero" stroke-linejoin="round" d="M 15.236924 15.24751 C 15.236924 15.24751 -15.236516 15.24751 -15.236516 15.24751 C -15.236516 15.24751 -15.236516 -15.239993 -15.236516 -15.239993 C -15.236516 -15.239993 15.236924 -15.239993 15.236924 -15.239993 C 15.236924 -15.239993 15.236924 15.24751 15.236924 15.24751 Z M 15.236924 15.24751 " stroke="#000000" stroke-width="2" stroke-opacity="1" stroke-miterlimit="4"/><path stroke-linecap="round" transform="matrix(0.277778, 0, 0, 0.277778, 329.574444, 70.483331)" fill-opacity="1" fill="#ffffff" fill-rule="nonzero" stroke-linejoin="round" d="M 15.242941 15.24751 C 15.242941 15.24751 -15.244561 15.24751 -15.244561 15.24751 C -15.244561 15.24751 -15.244561 -15.239993 -15.244561 -15.239993 C -15.244561 -15.239993 15.242941 -15.239993 15.242941 -15.239993 C 15.242941 -15.239993 15.242941 15.24751 15.242941 15.24751 Z M 15.242941 15.24751 " stroke="#000000" stroke-width="2" stroke-opacity="1" stroke-miterlimit="4"/><path stroke-linecap="round" transform="matrix(0.277778, 0, 0, 0.277778, 329.574444, 70.483331)" fill-opacity="1" fill="#2e99ff" fill-rule="nonzero" stroke-linejoin="round" d="M -15.244561 -15.239993 C -15.244561 -15.239993 15.242941 15.24751 15.242941 15.24751 " stroke="#000000" stroke-width="2" stroke-opacity="1" stroke-miterlimit="4"/><path stroke-linecap="round" transform="matrix(0.277778, 0, 0, 0.277778, 329.574444, 70.483331)" fill-opacity="1" fill="#2e99ff" fill-rule="nonzero" stroke-linejoin="round" d="M -15.244561 15.233447 C -15.244561 15.233447 15.242941 -15.239993 15.242941 -15.239993 " stroke="#000000" stroke-width="2" stroke-opacity="1" stroke-miterlimit="4"/><path stroke-linecap="round" transform="matrix(0.277778, 0, 0, 0.277778, 274.899477, 43.253332)" fill-opacity="1" fill="#000000" fill-rule="nonzero" stroke-linejoin="round" d="M 22.875947 -95.524502 C -27.059995 -130.919818 -90.285 -72.3495 -81.355312 -12.091683 C -94.363126 20.659883 -88.31625 55.295823 -72.650624 90.873951 C -29.816245 114.302079 69.113451 130.923955 94.355641 52.581761 C 88.941578 9.620819 83.372827 -31.849497 76.257202 -58.244812 C 70.477514 -84.640126 49.890012 -93.82294 22.875947 -95.524502 Z M 22.875947 -95.524502 " stroke="#000000" stroke-width="2" stroke-opacity="1" stroke-miterlimit="4"/><path stroke-linecap="round" transform="matrix(0.277778, 0, 0, 0.277778, 274.899477, 43.253332)" fill-opacity="1" fill="#000000" fill-rule="nonzero" stroke-linejoin="round" d="M 22.875947 -95.524502 C -27.059995 -130.919818 -90.285 -72.3495 -81.355312 -12.091683 C -94.363126 20.659883 -88.31625 55.295823 -72.650624 90.873951 C -29.816245 114.302079 69.113451 130.923955 94.355641 52.581761 C 88.941578 9.620819 83.372827 -31.849497 76.257202 -58.244812 C 70.477514 -84.640126 49.890012 -93.82294 22.875947 -95.524502 Z M 22.875947 -95.524502 " stroke="#000000" stroke-width="2" stroke-opacity="1" stroke-miterlimit="4"/><path stroke-linecap="butt" transform="matrix(0.277778, 0, 0, 0.277778, 246.978064, 122.859996)" fill-opacity="1" fill="#d9d9d9" fill-rule="nonzero" stroke-linejoin="miter" d="M 4.396157 47.75402 C -5.939781 79.535273 -41.46166 67.989959 -31.139784 36.208707 C -31.139784 36.208707 3.721157 -79.525679 3.721157 -79.525679 C 3.721157 -79.525679 41.46491 -52.103801 41.46491 -52.103801 C 41.46491 -52.103801 4.396157 47.75402 4.396157 47.75402 Z M 4.396157 47.75402 " stroke="#000000" stroke-width="2" stroke-opacity="1" stroke-miterlimit="10"/><path stroke-linecap="round" transform="matrix(0.277778, 0, 0, 0.277778, 253.275308, 96.239157)" fill-opacity="1" fill="#2e99ff" fill-rule="nonzero" stroke-linejoin="round" d="M 11.890141 -59.726595 C -9.344236 -37.845343 -25.544238 -7.259403 -37.750489 30.217163 C -37.750489 30.217163 18.977641 59.734353 18.977641 59.734353 C 18.977641 59.734353 31.33858 13.539036 31.33858 13.539036 C 37.751081 -23.571905 36.274518 -52.920345 11.890141 -59.726595 Z M 11.890141 -59.726595 " stroke="#000000" stroke-width="2" stroke-opacity="1" stroke-miterlimit="4"/><path stroke-linecap="round" transform="matrix(0.277778, 0, 0, 0.277778, 278.148354, 147.471931)" fill-opacity="1" fill="#000000" fill-rule="nonzero" stroke-linejoin="round" d="M 84.234682 34.244801 C 84.234682 34.244801 -84.234083 34.244801 -84.234083 34.244801 C -79.818458 9.424486 -72.730957 -12.822391 -62.254394 -31.82083 C -62.254394 -31.82083 61.087805 -34.23958 61.087805 -34.23958 C 73.153431 -16.788016 80.395619 6.626048 84.234682 34.244801 Z M 84.234682 34.244801 " stroke="#000000" stroke-width="2" stroke-opacity="1" stroke-miterlimit="4"/><path stroke-linecap="round" transform="matrix(0.277778, 0, 0, 0.277778, 279.863891, 107.578321)" fill-opacity="1" fill="#2e99ff" fill-rule="nonzero" stroke-linejoin="round" d="M -83.927203 -100.238214 C -66.756889 -110.67259 -48.88345 -117.521028 -29.88501 -118.71634 C -29.88501 -118.71634 -14.092822 -103.247589 -14.092822 -103.247589 C -14.092822 -103.247589 26.800932 -129.108529 26.800932 -129.108529 C 26.800932 -129.108529 94.919688 -100.238214 94.919688 -100.238214 C 71.575936 -29.897583 57.87906 39.993049 54.911872 109.37743 C 13.779056 129.107119 -27.325635 128.094619 -68.430326 111.79618 C -64.760013 72.196176 -63.395951 37.152423 -71.102202 19.813359 C -92.111578 4.611795 -94.910016 -24.37102 -79.272515 -67.331961 C -78.56939 -76.149149 -80.735015 -87.708525 -83.927203 -100.238214 Z M -83.927203 -100.238214 " stroke="#000000" stroke-width="2" stroke-opacity="1" stroke-miterlimit="4"/><path stroke-linecap="round" transform="matrix(0.277778, 0, 0, 0.277778, 279.435863, 66.294993)" fill-opacity="1" fill="#d9d9d9" fill-rule="nonzero" stroke-linejoin="round" d="M -28.330047 -17.908851 C -28.330047 -17.908851 -28.330047 29.903653 -28.330047 29.903653 C -28.330047 29.903653 -12.551921 45.372404 -12.551921 45.372404 C -12.551921 45.372404 28.341833 19.511464 28.341833 19.511464 C 28.341833 19.511464 27.948083 -45.372916 27.948083 -45.372916 C 27.948083 -45.372916 -28.330047 -17.908851 -28.330047 -17.908851 Z M -28.330047 -17.908851 " stroke="#000000" stroke-width="2" stroke-opacity="1" stroke-miterlimit="4"/><path stroke-linecap="round" transform="matrix(0.277778, 0, 0, 0.277778, 279.236411, 60.956661)" fill-opacity="1" fill="#000000" fill-rule="nonzero" stroke-linejoin="round" d="M -27.61202 5.232582 C -27.61202 5.232582 -27.61202 21.404458 -27.61202 21.404458 C -4.268268 21.784146 17.092672 4.627894 27.611422 -21.781483 C 11.650484 -7.353357 -9.696393 4.416957 -27.61202 5.232582 Z M -27.61202 5.232582 " stroke="#000000" stroke-width="2" stroke-opacity="1" stroke-miterlimit="4"/><path stroke-linecap="round" transform="matrix(0.277778, 0, 0, 0.277778, 279.435863, 66.294993)" fill-opacity="1" fill="#d9d9d9" fill-rule="nonzero" stroke-linejoin="round" d="M -28.330047 -17.908851 C -28.330047 -17.908851 -28.330047 29.903653 -28.330047 29.903653 C -28.330047 29.903653 -12.551921 45.372404 -12.551921 45.372404 C -12.551921 45.372404 28.341833 19.511464 28.341833 19.511464 C 28.341833 19.511464 27.948083 -45.372916 27.948083 -45.372916 C 27.948083 -45.372916 -28.330047 -17.908851 -28.330047 -17.908851 Z M -28.330047 -17.908851 " stroke="#000000" stroke-width="2" stroke-opacity="1" stroke-miterlimit="4"/><path stroke-linecap="round" transform="matrix(0.277778, 0, 0, 0.277778, 271.158912, 77.206942)" fill-opacity="1" fill="#2e99ff" fill-rule="nonzero" stroke-linejoin="round" d="M 1.46698 -16.199682 C -13.129896 -10.180931 -17.236146 -3.332493 -14.100209 4.415945 C -12.187708 9.140945 -8.123646 12.656571 -3.342395 13.978446 C 4.715418 16.200321 11.310731 12.459696 17.245107 6.089383 C 17.245107 6.089383 1.46698 -9.379369 1.46698 -9.379369 C 1.46698 -9.379369 1.46698 -16.199682 1.46698 -16.199682 Z M 1.46698 -16.199682 " stroke="#000000" stroke-width="2" stroke-opacity="1" stroke-miterlimit="4"/><path stroke-linecap="round" transform="matrix(0.277778, 0, 0, 0.277778, 283.862533, 76.701659)" fill-opacity="1" fill="#2e99ff" fill-rule="nonzero" stroke-linejoin="round" d="M -28.487934 7.908405 C -28.487934 7.908405 12.405819 -17.952535 12.405819 -17.952535 C 12.405819 -17.952535 12.405819 -23.21191 12.405819 -23.21191 C 28.493321 -9.866597 27.944883 2.888092 11.674569 15.066218 C -6.901995 23.208406 -19.431683 19.074031 -28.487934 7.908405 Z M -28.487934 7.908405 " stroke="#000000" stroke-width="2" stroke-opacity="1" stroke-miterlimit="4"/><path stroke-linecap="round" transform="matrix(0.277778, 0, 0, 0.277778, 273.807261, 114.077496)" fill="none" stroke-linejoin="round" d="M -39.932706 -3.119612 C -28.753018 0.649138 -16.715517 -2.360237 -5.338953 -5.327425 C -3.328015 -5.847737 -1.27489 -6.36805 0.778235 -6.100862 C 3.646985 -5.735237 6.15011 -3.878987 8.681361 -2.332112 C 18.145424 3.405389 29.19855 4.938201 39.942301 6.372576 " stroke="#000000" stroke-width="2" stroke-opacity="1" stroke-miterlimit="4"/><path stroke-linecap="butt" transform="matrix(0.277778, 0, 0, 0.277778, 307.035011, 124.040819)" fill-opacity="1" fill="#d9d9d9" fill-rule="nonzero" stroke-linejoin="miter" d="M -11.868229 45.851491 C -7.747916 78.996807 29.320837 74.412431 25.200524 41.253054 C 25.200524 41.253054 12.938023 -78.995395 12.938023 -78.995395 C 12.938023 -78.995395 -29.319793 -59.223518 -29.319793 -59.223518 C -29.319793 -59.223518 -11.868229 45.851491 -11.868229 45.851491 Z M -11.868229 45.851491 " stroke="#000000" stroke-width="2" stroke-opacity="1" stroke-miterlimit="10"/><path stroke-linecap="round" transform="matrix(0.277778, 0, 0, 0.277778, 306.043605, 95.837219)" fill-opacity="1" fill="#2e99ff" fill-rule="nonzero" stroke-linejoin="round" d="M 0.67271 -57.970245 C 17.350836 -32.446805 27.461775 0.64226 32.341463 39.764139 C 32.341463 39.764139 -28.971043 57.975078 -28.971043 57.975078 C -28.971043 57.975078 -32.331981 10.275074 -32.331981 10.275074 C -31.60073 -27.370242 -24.56948 -55.903057 0.67271 -57.970245 Z M 0.67271 -57.970245 " stroke="#000000" stroke-width="2" stroke-opacity="1" stroke-miterlimit="4"/><path stroke-linecap="round" transform="matrix(0.277778, 0, 0, 0.277778, 279.236411, 60.956661)" fill-opacity="1" fill="#000000" fill-rule="nonzero" stroke-linejoin="round" d="M -27.61202 5.232582 C -27.61202 5.232582 -27.61202 21.404458 -27.61202 21.404458 C -4.268268 21.784146 17.092672 4.627894 27.611422 -21.781483 C 11.650484 -7.353357 -9.696393 4.416957 -27.61202 5.232582 Z M -27.61202 5.232582 " stroke="#000000" stroke-width="2" stroke-opacity="1" stroke-miterlimit="4"/><path stroke-linecap="round" transform="matrix(0.277778, 0, 0, 0.277778, 219.43641, 101.531937)" fill-opacity="1" fill="#d9d9d9" fill-rule="nonzero" stroke-linejoin="round" d="M 29.7883 25.028781 C 27.847675 12.14753 23.502362 -1.085284 18.046112 -14.472785 C 17.300799 -16.286848 16.232049 -17.974348 14.769549 -19.282161 C 12.435174 -21.391536 10.213299 -21.630598 8.075798 -20.322786 C 4.982048 -18.410286 3.800798 -14.472785 4.883611 -10.999347 C 4.883611 -10.999347 9.960174 5.172529 9.960174 5.172529 C 5.572673 0.939716 1.860173 -3.743097 -1.388265 -8.749347 C -5.57889 -15.204035 -7.463266 -22.797786 -6.942953 -29.871224 C -6.844515 -31.122787 -6.746078 -32.346224 -6.661703 -33.541537 C -6.282015 -38.604037 -11.330453 -42.471225 -16.027329 -40.558725 C -17.925766 -39.785287 -19.725767 -38.632162 -21.413267 -37.113412 C -27.291392 -31.839974 -29.794517 -23.768099 -28.585142 -15.96341 C -27.024205 -5.866534 -23.114829 4.666279 -15.239829 15.91628 C -15.239829 15.91628 6.599236 42.480345 6.599236 42.480345 " stroke="#000000" stroke-width="2" stroke-opacity="1" stroke-miterlimit="4"/><path fill="#d9d9d9" d="M 246.011719 133.339844 C 250.515625 138.605469 242.546875 145.417969 238.046875 140.152344 C 238.046875 140.152344 221.269531 113.332031 221.269531 113.332031 C 221.269531 113.332031 227.710938 108.484375 227.710938 108.484375 C 227.710938 108.484375 246.011719 133.339844 246.011719 133.339844 Z M 246.011719 133.339844 " fill-opacity="1" fill-rule="nonzero"/><path stroke-linecap="round" transform="matrix(0.277778, 0, 0, 0.277778, 234.091131, 117.148877)" fill="none" stroke-linejoin="round" d="M 22.959431 31.189046 C 22.959431 31.189046 -22.968698 -31.192209 -22.968698 -31.192209 " stroke="#000000" stroke-width="2" stroke-opacity="1" stroke-miterlimit="4"/><path stroke-linecap="round" transform="matrix(0.277778, 0, 0, 0.277778, 234.403364, 128.39249)" fill="none" stroke-linejoin="round" d="M 47.274458 33.616728 C 40.960395 49.81673 23.860393 54.218293 13.116642 42.335479 C 13.116642 42.335479 -47.2818 -54.217655 -47.2818 -54.217655 " stroke="#000000" stroke-width="2" stroke-opacity="1" stroke-miterlimit="4"/><path stroke-linecap="round" transform="matrix(0.277778, 0, 0, 0.277778, 338.508378, 108.392768)" fill-opacity="1" fill="#d9d9d9" fill-rule="nonzero" stroke-linejoin="round" d="M -33.878602 18.470412 C -29.533289 6.193848 -22.755164 -5.970215 -14.852038 -18.078029 C -13.769225 -19.723341 -12.405163 -21.171779 -10.731725 -22.184279 C -8.031725 -23.815529 -5.795787 -23.618654 -3.9536 -21.931154 C -1.281724 -19.470216 -0.859849 -15.378028 -2.589537 -12.185841 C -2.589537 -12.185841 -10.64735 2.734473 -10.64735 2.734473 C -5.542662 -0.584277 -0.986412 -4.47959 3.147964 -8.782715 C 8.491714 -14.323341 11.782339 -21.410841 12.597964 -28.470217 C 12.738589 -29.707717 12.879214 -30.931155 13.019839 -32.126467 C 13.610464 -37.160843 19.305777 -40.001468 23.552653 -37.231155 C 25.268278 -36.106155 26.815153 -34.643655 28.193278 -32.81553 C 32.960466 -26.529592 33.874529 -18.120216 31.216716 -10.695216 C 27.771403 -1.076465 21.921403 8.514161 12.063589 18.076662 C 12.063589 18.076662 -14.4161 40.000101 -14.4161 40.000101 " stroke="#000000" stroke-width="2" stroke-opacity="1" stroke-miterlimit="4"/><path fill="#d9d9d9" d="M 306.414062 134.457031 C 300.992188 138.773438 307.523438 146.972656 312.945312 142.65625 C 312.945312 142.65625 334.503906 119.503906 334.503906 119.503906 C 334.503906 119.503906 329.097656 113.523438 329.097656 113.523438 C 329.097656 113.523438 306.414062 134.457031 306.414062 134.457031 Z M 306.414062 134.457031 " fill-opacity="1" fill-rule="nonzero"/><path stroke-linecap="round" transform="matrix(0.277778, 0, 0, 0.277778, 321.190294, 120.820538)" fill="none" stroke-linejoin="round" d="M -28.458499 26.26794 C -28.458499 26.26794 28.466506 -26.269565 28.466506 -26.269565 " stroke="#000000" stroke-width="2" stroke-opacity="1" stroke-miterlimit="4"/><path stroke-linecap="round" transform="matrix(0.277778, 0, 0, 0.277778, 319.293351, 132.418055)" fill="none" stroke-linejoin="round" d="M -54.760756 21.81063 C -51.624818 38.910631 -35.677942 46.490319 -22.867003 36.857506 C -22.867003 36.857506 54.758004 -46.490939 54.758004 -46.490939 " stroke="#000000" stroke-width="2" stroke-opacity="1" stroke-miterlimit="4"/><path stroke-linecap="round" transform="matrix(0.277778, 0, 0, 0.277778, 270.206412, 43.329438)" fill-opacity="1" fill="#d9d9d9" fill-rule="nonzero" stroke-linejoin="round" d="M -46.671212 -35.94848 C -63.335276 70.996842 7.356918 94.846844 61.00536 40.790589 C 61.00536 40.790589 63.339735 -8.45629 63.339735 -8.45629 C 63.339735 -8.45629 63.339735 -41.264106 63.339735 -41.264106 C 41.781921 -94.842235 -34.675898 -81.918797 -46.671212 -35.94848 Z M -46.671212 -35.94848 " stroke="#000000" stroke-width="2" stroke-opacity="1" stroke-miterlimit="4"/><path stroke-linecap="round" transform="matrix(0.277778, 0, 0, 0.277778, 290.649476, 44.507773)" fill-opacity="1" fill="#d9d9d9" fill-rule="nonzero" stroke-linejoin="round" d="M -10.255301 -12.698297 C 2.527512 -20.615485 9.994701 -19.265485 11.372826 -7.326422 C 11.794701 -3.557671 11.400951 0.253267 10.472826 3.923579 C 6.366575 19.898581 -2.4928 20.615768 -11.802176 19.898581 C -11.802176 19.898581 -10.255301 -12.698297 -10.255301 -12.698297 Z M -10.255301 -12.698297 " stroke="#000000" stroke-width="2" stroke-opacity="1" stroke-miterlimit="4"/><path stroke-linecap="round" transform="matrix(0.277778, 0, 0, 0.277778, 272.614204, 28.063331)" fill-opacity="1" fill="#000000" fill-rule="nonzero" stroke-linejoin="round" d="M 15.549803 -13.559244 C 15.42324 17.434509 30.076367 37.614198 54.671681 50.551699 C 54.671681 50.551699 61.674807 -13.559244 61.674807 -13.559244 C -3.125199 -50.543622 -33.078326 -27.340495 -61.667391 -1.774868 C -61.667391 -1.774868 -55.339266 19.009509 -55.339266 19.009509 C -29.408014 16.253258 -5.164261 7.54857 15.549803 -13.559244 Z M 15.549803 -13.559244 " stroke="#000000" stroke-width="2" stroke-opacity="1" stroke-miterlimit="4"/><path stroke-linecap="round" transform="matrix(0.277778, 0, 0, 0.277778, 266.456148, 43.75972)" fill="none" stroke-linejoin="round" d="M 1.662554 -21.73343 C 0.495367 -2.889678 -2.415571 9.893135 -6.662446 17.936886 C -4.060884 21.325949 1.001617 21.733761 6.668805 21.410324 " stroke="#000000" stroke-width="2" stroke-opacity="1" stroke-miterlimit="4"/><path stroke-linecap="round" transform="matrix(0.277778, 0, 0, 0.277778, 275.735287, 36.752773)" fill="none" stroke-linejoin="round" d="M -10.39547 -2.738107 C -1.789219 -3.497483 4.806094 -0.853732 10.402969 3.491581 " stroke="#000000" stroke-width="2" stroke-opacity="1" stroke-miterlimit="4"/><path stroke-linecap="round" transform="matrix(0.277778, 0, 0, 0.277778, 262.45112, 36.648608)" fill="none" stroke-linejoin="round" d="M -7.755281 2.6572 C -2.580281 -1.336551 2.594719 -2.658426 7.755657 -1.322488 " stroke="#000000" stroke-width="2" stroke-opacity="1" stroke-miterlimit="4"/><path stroke-linecap="round" transform="matrix(0.277778, 0, 0, 0.277778, 274.157534, 42.647773)" fill-opacity="1" fill="#000000" fill-rule="nonzero" stroke-linejoin="round" d="M 3.328191 0.00239106 C 3.328191 3.700829 1.837566 6.696142 -0.00462208 6.696142 C -1.84681 6.696142 -3.337435 3.700829 -3.337435 0.00239106 C -3.337435 -3.696047 -1.84681 -6.69136 -0.00462208 -6.69136 C 1.837566 -6.69136 3.328191 -3.696047 3.328191 0.00239106 Z M 3.328191 0.00239106 " stroke="#000000" stroke-width="2" stroke-opacity="1" stroke-miterlimit="4"/><path stroke-linecap="round" transform="matrix(0.277778, 0, 0, 0.277778, 275.544741, 41.233888)" fill-opacity="1" fill="#000000" fill-rule="nonzero" stroke-linejoin="round" d="M -4.998568 -1.601371 C -1.173568 -1.432621 2.117058 -2.107621 4.99987 -3.499809 C 4.26862 -0.490434 1.554558 1.633004 -1.75013 3.503317 C -1.75013 3.503317 -4.998568 -1.601371 -4.998568 -1.601371 Z M -4.998568 -1.601371 " stroke="#000000" stroke-width="2" stroke-opacity="1" stroke-miterlimit="4"/><path stroke-linecap="round" transform="matrix(0.277778, 0, 0, 0.277778, 262.485864, 42.545831)" fill-opacity="1" fill="#000000" fill-rule="nonzero" stroke-linejoin="round" d="M -3.338175 0.00375867 C -3.338175 3.702196 -1.84755 6.697509 -0.00536207 6.697509 C 1.836826 6.697509 3.327451 3.702196 3.327451 0.00375867 C 3.327451 -3.694679 1.836826 -6.704054 -0.00536207 -6.704054 C -1.84755 -6.704054 -3.338175 -3.694679 -3.338175 0.00375867 Z M -3.338175 0.00375867 " stroke="#000000" stroke-width="2" stroke-opacity="1" stroke-miterlimit="4"/><path stroke-linecap="round" transform="matrix(0.277778, 0, 0, 0.277778, 261.098629, 41.131941)" fill-opacity="1" fill="#000000" fill-rule="nonzero" stroke-linejoin="round" d="M 4.988688 -1.614049 C 1.17775 -1.431236 -2.126938 -2.120299 -4.995688 -3.498424 C -4.264438 -0.489049 -1.550376 1.634389 1.754312 3.504702 C 1.754312 3.504702 4.988688 -1.614049 4.988688 -1.614049 Z M 4.988688 -1.614049 " stroke="#000000" stroke-width="2" stroke-opacity="1" stroke-miterlimit="4"/><path stroke-linecap="round" transform="matrix(0.277778, 0, 0, 0.277778, 266.456148, 43.75972)" fill="none" stroke-linejoin="round" d="M 1.662554 -21.73343 C 0.495367 -2.889678 -2.415571 9.893135 -6.662446 17.936886 C -4.060884 21.325949 1.001617 21.733761 6.668805 21.410324 " stroke="#000000" stroke-width="2" stroke-opacity="1" stroke-miterlimit="4"/><path stroke-linecap="round" transform="matrix(0.277778, 0, 0, 0.277778, 273.448375, 53.686109)" fill-opacity="1" fill="#000000" fill-rule="nonzero" stroke-linejoin="round" d="M 16.301477 -7.279369 C 17.117102 -4.368431 11.928039 5.095632 2.928039 7.640945 C -6.071962 10.20032 -15.465713 4.884695 -16.295401 1.959694 C -17.125088 -0.951243 -9.250087 -0.979368 -0.250087 -3.538743 C 8.749914 -6.098119 15.47179 -10.204369 16.301477 -7.279369 Z M 16.301477 -7.279369 " stroke="#000000" stroke-width="2" stroke-opacity="1" stroke-miterlimit="4"/><path stroke-linecap="round" transform="matrix(0.277778, 0, 0, 0.277778, 86.775586, 221.12859)" fill-opacity="1" fill="#ffffff" fill-rule="nonzero" stroke-linejoin="round" d="M 225.948535 171.254279 C 225.948535 171.254279 -225.949942 171.254279 -225.949942 171.254279 C -225.949942 171.254279 -225.949942 -171.252001 -225.949942 -171.252001 C -225.949942 -171.252001 225.948535 -171.252001 225.948535 -171.252001 C 225.948535 -171.252001 225.948535 171.254279 225.948535 171.254279 Z M 225.948535 171.254279 " stroke="#000000" stroke-width="2" stroke-opacity="1" stroke-miterlimit="4"/><path stroke-linecap="round" transform="matrix(0.277778, 0, 0, 0.277778, 86.775586, 182.196093)" fill-opacity="1" fill="#ffffff" fill-rule="nonzero" stroke-linejoin="round" d="M 225.948535 31.08938 C 225.948535 31.08938 -225.949942 31.08938 -225.949942 31.08938 C -225.949942 31.08938 -225.949942 -31.095 -225.949942 -31.095 C -225.949942 -31.095 225.948535 -31.095 225.948535 -31.095 C 225.948535 -31.095 225.948535 31.08938 225.948535 31.08938 Z M 225.948535 31.08938 " stroke="#000000" stroke-width="2" stroke-opacity="1" stroke-miterlimit="4"/><path stroke-linecap="round" transform="matrix(0.277778, 0, 0, 0.277778, 113.192811, 182.196093)" fill-opacity="1" fill="#ffffff" fill-rule="nonzero" stroke-linejoin="round" d="M 15.238694 15.240941 C 15.238694 15.240941 -15.234746 15.240941 -15.234746 15.240941 C -15.234746 15.240941 -15.234746 -15.246562 -15.234746 -15.246562 C -15.234746 -15.246562 15.238694 -15.246562 15.238694 -15.246562 C 15.238694 -15.246562 15.238694 15.240941 15.238694 15.240941 Z M 15.238694 15.240941 " stroke="#000000" stroke-width="2" stroke-opacity="1" stroke-miterlimit="4"/><path stroke-linecap="round" transform="matrix(0.277778, 0, 0, 0.277778, 126.69114, 182.196093)" fill-opacity="1" fill="#ffffff" fill-rule="nonzero" stroke-linejoin="round" d="M 15.244711 15.240941 C 15.244711 15.240941 -15.242791 15.240941 -15.242791 15.240941 C -15.242791 15.240941 -15.242791 -15.246562 -15.242791 -15.246562 C -15.242791 -15.246562 15.244711 -15.246562 15.244711 -15.246562 C 15.244711 -15.246562 15.244711 15.240941 15.244711 15.240941 Z M 15.244711 15.240941 " stroke="#000000" stroke-width="2" stroke-opacity="1" stroke-miterlimit="4"/><path stroke-linecap="round" transform="matrix(0.277778, 0, 0, 0.277778, 140.189468, 182.196093)" fill-opacity="1" fill="#ffffff" fill-rule="nonzero" stroke-linejoin="round" d="M 15.236666 15.240941 C 15.236666 15.240941 -15.236774 15.240941 -15.236774 15.240941 C -15.236774 15.240941 -15.236774 -15.246562 -15.236774 -15.246562 C -15.236774 -15.246562 15.236666 -15.246562 15.236666 -15.246562 C 15.236666 -15.246562 15.236666 15.240941 15.236666 15.240941 Z M 15.236666 15.240941 " stroke="#000000" stroke-width="2" stroke-opacity="1" stroke-miterlimit="4"/><path stroke-linecap="round" transform="matrix(0.277778, 0, 0, 0.277778, 140.189468, 182.196093)" fill-opacity="1" fill="#2e99ff" fill-rule="nonzero" stroke-linejoin="round" d="M -15.236774 -15.246562 C -15.236774 -15.246562 15.236666 15.240941 15.236666 15.240941 " stroke="#000000" stroke-width="2" stroke-opacity="1" stroke-miterlimit="4"/><path stroke-linecap="round" transform="matrix(0.277778, 0, 0, 0.277778, 140.189468, 182.196093)" fill-opacity="1" fill="#2e99ff" fill-rule="nonzero" stroke-linejoin="round" d="M -15.236774 15.240941 C -15.236774 15.240941 15.236666 -15.246562 15.236666 -15.246562 " stroke="#000000" stroke-width="2" stroke-opacity="1" stroke-miterlimit="4"/><path stroke-linecap="round" transform="matrix(0.277778, 0, 0, 0.277778, 113.2403, 235.835825)" fill-opacity="1" fill="#d9d9d9" fill-rule="nonzero" stroke-linejoin="round" d="M 36.695861 118.308229 C 36.695861 118.308229 -11.918206 118.308229 -11.918206 118.308229 C -11.918206 118.308229 -20.904144 65.925412 -20.904144 65.925412 C -20.904144 65.925412 -36.471333 -24.890221 -36.471333 -24.890221 C -36.471333 -24.890221 -36.471333 -25.073034 -36.471333 -25.073034 C -36.696333 -64.490225 -20.172894 -108.758979 4.070858 -118.307417 C 4.253671 -117.660542 4.450546 -116.999604 4.633358 -116.324604 C 10.384921 -95.751165 15.742734 -63.7871 20.861485 -24.904284 C 26.34586 16.734782 31.563048 66.305099 36.695861 118.308229 Z M 36.695861 118.308229 " stroke="#000000" stroke-width="2" stroke-opacity="1" stroke-miterlimit="4"/><path stroke-linecap="round" transform="matrix(0.277778, 0, 0, 0.277778, 83.113923, 230.278882)" fill-opacity="1" fill="#d9d9d9" fill-rule="nonzero" stroke-linejoin="round" d="M 113.369574 -98.302421 C 113.369574 -98.302421 113.088324 -96.319609 113.088324 -96.319609 C 113.088324 -96.319609 100.291448 -4.983663 100.291448 -4.983663 C 100.291448 -4.983663 87.550822 85.930407 87.550822 85.930407 C 87.550822 85.930407 80.210196 138.313225 80.210196 138.313225 C 80.210196 138.313225 -68.022629 138.313225 -68.022629 138.313225 C -68.022629 138.313225 -70.202317 126.753848 -70.202317 126.753848 C -70.202317 126.753848 -113.360133 -102.422734 -113.360133 -102.422734 C -90.578881 -117.469611 -66.532004 -128.902424 -41.782002 -138.310237 C -41.782002 -138.310237 51.508631 -130.716487 51.508631 -130.716487 C 71.378946 -122.700861 92.14926 -111.33836 113.369574 -98.302421 Z M 113.369574 -98.302421 " stroke="#000000" stroke-width="2" stroke-opacity="1" stroke-miterlimit="4"/><path stroke-linecap="butt" transform="matrix(0.277778, 0, 0, 0.277778, 83.532812, 189.654433)" fill-opacity="1" fill="#ffffff" fill-rule="nonzero" stroke-linejoin="miter" d="M -31.421251 -47.946589 C -31.421251 -47.946589 -28.425938 -4.620023 -28.425938 -4.620023 C -28.425938 -4.620023 14.647504 47.945607 14.647504 47.945607 C 14.647504 47.945607 31.424068 16.600292 31.424068 16.600292 C 31.424068 16.600292 31.424068 -25.207525 31.424068 -25.207525 C 31.424068 -25.207525 -31.421251 -47.946589 -31.421251 -47.946589 Z M -31.421251 -47.946589 " stroke="#000000" stroke-width="2" stroke-opacity="1" stroke-miterlimit="10"/><path stroke-linecap="round" transform="matrix(0.277778, 0, 0, 0.277778, 77.851422, 195.261385)" fill-opacity="1" fill="#d9d9d9" fill-rule="nonzero" stroke-linejoin="round" d="M 35.100509 27.760579 C 35.100509 27.760579 12.825507 15.413703 12.825507 15.413703 C 12.825507 15.413703 0.366131 33.146517 0.366131 33.146517 C 0.366131 33.146517 -35.099497 -14.356612 -35.099497 -14.356612 C -35.099497 -14.356612 -17.577621 -33.144113 -17.577621 -33.144113 C -17.577621 -33.144113 -8.549495 -33.144113 -8.549495 -33.144113 C -8.549495 -33.144113 -7.972932 -24.80505 -7.972932 -24.80505 C -7.972932 -24.80505 35.100509 27.760579 35.100509 27.760579 Z M 35.100509 27.760579 " stroke="#000000" stroke-width="2" stroke-opacity="1" stroke-miterlimit="4"/><path stroke-linecap="round" transform="matrix(0.277778, 0, 0, 0.277778, 92.511422, 197.548313)" fill-opacity="1" fill="#d9d9d9" fill-rule="nonzero" stroke-linejoin="round" d="M -17.675497 19.527636 C -17.675497 19.527636 -2.206746 9.71201 -2.206746 9.71201 C -2.206746 9.71201 14.935443 27.022949 14.935443 27.022949 C 14.935443 27.022949 17.677631 -12.872367 17.677631 -12.872367 C 17.677631 -12.872367 -0.898933 -27.019243 -0.898933 -27.019243 C -0.898933 -27.019243 -0.898933 -11.81768 -0.898933 -11.81768 C -0.898933 -11.81768 -17.675497 19.527636 -17.675497 19.527636 Z M -17.675497 19.527636 " stroke="#000000" stroke-width="2" stroke-opacity="1" stroke-miterlimit="4"/><path stroke-linecap="round" transform="matrix(0.277778, 0, 0, 0.277778, 86.788644, 204.599705)" fill-opacity="1" fill="#2e99ff" fill-rule="nonzero" stroke-linejoin="round" d="M 14.612444 -13.268314 C 15.920257 -1.540188 14.640569 8.345751 10.674944 16.305126 C 10.674944 16.305126 -8.000058 16.305126 -8.000058 16.305126 C -13.400059 8.022313 -15.368809 -3.480813 -15.917246 -16.305814 C -15.917246 -16.305814 2.926505 -5.857376 2.926505 -5.857376 C 2.926505 -5.857376 14.612444 -13.268314 14.612444 -13.268314 Z M 14.612444 -13.268314 " stroke="#000000" stroke-width="2" stroke-opacity="1" stroke-miterlimit="4"/><path stroke-linecap="round" transform="matrix(0.277778, 0, 0, 0.277778, 87.688088, 238.900528)" fill-opacity="1" fill="#2e99ff" fill-rule="nonzero" stroke-linejoin="round" d="M 7.436948 -107.17785 C 7.436948 -107.17785 21.527574 -19.146592 21.527574 -19.146592 C 17.646324 20.411224 10.108823 63.344041 1.586948 107.176857 C -8.116178 67.225291 -16.961492 25.515912 -21.531805 -25.165342 C -21.531805 -25.165342 -11.238054 -107.17785 -11.238054 -107.17785 C -11.238054 -107.17785 7.436948 -107.17785 7.436948 -107.17785 Z M 7.436948 -107.17785 " stroke="#000000" stroke-width="2" stroke-opacity="1" stroke-miterlimit="4"/><path stroke-linecap="round" transform="matrix(0.277778, 0, 0, 0.277778, 46.77004, 238.0986)" fill-opacity="1" fill="#d9d9d9" fill-rule="nonzero" stroke-linejoin="round" d="M 48.541924 -19.212773 C 48.541924 -19.212773 11.416921 96.465362 11.416921 96.465362 C -0.142455 130.13099 -54.831523 111.357551 -43.272147 77.691923 C -25.328395 -0.0596466 -4.642456 -68.431528 18.012234 -130.137783 C 44.140361 -107.145594 54.827862 -70.625278 48.541924 -19.212773 Z M 48.541924 -19.212773 " stroke="#000000" stroke-width="2" stroke-opacity="1" stroke-miterlimit="4"/><path stroke-linecap="round" transform="matrix(0.277778, 0, 0, 0.277778, 23.620318, 173.166665)" fill="none" stroke-linejoin="round" d="M 1.409042 343.917224 C 1.409042 343.917224 453.30752 343.917224 453.30752 343.917224 " stroke="#000000" stroke-width="2" stroke-opacity="1" stroke-miterlimit="4"/><path stroke-linecap="round" transform="matrix(0.277778, 0, 0, 0.277778, 83.532812, 183.339155)" fill-opacity="1" fill="#000000" fill-rule="nonzero" stroke-linejoin="round" d="M 30.116255 2.491541 C 30.116255 2.491541 30.116255 17.313417 30.116255 17.313417 C -2.044685 17.932167 -18.075937 4.207166 -30.1275 -17.927211 C -9.736874 -3.485022 8.881878 2.843103 30.116255 2.491541 Z M 30.116255 2.491541 " stroke="#000000" stroke-width="2" stroke-opacity="1" stroke-miterlimit="4"/><path stroke-linecap="butt" transform="matrix(0.264182, 0.0858381, -0.0858381, 0.264182, 96.479114, 249.637861)" fill-opacity="1" fill="#ffffff" fill-rule="nonzero" stroke-linejoin="miter" d="M -40.867003 0.217966 C -32.760941 -10.784835 -22.228283 -20.417302 -10.579953 -29.392025 C -8.996392 -30.616292 -7.135348 -31.487133 -5.150309 -31.703312 C -1.927837 -32.070192 0.276419 -30.701546 1.629322 -27.902955 C 3.621738 -23.818751 2.432438 -18.878178 -0.873151 -15.763633 C -0.873151 -15.763633 -12.586161 -4.712614 -12.586161 -4.712614 C -6.411022 -5.639647 -0.624663 -7.490177 4.859828 -9.996719 C 11.932857 -13.211629 17.41693 -19.178003 20.371083 -26.377636 C 20.407197 -26.448515 20.429938 -26.515049 20.461707 -26.599302 C 23.225582 -33.337884 32.6823 -33.630754 35.865483 -27.064933 C 36.23321 -26.297244 36.56516 -25.503143 36.879052 -24.673603 C 40.877089 -14.143694 38.265302 -2.249792 30.885291 6.254814 C 24.792964 13.261635 16.773862 19.253236 5.795895 23.692579 C 5.795895 23.692579 -27.64597 33.626969 -27.64597 33.626969 C -27.64597 33.626969 -40.867003 0.217966 -40.867003 0.217966 Z M -40.867003 0.217966 " stroke="#000000" stroke-width="2" stroke-opacity="1" stroke-miterlimit="10"/><path fill="#d9d9d9" d="M 44.335938 270.355469 C 35.152344 273.328125 30.203125 258.050781 39.386719 255.074219 C 39.386719 255.074219 86.734375 244.433594 86.734375 244.433594 C 86.734375 244.433594 88.386719 257.058594 88.386719 257.058594 C 88.386719 257.058594 44.335938 270.355469 44.335938 270.355469 Z M 44.335938 270.355469 " fill-opacity="1" fill-rule="nonzero"/><path stroke-linecap="butt" transform="matrix(0.264182, 0.0858381, -0.0858381, 0.264182, 68.137744, 258.240682)" fill="none" stroke-linejoin="miter" d="M 48.311358 -67.960784 C 48.311358 -67.960784 68.013479 -26.573435 68.013479 -26.573435 C 68.013479 -26.573435 -68.015477 67.957232 -68.015477 67.957232 " stroke="#000000" stroke-width="2" stroke-opacity="1" stroke-miterlimit="10"/><path stroke-linecap="round" transform="matrix(0.264182, 0.0858381, -0.0858381, 0.264182, 38.38414, 264.626052)" fill="none" stroke-linejoin="round" d="M -13.675402 -29.376584 C -26.743285 1.395848 -0.384325 29.367971 26.738163 12.999599 " stroke="#000000" stroke-width="2" stroke-opacity="1" stroke-miterlimit="4"/><path stroke-linecap="round" transform="matrix(0.264182, 0.0858381, -0.0858381, 0.264182, 67.84703, 248.678387)" fill="none" stroke-linejoin="round" d="M -59.941551 35.538913 C -59.941551 35.538913 59.944388 -35.544774 59.944388 -35.544774 " stroke="#000000" stroke-width="2" stroke-opacity="1" stroke-miterlimit="4"/><path stroke-linecap="butt" transform="matrix(0.277778, 0, 0, 0.277778, 100.742812, 248.773309)" fill-opacity="1" fill="#ffffff" fill-rule="nonzero" stroke-linejoin="miter" d="M 161.154016 -57.051106 C 161.154016 -57.051106 113.875887 70.32703 113.875887 70.32703 C 113.693074 70.805155 113.496199 71.269218 113.285262 71.73328 C 113.285262 71.73328 -163.84445 71.73328 -163.84445 71.73328 C -163.84445 71.73328 -163.84445 59.077029 -163.84445 59.077029 C -163.84445 59.077029 -133.666323 60.173904 -133.666323 60.173904 C -133.666323 60.173904 -67.263192 62.606717 -67.263192 62.606717 C -67.263192 62.606717 -26.256938 -64.532357 -26.256938 -64.532357 C -24.864751 -68.821419 -20.871 -71.732357 -16.356937 -71.718295 C -16.356937 -71.718295 8.519627 -71.647982 8.519627 -71.647982 C 8.519627 -71.647982 36.827442 -71.563607 36.827442 -71.563607 C 36.827442 -71.563607 65.852445 -71.479232 65.852445 -71.479232 C 65.852445 -71.479232 151.535265 -71.226107 151.535265 -71.226107 C 158.833703 -71.212045 163.839953 -63.843294 161.154016 -57.051106 Z M 161.154016 -57.051106 " stroke="#000000" stroke-width="2" stroke-opacity="1" stroke-miterlimit="10"/><path stroke-linecap="butt" transform="matrix(0.277778, 0, 0, 0.277778, 116.042525, 248.685829)" fill-opacity="1" fill="#ffffff" fill-rule="nonzero" stroke-linejoin="miter" d="M -5.524966 -8.572111 C -2.149966 -10.864299 4.093785 -9.936174 7.131285 -7.222111 C 10.168785 -4.493986 11.15316 0.216952 9.606285 3.985702 C 8.05941 7.768515 4.17816 10.412265 0.100034 10.623203 C -4.217154 10.862266 -8.731217 8.148203 -9.940592 3.985702 C -11.149967 -0.162735 -9.814029 -6.378361 -5.524966 -8.572111 Z M -5.524966 -8.572111 " stroke="#000000" stroke-width="2" stroke-opacity="1" stroke-miterlimit="10"/><path stroke-linecap="round" transform="matrix(0.277778, 0, 0, 0.277778, 103.796418, 153.932493)" fill-opacity="1" fill="#000000" fill-rule="nonzero" stroke-linejoin="round" d="M 5.739145 -25.505415 C 11.096958 -8.728851 7.665708 8.286776 -2.810856 25.499277 C -2.810856 25.499277 -11.093669 -22.889789 -11.093669 -22.889789 C -11.093669 -22.889789 5.739145 -25.505415 5.739145 -25.505415 Z M 5.739145 -25.505415 " stroke="#000000" stroke-width="2" stroke-opacity="1" stroke-miterlimit="4"/><path stroke-linecap="butt" transform="matrix(0.277778, 0, 0, 0.277778, 88.542526, 162.008893)" fill-opacity="1" fill="#ffffff" fill-rule="nonzero" stroke-linejoin="miter" d="M -52.156223 -11.169516 C -52.156223 -11.169516 -51.678098 20.330486 -51.678098 20.330486 C -51.678098 20.330486 -48.99216 58.172677 -48.99216 58.172677 C -23.97497 75.750804 2.490657 84.638305 31.57191 77.789866 C 37.801598 76.327366 42.793786 71.686741 44.762536 65.597678 C 53.396912 38.752363 54.367224 1.557047 47.912536 -45.692957 C 25.581284 -84.632023 -23.820283 -82.269523 -54.378098 -50.122645 C -54.378098 -50.122645 -52.156223 -11.169516 -52.156223 -11.169516 Z M -52.156223 -11.169516 " stroke="#000000" stroke-width="2" stroke-opacity="1" stroke-miterlimit="10"/><path stroke-linecap="butt" transform="matrix(0.277778, 0, 0, 0.277778, 70.921979, 162.042774)" fill-opacity="1" fill="#ffffff" fill-rule="nonzero" stroke-linejoin="miter" d="M 11.27775 -11.291487 C 5.160562 -21.430551 -11.841002 -14.778988 -6.666001 2.208514 C -1.153501 16.41164 5.244937 20.06789 11.840251 21.431953 C 11.840251 21.431953 11.27775 -11.291487 11.27775 -11.291487 Z M 11.27775 -11.291487 " stroke="#000000" stroke-width="2" stroke-opacity="1" stroke-miterlimit="10"/><path stroke-linecap="round" transform="matrix(0.277778, 0, 0, 0.277778, 73.89753, 152.514158)" fill-opacity="1" fill="#000000" fill-rule="nonzero" stroke-linejoin="round" d="M 14.951705 -29.455659 C 27.312643 -10.415032 17.34233 27.117784 1.128266 36.947472 C 1.128266 36.947472 0.565766 23.011533 0.565766 23.011533 C -3.540484 18.722471 -7.970172 16.163095 -13.63736 20.255283 C -25.717049 -3.004094 -27.306111 -22.396283 -15.788923 -36.950972 C -15.788923 -36.950972 14.951705 -29.455659 14.951705 -29.455659 Z M 14.951705 -29.455659 " stroke="#000000" stroke-width="2" stroke-opacity="1" stroke-miterlimit="4"/><path stroke-linecap="round" transform="matrix(0.277778, 0, 0, 0.277778, 89.667255, 140.608611)" fill-opacity="1" fill="#000000" fill-rule="nonzero" stroke-linejoin="round" d="M 53.988513 -31.03319 C 72.565077 -3.076937 62.960389 18.312127 44.679137 37.676192 C 29.224449 21.152753 1.886946 19.11369 -36.278682 30.237128 C -36.278682 30.237128 -72.573998 5.909001 -72.573998 5.909001 C -69.353685 -26.912877 -33.086494 -37.684753 -5.186492 -21.372251 C 24.963511 -8.842563 45.08695 -11.444125 53.988513 -31.03319 Z M 53.988513 -31.03319 " stroke="#000000" stroke-width="2" stroke-opacity="1" stroke-miterlimit="4"/><path stroke-linecap="round" transform="matrix(0.277778, 0, 0, 0.277778, 96.440311, 164.658589)" fill="none" stroke-linejoin="round" d="M -2.372619 -23.886547 C -1.528869 -6.266233 2.282069 8.668143 9.018007 20.930644 C 2.521131 23.265019 -3.455432 23.883769 -9.024182 23.138457 " stroke="#000000" stroke-width="2" stroke-opacity="1" stroke-miterlimit="4"/><path stroke-linecap="round" transform="matrix(0.277778, 0, 0, 0.277778, 86.530306, 155.889714)" fill="none" stroke-linejoin="round" d="M 8.708087 -3.062347 C 1.001836 -4.229535 -4.805977 -1.796722 -8.70129 4.222028 " stroke="#000000" stroke-width="2" stroke-opacity="1" stroke-miterlimit="4"/><path stroke-linecap="round" transform="matrix(0.277778, 0, 0, 0.277778, 99.687532, 157.438888)" fill="none" stroke-linejoin="round" d="M 6.89051 2.343441 C 3.388947 -0.679997 -0.857928 -2.339372 -6.890741 -0.722184 " stroke="#000000" stroke-width="2" stroke-opacity="1" stroke-miterlimit="4"/><path stroke-linecap="round" transform="matrix(0.277778, 0, 0, 0.277778, 87.966972, 162.349996)" fill-opacity="1" fill="#000000" fill-rule="nonzero" stroke-linejoin="round" d="M -3.537351 0.00564105 C -3.537351 3.872829 -1.948288 7.022829 0.00639966 7.022829 C 1.947025 7.022829 3.536087 3.872829 3.536087 0.00564105 C 3.536087 -3.875609 1.947025 -7.02561 0.00639966 -7.02561 C -1.948288 -7.02561 -3.537351 -3.875609 -3.537351 0.00564105 Z M -3.537351 0.00564105 " stroke="#000000" stroke-width="2" stroke-opacity="1" stroke-miterlimit="4"/><path stroke-linecap="round" transform="matrix(0.277778, 0, 0, 0.277778, 99.687532, 161.193049)" fill-opacity="1" fill="#000000" fill-rule="nonzero" stroke-linejoin="round" d="M -2.798554 -0.00591475 C -2.798554 3.144086 -1.546991 5.703461 -0.000115772 5.703461 C 1.546759 5.703461 2.798322 3.144086 2.798322 -0.00591475 C 2.798322 -3.155915 1.546759 -5.701228 -0.000115772 -5.701228 C -1.546991 -5.701228 -2.798554 -3.155915 -2.798554 -0.00591475 Z M -2.798554 -0.00591475 " stroke="#000000" stroke-width="2" stroke-opacity="1" stroke-miterlimit="4"/><path stroke-linecap="round" transform="matrix(0.277778, 0, 0, 0.277778, 89.095863, 175.529165)" fill="none" stroke-linejoin="round" d="M 12.831458 6.335632 C 3.015832 4.212194 -5.829481 0.471569 -12.818544 -6.334682 " stroke="#000000" stroke-width="2" stroke-opacity="1" stroke-miterlimit="4"/><path stroke-linecap="round" transform="matrix(0.277778, 0, 0, 0.277778, 252.297263, 201.397484)" fill-opacity="1" fill="#000000" fill-rule="nonzero" stroke-linejoin="round" d="M 83.572048 77.276879 C 83.572048 77.276879 -83.574841 77.276879 -83.574841 77.276879 C -89.115467 77.276879 -93.615467 72.776878 -93.615467 67.236253 C -93.615467 67.236253 -93.615467 -67.229384 -93.615467 -67.229384 C -93.615467 -72.784072 -89.115467 -77.27001 -83.574841 -77.27001 C -83.574841 -77.27001 83.572048 -77.27001 83.572048 -77.27001 C 89.112674 -77.27001 93.612674 -72.784072 93.612674 -67.229384 C 93.612674 -67.229384 93.612674 67.236253 93.612674 67.236253 C 93.612674 72.776878 89.112674 77.276879 83.572048 77.276879 Z M 83.572048 77.276879 " stroke="#000000" stroke-width="2" stroke-opacity="1" stroke-miterlimit="4"/><path stroke-linecap="round" transform="matrix(0.277778, 0, 0, 0.277778, 249.451422, 197.867489)" fill-opacity="1" fill="#ffffff" fill-rule="nonzero" stroke-linejoin="round" d="M 83.565512 77.272357 C 83.565512 77.272357 -83.567315 77.272357 -83.567315 77.272357 C -89.122003 77.272357 -93.607941 72.772357 -93.607941 67.231731 C -93.607941 67.231731 -93.607941 -67.233905 -93.607941 -67.233905 C -93.607941 -72.774531 -89.122003 -77.274531 -83.567315 -77.274531 C -83.567315 -77.274531 83.565512 -77.274531 83.565512 -77.274531 C 89.1202 -77.274531 93.6202 -72.774531 93.6202 -67.233905 C 93.6202 -67.233905 93.6202 67.231731 93.6202 67.231731 C 93.6202 72.772357 89.1202 77.272357 83.565512 77.272357 Z M 83.565512 77.272357 " stroke="#000000" stroke-width="2" stroke-opacity="1" stroke-miterlimit="4"/><path stroke-linecap="round" transform="matrix(0.277778, 0, 0, 0.277778, 248.260857, 199.08914)" fill-opacity="1" fill="#2e99ff" fill-rule="nonzero" stroke-linejoin="round" d="M 47.646857 -0.0115281 C 47.646857 26.299412 26.29998 47.632226 0.00310293 47.632226 C -26.307837 47.632226 -47.640651 26.299412 -47.640651 -0.0115281 C -47.640651 -25.94278 -26.912524 -47.02247 -1.13596 -47.627157 C -1.13596 -47.627157 -1.13596 -0.0115281 -1.13596 -0.0115281 C -1.13596 -0.0115281 47.646857 -0.0115281 47.646857 -0.0115281 Z M 47.646857 -0.0115281 " stroke="#000000" stroke-width="2" stroke-opacity="1" stroke-miterlimit="4"/><path stroke-linecap="round" transform="matrix(0.277778, 0, 0, 0.277778, 257.100601, 190.031922)" fill-opacity="1" fill="#000000" fill-rule="nonzero" stroke-linejoin="round" d="M -24.394978 -23.824297 C -24.394978 -23.824297 -24.394978 23.819458 -24.394978 23.819458 C -24.394978 23.819458 24.387839 23.819458 24.387839 23.819458 C 23.881589 -3.293045 4.250337 -23.177422 -24.394978 -23.824297 Z M -24.394978 -23.824297 " stroke="#000000" stroke-width="2" stroke-opacity="1" stroke-miterlimit="4"/><path stroke-linecap="round" transform="matrix(0.277778, 0, 0, 0.277778, 143.374186, 109.662632)" fill-opacity="1" fill="#000000" fill-rule="nonzero" stroke-linejoin="round" d="M 76.488874 75.591095 C 76.488874 75.591095 -76.483015 75.591095 -76.483015 75.591095 C -85.11739 75.591095 -92.120516 68.587969 -92.120516 59.953593 C -92.120516 59.953593 -92.120516 -59.957355 -92.120516 -59.957355 C -92.120516 -68.591731 -85.11739 -75.594856 -76.483015 -75.594856 C -76.483015 -75.594856 76.488874 -75.594856 76.488874 -75.594856 C 85.12325 -75.594856 92.126375 -68.591731 92.126375 -59.957355 C 92.126375 -59.957355 92.126375 59.953593 92.126375 59.953593 C 92.126375 68.587969 85.12325 75.591095 76.488874 75.591095 Z M 76.488874 75.591095 " stroke="#000000" stroke-width="2" stroke-opacity="1" stroke-miterlimit="4"/><path stroke-linecap="round" transform="matrix(0.277778, 0, 0, 0.277778, 139.221133, 106.340132)" fill-opacity="1" fill="#ffffff" fill-rule="nonzero" stroke-linejoin="round" d="M 76.491428 75.598969 C 76.491428 75.598969 -76.48046 75.598969 -76.48046 75.598969 C -85.114836 75.598969 -92.117962 68.595843 -92.117962 59.961467 C -92.117962 59.961467 -92.117962 -59.963543 -92.117962 -59.963543 C -92.117962 -68.597919 -85.114836 -75.586982 -76.48046 -75.586982 C -76.48046 -75.586982 76.491428 -75.586982 76.491428 -75.586982 C 85.125804 -75.586982 92.114867 -68.597919 92.114867 -59.963543 C 92.114867 -59.963543 92.114867 59.961467 92.114867 59.961467 C 92.114867 68.595843 85.125804 75.598969 76.491428 75.598969 Z M 76.491428 75.598969 " stroke="#000000" stroke-width="2" stroke-opacity="1" stroke-miterlimit="4"/><path stroke-linecap="round" transform="matrix(0.277778, 0, 0, 0.277778, 139.079468, 103.816801)" fill-opacity="1" fill="#ffffff" fill-rule="nonzero" stroke-linejoin="round" d="M 36.754543 46.967333 C 66.285796 50.173583 76.902984 12.865767 49.734232 4.554829 C 57.496732 -10.73111 29.062355 -25.201424 21.285792 -9.915485 C 15.393604 -50.176426 -42.501714 -41.696738 -36.595464 -1.435797 C -68.911091 -7.060797 -76.898592 38.853269 -44.582964 44.464207 C -44.582964 44.464207 36.754543 46.967333 36.754543 46.967333 Z M 36.754543 46.967333 " stroke="#000000" stroke-width="2" stroke-opacity="1" stroke-miterlimit="4"/><path stroke-linecap="round" transform="matrix(0.277778, 0, 0, 0.277778, 139.108633, 111.020967)" fill-opacity="1" fill="#2e99ff" fill-rule="nonzero" stroke-linejoin="round" d="M 27.171424 -0.905169 C 27.171424 -0.905169 17.42611 -0.905169 17.42611 -0.905169 C 17.42611 -0.905169 17.42611 28.162022 17.42611 28.162022 C 17.42611 28.162022 -17.392643 28.162022 -17.392643 28.162022 C -17.392643 28.162022 -17.392643 -0.905169 -17.392643 -0.905169 C -17.392643 -0.905169 -27.180143 -0.905169 -27.180143 -0.905169 C -27.180143 -0.905169 0.00267142 -28.172358 0.00267142 -28.172358 C 0.00267142 -28.172358 27.171424 -0.905169 27.171424 -0.905169 Z M 27.171424 -0.905169 " stroke="#000000" stroke-width="2" stroke-opacity="1" stroke-miterlimit="4"/><path stroke-linecap="round" transform="matrix(0.277778, 0, 0, 0.277778, 206.270309, 248.583788)" fill-opacity="1" fill="#000000" fill-rule="nonzero" stroke-linejoin="round" d="M 68.509706 64.835867 C 68.509706 64.835867 -68.515306 64.835867 -68.515306 64.835867 C -74.055932 64.835867 -78.555932 60.349929 -78.555932 54.795241 C -78.555932 54.795241 -78.555932 -54.793831 -78.555932 -54.793831 C -78.555932 -60.348519 -74.055932 -64.848519 -68.515306 -64.848519 C -68.515306 -64.848519 68.509706 -64.848519 68.509706 -64.848519 C 74.050331 -64.848519 78.550332 -60.348519 78.550332 -54.793831 C 78.550332 -54.793831 78.550332 54.795241 78.550332 54.795241 C 78.550332 60.349929 74.050331 64.835867 68.509706 64.835867 Z M 68.509706 64.835867 " stroke="#000000" stroke-width="2" stroke-opacity="1" stroke-miterlimit="4"/><path stroke-linecap="round" transform="matrix(0.277778, 0, 0, 0.277778, 203.830318, 245.517681)" fill-opacity="1" fill="#ffffff" fill-rule="nonzero" stroke-linejoin="round" d="M 68.504611 64.848855 C 68.504611 64.848855 -68.506339 64.848855 -68.506339 64.848855 C -74.061027 64.848855 -78.546964 60.348855 -78.546964 54.794167 C -78.546964 54.794167 -78.546964 -54.794906 -78.546964 -54.794906 C -78.546964 -60.349594 -74.061027 -64.835531 -68.506339 -64.835531 C -68.506339 -64.835531 68.504611 -64.835531 68.504611 -64.835531 C 74.059299 -64.835531 78.545237 -60.349594 78.545237 -54.794906 C 78.545237 -54.794906 78.545237 54.794167 78.545237 54.794167 C 78.545237 60.348855 74.059299 64.848855 68.504611 64.848855 Z M 68.504611 64.848855 " stroke="#000000" stroke-width="2" stroke-opacity="1" stroke-miterlimit="4"/><path stroke-linecap="round" transform="matrix(0.277778, 0, 0, 0.277778, 213.876405, 245.231567)" fill-opacity="1" fill="#ffffff" fill-rule="nonzero" stroke-linejoin="round" d="M -13.715998 41.142924 C -13.715998 41.142924 13.719942 41.142924 13.719942 41.142924 C 13.719942 41.142924 13.719942 -41.13677 13.719942 -41.13677 C 13.719942 -41.13677 -13.715998 -41.13677 -13.715998 -41.13677 C -13.715998 -41.13677 -13.715998 41.142924 -13.715998 41.142924 Z M -13.715998 41.142924 " stroke="#000000" stroke-width="2" stroke-opacity="1" stroke-miterlimit="4"/><path stroke-linecap="round" transform="matrix(0.277778, 0, 0, 0.277778, 203.830582, 247.699902)" fill-opacity="1" fill="#2e99ff" fill-rule="nonzero" stroke-linejoin="round" d="M -13.719784 32.256918 C -13.719784 32.256918 13.716156 32.256918 13.716156 32.256918 C 13.716156 32.256918 13.716156 -32.261838 13.716156 -32.261838 C 13.716156 -32.261838 -13.719784 -32.261838 -13.719784 -32.261838 C -13.719784 -32.261838 -13.719784 32.256918 -13.719784 32.256918 Z M -13.719784 32.256918 " stroke="#000000" stroke-width="2" stroke-opacity="1" stroke-miterlimit="4"/><path stroke-linecap="round" transform="matrix(0.277778, 0, 0, 0.277778, 193.784756, 250.945732)" fill-opacity="1" fill="#ffffff" fill-rule="nonzero" stroke-linejoin="round" d="M -13.723562 20.571931 C -13.723562 20.571931 13.72644 20.571931 13.72644 20.571931 C 13.72644 20.571931 13.72644 -20.574948 13.72644 -20.574948 C 13.72644 -20.574948 -13.723562 -20.574948 -13.723562 -20.574948 C -13.723562 -20.574948 -13.723562 20.571931 -13.723562 20.571931 Z M -13.723562 20.571931 " stroke="#000000" stroke-width="2" stroke-opacity="1" stroke-miterlimit="4"/></svg>