<svg xmlns="http://www.w3.org/2000/svg" xmlns:xlink="http://www.w3.org/1999/xlink" width="500" zoomAndPan="magnify" viewBox="0 0 375 374.999991" height="500" preserveAspectRatio="xMidYMid meet" version="1.0"><path stroke-linecap="round" transform="matrix(0.237077, 0, 0, 0.237077, 203.525866, 176.464412)" fill-opacity="1" fill="#d9d9d9" fill-rule="nonzero" stroke-linejoin="round" d="M 583.529511 364.055101 C 583.529511 364.055101 -583.517048 364.055101 -583.517048 364.055101 C -583.517048 364.055101 -583.517048 -340.819271 -583.517048 -340.819271 C -583.517048 -353.654641 -573.120233 -364.051456 -560.284863 -364.051456 C -560.284863 -364.051456 560.28085 -364.051456 560.28085 -364.051456 C 573.11622 -364.051456 583.529511 -353.654641 583.529511 -340.819271 C 583.529511 -340.819271 583.529511 364.055101 583.529511 364.055101 Z M 583.529511 364.055101 " stroke="#0a1a44" stroke-width="2" stroke-opacity="1" stroke-miterlimit="4"/><path stroke-linecap="round" transform="matrix(0.237077, 0, 0, 0.237077, 203.820313, 266.456642)" fill-opacity="1" fill="#d9d9d9" fill-rule="nonzero" stroke-linejoin="round" d="M 603.575455 33.564736 C 603.575455 33.564736 -605.47028 33.564736 -605.47028 33.564736 C -620.118091 33.564736 -631.997811 21.685016 -631.997811 7.037205 C -631.997811 7.037205 -631.997811 -33.561449 -631.997811 -33.561449 C -631.997811 -33.561449 631.997809 -33.561449 631.997809 -33.561449 C 631.997809 -33.561449 631.997809 5.142382 631.997809 5.142382 C 631.997809 20.828226 619.277776 33.564736 603.575455 33.564736 Z M 603.575455 33.564736 " stroke="#0a1a44" stroke-width="2" stroke-opacity="1" stroke-miterlimit="4"/><path stroke-linecap="round" transform="matrix(0.237077, 0, 0, 0.237077, 206.177569, 261.66839)" fill-opacity="1" fill="#d9d9d9" fill-rule="nonzero" stroke-linejoin="round" d="M -126.779475 -13.364402 C -126.779475 -13.364402 -109.380051 13.360849 -109.380051 13.360849 C -109.380051 13.360849 113.714829 13.360849 113.714829 13.360849 C 113.714829 13.360849 126.764397 -13.364402 126.764397 -13.364402 C 126.764397 -13.364402 -126.779475 -13.364402 -126.779475 -13.364402 Z M -126.779475 -13.364402 " stroke="#0a1a44" stroke-width="2" stroke-opacity="1" stroke-miterlimit="4"/><path stroke-linecap="round" transform="matrix(0.237077, 0, 0, 0.237077, 202.936501, 174.843769)" fill-opacity="1" fill="#ffffff" fill-rule="nonzero" stroke-linejoin="round" d="M 549.964402 319.401271 C 549.964402 319.401271 -549.972449 319.401271 -549.972449 319.401271 C -549.972449 319.401271 -549.972449 -319.401427 -549.972449 -319.401427 C -549.972449 -319.401427 549.964402 -319.401427 549.964402 -319.401427 C 549.964402 -319.401427 549.964402 319.401271 549.964402 319.401271 Z M 549.964402 319.401271 " stroke="#0a1a44" stroke-width="2" stroke-opacity="1" stroke-miterlimit="4"/><path stroke-linecap="round" transform="matrix(0.237077, 0, 0, 0.237077, 206.816489, 166.47992)" fill="none" stroke-linejoin="round" d="M 1.00473 1.007394 C 1.00473 1.007394 493.21399 1.007394 493.21399 1.007394 " stroke="#0a1a44" stroke-width="2" stroke-opacity="1" stroke-miterlimit="4"/><path stroke-linecap="round" transform="matrix(0.237077, 0, 0, 0.237077, 206.816489, 166.47992)" fill="none" stroke-linejoin="round" d="M 1.00473 37.717541 C 1.00473 37.717541 493.21399 37.717541 493.21399 37.717541 " stroke="#0a1a44" stroke-width="2" stroke-opacity="1" stroke-miterlimit="4"/><path stroke-linecap="round" transform="matrix(0.237077, 0, 0, 0.237077, 206.816489, 166.47992)" fill="none" stroke-linejoin="round" d="M 1.00473 74.444165 C 1.00473 74.444165 493.21399 74.444165 493.21399 74.444165 " stroke="#0a1a44" stroke-width="2" stroke-opacity="1" stroke-miterlimit="4"/><path stroke-linecap="round" transform="matrix(0.237077, 0, 0, 0.237077, 206.816489, 166.47992)" fill="none" stroke-linejoin="round" d="M 1.00473 111.170789 C 1.00473 111.170789 493.21399 111.170789 493.21399 111.170789 " stroke="#0a1a44" stroke-width="2" stroke-opacity="1" stroke-miterlimit="4"/><path stroke-linecap="round" transform="matrix(0.237077, 0, 0, 0.237077, 265.399588, 132.54405)" fill-opacity="1" fill="#ffffff" fill-rule="nonzero" stroke-linejoin="round" d="M 246.108016 102.744309 C 246.108016 102.744309 -246.101244 102.744309 -246.101244 102.744309 C -246.101244 102.744309 -246.101244 -102.753428 -246.101244 -102.753428 C -246.101244 -102.753428 246.108016 -102.753428 246.108016 -102.753428 C 246.108016 -102.753428 246.108016 102.744309 246.108016 102.744309 Z M 246.108016 102.744309 " stroke="#0a1a44" stroke-width="2" stroke-opacity="1" stroke-miterlimit="4"/><path stroke-linecap="round" transform="matrix(0.237077, 0, 0, 0.237077, 265.399821, 141.928027)" fill-opacity="1" fill="#2e99ff" fill-rule="nonzero" stroke-linejoin="round" d="M -246.102226 63.162296 C -246.102226 63.162296 -58.662982 -63.164769 -58.662982 -63.164769 C -58.662982 -63.164769 43.06433 12.29864 43.06433 12.29864 C 43.06433 12.29864 120.999247 -30.359605 120.999247 -30.359605 C 120.999247 -30.359605 246.107034 63.162296 246.107034 63.162296 C 246.107034 63.162296 -246.102226 63.162296 -246.102226 63.162296 Z M -246.102226 63.162296 " stroke="#0a1a44" stroke-width="2" stroke-opacity="1" stroke-miterlimit="4"/><path stroke-linecap="round" transform="matrix(0.237077, 0, 0, 0.237077, 277.263385, 125.445256)" fill-opacity="1" fill="#2e99ff" fill-rule="nonzero" stroke-linejoin="round" d="M 29.947662 0.000239321 C 29.947662 16.542873 16.535607 29.938452 -0.00702702 29.938452 C -16.533184 29.938452 -29.94524 16.542873 -29.94524 0.000239321 C -29.94524 -16.542394 -16.533184 -29.937973 -0.00702702 -29.937973 C 16.535607 -29.937973 29.947662 -16.542394 29.947662 0.000239321 Z M 29.947662 0.000239321 " stroke="#0a1a44" stroke-width="2" stroke-opacity="1" stroke-miterlimit="4"/><path stroke-linecap="round" transform="matrix(0.237077, 0, 0, 0.237077, 274.737788, 208.857877)" fill="none" stroke-linejoin="round" d="M 1.007161 0.994924 C 1.007161 0.994924 206.719095 0.994924 206.719095 0.994924 " stroke="#0a1a44" stroke-width="2" stroke-opacity="1" stroke-miterlimit="4"/><path stroke-linecap="round" transform="matrix(0.237077, 0, 0, 0.237077, 274.737788, 208.857877)" fill="none" stroke-linejoin="round" d="M 1.007161 37.721548 C 1.007161 37.721548 206.719095 37.721548 206.719095 37.721548 " stroke="#0a1a44" stroke-width="2" stroke-opacity="1" stroke-miterlimit="4"/><path stroke-linecap="round" transform="matrix(0.237077, 0, 0, 0.237077, 274.737788, 208.857877)" fill="none" stroke-linejoin="round" d="M 1.007161 74.448172 C 1.007161 74.448172 206.719095 74.448172 206.719095 74.448172 " stroke="#0a1a44" stroke-width="2" stroke-opacity="1" stroke-miterlimit="4"/><path stroke-linecap="round" transform="matrix(0.237077, 0, 0, 0.237077, 274.737788, 208.857877)" fill="none" stroke-linejoin="round" d="M 1.007161 111.174796 C 1.007161 111.174796 206.719095 111.174796 206.719095 111.174796 " stroke="#0a1a44" stroke-width="2" stroke-opacity="1" stroke-miterlimit="4"/><path stroke-linecap="round" transform="matrix(0.237077, 0, 0, 0.237077, 135.280923, 174.844001)" fill-opacity="1" fill="#0a1a44" fill-rule="nonzero" stroke-linejoin="round" d="M 264.601136 319.400289 C 264.601136 319.400289 -264.598376 319.400289 -264.598376 319.400289 C -264.598376 319.400289 -264.598376 -319.402409 -264.598376 -319.402409 C -264.598376 -319.402409 264.601136 -319.402409 264.601136 -319.402409 C 264.601136 -319.402409 264.601136 319.400289 264.601136 319.400289 Z M 264.601136 319.400289 " stroke="#0a1a44" stroke-width="2" stroke-opacity="1" stroke-miterlimit="4"/><path stroke-linecap="round" transform="matrix(0.237077, 0, 0, 0.237077, 72.216593, 98.786434)" fill="none" stroke-linejoin="round" d="M 51.515348 112.448269 C 51.515348 112.448269 476.450132 112.448269 476.450132 112.448269 " stroke="#ffffff" stroke-width="2" stroke-opacity="1" stroke-miterlimit="4"/><path stroke-linecap="round" transform="matrix(0.237077, 0, 0, 0.237077, 72.216593, 98.786434)" fill="none" stroke-linejoin="round" d="M 174.563544 183.133427 C 174.563544 183.133427 251.064986 183.133427 251.064986 183.133427 " stroke="#ffffff" stroke-width="2" stroke-opacity="1" stroke-miterlimit="4"/><path stroke-linecap="round" transform="matrix(0.237077, 0, 0, 0.237077, 72.216593, 98.786434)" fill="none" stroke-linejoin="round" d="M 269.930839 183.133427 C 269.930839 183.133427 476.450132 183.133427 476.450132 183.133427 " stroke="#ffffff" stroke-width="2" stroke-opacity="1" stroke-miterlimit="4"/><path stroke-linecap="round" transform="matrix(0.237077, 0, 0, 0.237077, 72.216593, 98.786434)" fill="none" stroke-linejoin="round" d="M 51.515348 183.133427 C 51.515348 183.133427 159.388478 183.133427 159.388478 183.133427 " stroke="#ffffff" stroke-width="2" stroke-opacity="1" stroke-miterlimit="4"/><path stroke-linecap="round" transform="matrix(0.237077, 0, 0, 0.237077, 72.216593, 98.786434)" fill="none" stroke-linejoin="round" d="M 51.515348 147.790848 C 51.515348 147.790848 222.148331 147.790848 222.148331 147.790848 " stroke="#2e99ff" stroke-width="2" stroke-opacity="1" stroke-miterlimit="4"/><path stroke-linecap="round" transform="matrix(0.237077, 0, 0, 0.237077, 72.216593, 98.786434)" fill="none" stroke-linejoin="round" d="M 476.450132 147.790848 C 476.450132 147.790848 238.213139 147.790848 238.213139 147.790848 " stroke="#2e99ff" stroke-width="2" stroke-opacity="1" stroke-miterlimit="4"/><path stroke-linecap="round" transform="matrix(0.237077, 0, 0, 0.237077, 72.216593, 98.786434)" fill="none" stroke-linejoin="round" d="M 51.515348 216.69652 C 51.515348 216.69652 427.234149 216.69652 427.234149 216.69652 " stroke="#2e99ff" stroke-width="2" stroke-opacity="1" stroke-miterlimit="4"/><path stroke-linecap="round" transform="matrix(0.237077, 0, 0, 0.237077, 72.216593, 98.786434)" fill="none" stroke-linejoin="round" d="M 160.311175 287.381678 C 160.311175 287.381678 227.948139 287.381678 227.948139 287.381678 " stroke="#2e99ff" stroke-width="2" stroke-opacity="1" stroke-miterlimit="4"/><path stroke-linecap="round" transform="matrix(0.237077, 0, 0, 0.237077, 72.216593, 98.786434)" fill="none" stroke-linejoin="round" d="M 244.639063 287.381678 C 244.639063 287.381678 427.234149 287.381678 427.234149 287.381678 " stroke="#2e99ff" stroke-width="2" stroke-opacity="1" stroke-miterlimit="4"/><path stroke-linecap="round" transform="matrix(0.237077, 0, 0, 0.237077, 72.216593, 98.786434)" fill="none" stroke-linejoin="round" d="M 51.515348 287.381678 C 51.515348 287.381678 146.89912 287.381678 146.89912 287.381678 " stroke="#2e99ff" stroke-width="2" stroke-opacity="1" stroke-miterlimit="4"/><path stroke-linecap="round" transform="matrix(0.237077, 0, 0, 0.237077, 72.216593, 98.786434)" fill="none" stroke-linejoin="round" d="M 51.515348 252.039099 C 51.515348 252.039099 202.376259 252.039099 202.376259 252.039099 " stroke="#ffffff" stroke-width="2" stroke-opacity="1" stroke-miterlimit="4"/><path stroke-linecap="round" transform="matrix(0.237077, 0, 0, 0.237077, 72.216593, 98.786434)" fill="none" stroke-linejoin="round" d="M 427.234149 252.039099 C 427.234149 252.039099 216.595674 252.039099 216.595674 252.039099 " stroke="#ffffff" stroke-width="2" stroke-opacity="1" stroke-miterlimit="4"/><path stroke-linecap="round" transform="matrix(0.237077, 0, 0, 0.237077, 72.216593, 98.786434)" fill="none" stroke-linejoin="round" d="M 51.515348 385.055714 C 51.515348 385.055714 476.450132 385.055714 476.450132 385.055714 " stroke="#ffffff" stroke-width="2" stroke-opacity="1" stroke-miterlimit="4"/><path stroke-linecap="round" transform="matrix(0.237077, 0, 0, 0.237077, 72.216593, 98.786434)" fill="none" stroke-linejoin="round" d="M 174.563544 455.740872 C 174.563544 455.740872 251.064986 455.740872 251.064986 455.740872 " stroke="#ffffff" stroke-width="2" stroke-opacity="1" stroke-miterlimit="4"/><path stroke-linecap="round" transform="matrix(0.237077, 0, 0, 0.237077, 72.216593, 98.786434)" fill="none" stroke-linejoin="round" d="M 269.930839 455.740872 C 269.930839 455.740872 476.450132 455.740872 476.450132 455.740872 " stroke="#ffffff" stroke-width="2" stroke-opacity="1" stroke-miterlimit="4"/><path stroke-linecap="round" transform="matrix(0.237077, 0, 0, 0.237077, 72.216593, 98.786434)" fill="none" stroke-linejoin="round" d="M 51.515348 455.740872 C 51.515348 455.740872 159.388478 455.740872 159.388478 455.740872 " stroke="#ffffff" stroke-width="2" stroke-opacity="1" stroke-miterlimit="4"/><path stroke-linecap="round" transform="matrix(0.237077, 0, 0, 0.237077, 72.216593, 98.786434)" fill="none" stroke-linejoin="round" d="M 51.515348 420.398293 C 51.515348 420.398293 222.148331 420.398293 222.148331 420.398293 " stroke="#2e99ff" stroke-width="2" stroke-opacity="1" stroke-miterlimit="4"/><path stroke-linecap="round" transform="matrix(0.237077, 0, 0, 0.237077, 72.216593, 98.786434)" fill="none" stroke-linejoin="round" d="M 476.450132 420.398293 C 476.450132 420.398293 238.213139 420.398293 238.213139 420.398293 " stroke="#2e99ff" stroke-width="2" stroke-opacity="1" stroke-miterlimit="4"/><path stroke-linecap="round" transform="matrix(0.237077, 0, 0, 0.237077, 72.216593, 98.786434)" fill="none" stroke-linejoin="round" d="M 51.515348 489.303965 C 51.515348 489.303965 427.234149 489.303965 427.234149 489.303965 " stroke="#2e99ff" stroke-width="2" stroke-opacity="1" stroke-miterlimit="4"/><path stroke-linecap="round" transform="matrix(0.237077, 0, 0, 0.237077, 72.216593, 98.786434)" fill="none" stroke-linejoin="round" d="M 160.311175 559.989123 C 160.311175 559.989123 227.948139 559.989123 227.948139 559.989123 " stroke="#2e99ff" stroke-width="2" stroke-opacity="1" stroke-miterlimit="4"/><path stroke-linecap="round" transform="matrix(0.237077, 0, 0, 0.237077, 72.216593, 98.786434)" fill="none" stroke-linejoin="round" d="M 244.639063 559.989123 C 244.639063 559.989123 427.234149 559.989123 427.234149 559.989123 " stroke="#2e99ff" stroke-width="2" stroke-opacity="1" stroke-miterlimit="4"/><path stroke-linecap="round" transform="matrix(0.237077, 0, 0, 0.237077, 72.216593, 98.786434)" fill="none" stroke-linejoin="round" d="M 51.515348 559.989123 C 51.515348 559.989123 146.89912 559.989123 146.89912 559.989123 " stroke="#2e99ff" stroke-width="2" stroke-opacity="1" stroke-miterlimit="4"/><path stroke-linecap="round" transform="matrix(0.237077, 0, 0, 0.237077, 72.216593, 98.786434)" fill="none" stroke-linejoin="round" d="M 51.515348 524.646544 C 51.515348 524.646544 202.376259 524.646544 202.376259 524.646544 " stroke="#ffffff" stroke-width="2" stroke-opacity="1" stroke-miterlimit="4"/><path stroke-linecap="round" transform="matrix(0.237077, 0, 0, 0.237077, 72.216593, 98.786434)" fill="none" stroke-linejoin="round" d="M 427.234149 524.646544 C 427.234149 524.646544 216.595674 524.646544 216.595674 524.646544 " stroke="#ffffff" stroke-width="2" stroke-opacity="1" stroke-miterlimit="4"/><path stroke-linecap="round" transform="matrix(0.237077, 0, 0, 0.237077, 88.089124, 115.690012)" fill="none" stroke-linejoin="round" d="M 15.441731 17.817221 C 15.441731 17.817221 -15.435655 0.00587931 -15.435655 0.00587931 C -15.435655 0.00587931 15.441731 -17.821939 15.441731 -17.821939 " stroke="#ffffff" stroke-width="2" stroke-opacity="1" stroke-miterlimit="4"/><path stroke-linecap="round" transform="matrix(0.237077, 0, 0, 0.237077, 103.059343, 115.690012)" fill="none" stroke-linejoin="round" d="M -15.441855 17.817221 C -15.441855 17.817221 15.435531 0.00587931 15.435531 0.00587931 C 15.435531 0.00587931 -15.441855 -17.821939 -15.441855 -17.821939 " stroke="#ffffff" stroke-width="2" stroke-opacity="1" stroke-miterlimit="4"/><path stroke-linecap="round" transform="matrix(0.237077, 0, 0, 0.237077, 95.410047, 115.690012)" fill="none" stroke-linejoin="round" d="M -7.59531 17.817221 C -7.59531 17.817221 7.596232 -17.821939 7.596232 -17.821939 " stroke="#ffffff" stroke-width="2" stroke-opacity="1" stroke-miterlimit="4"/><path stroke-linecap="butt" transform="matrix(0.237077, 0, 0, 0.237077, 339.216779, 229.801859)" fill-opacity="1" fill="#0a1a44" fill-rule="nonzero" stroke-linejoin="miter" d="M 102.065159 88.343662 C 102.065159 88.343662 -102.065009 88.343662 -102.065009 88.343662 C -111.506173 88.343662 -119.167851 80.681984 -119.167851 71.240819 C -119.167851 71.240819 -119.167851 -71.233437 -119.167851 -71.233437 C -119.167851 -80.691078 -111.506173 -88.33628 -102.065009 -88.33628 C -102.065009 -88.33628 102.065159 -88.33628 102.065159 -88.33628 C 111.506324 -88.33628 119.168002 -80.691078 119.168002 -71.233437 C 119.168002 -71.233437 119.168002 71.240819 119.168002 71.240819 C 119.168002 80.681984 111.506324 88.343662 102.065159 88.343662 Z M 102.065159 88.343662 " stroke="#0a1a44" stroke-width="2" stroke-opacity="1" stroke-miterlimit="10"/><path stroke-linecap="butt" transform="matrix(0.237077, 0, 0, 0.237077, 334.944417, 225.529497)" fill-opacity="1" fill="#2e99ff" fill-rule="nonzero" stroke-linejoin="miter" d="M 102.060623 88.339126 C 102.060623 88.339126 -102.069545 88.339126 -102.069545 88.339126 C -111.510709 88.339126 -119.172387 80.677448 -119.172387 71.236283 C -119.172387 71.236283 -119.172387 -71.237973 -119.172387 -71.237973 C -119.172387 -80.679138 -111.510709 -88.340816 -102.069545 -88.340816 C -102.069545 -88.340816 102.060623 -88.340816 102.060623 -88.340816 C 111.518265 -88.340816 119.179943 -80.679138 119.179943 -71.237973 C 119.179943 -71.237973 119.179943 71.236283 119.179943 71.236283 C 119.179943 80.677448 111.518265 88.339126 102.060623 88.339126 Z M 102.060623 88.339126 " stroke="#0a1a44" stroke-width="2" stroke-opacity="1" stroke-miterlimit="10"/><path stroke-linecap="round" transform="matrix(0.237077, 0, 0, 0.237077, 334.94465, 225.529291)" fill-opacity="1" fill="#ffffff" fill-rule="nonzero" stroke-linejoin="round" d="M 57.061701 -0.0082127 C 57.061701 31.511766 31.506297 57.050692 0.0027957 57.050692 C -31.517183 57.050692 -57.056109 31.511766 -57.056109 -0.0082127 C -57.056109 -31.511714 -31.517183 -57.050641 0.0027957 -57.050641 C 31.506297 -57.050641 57.061701 -31.511714 57.061701 -0.0082127 Z M 57.061701 -0.0082127 " stroke="#0a1a44" stroke-width="2" stroke-opacity="1" stroke-miterlimit="4"/><path stroke-linecap="round" transform="matrix(0.237077, 0, 0, 0.237077, 334.905304, 225.529497)" fill="none" stroke-linejoin="round" d="M 0.613629 -57.051511 C 40.487308 -57.051511 40.487308 57.049822 0.613629 57.049822 C -40.495805 57.049822 -40.495805 -57.051511 0.613629 -57.051511 Z M 0.613629 -57.051511 " stroke="#0a1a44" stroke-width="2" stroke-opacity="1" stroke-miterlimit="4"/><path stroke-linecap="round" transform="matrix(0.237077, 0, 0, 0.237077, 305.506127, 203.399811)" fill="none" stroke-linejoin="round" d="M 124.620595 36.292434 C 124.620595 36.292434 124.620595 150.393767 124.620595 150.393767 " stroke="#0a1a44" stroke-width="2" stroke-opacity="1" stroke-miterlimit="4"/><path stroke-linecap="round" transform="matrix(0.237077, 0, 0, 0.237077, 305.506127, 203.399811)" fill="none" stroke-linejoin="round" d="M 67.116818 93.334862 C 67.116818 93.334862 181.234628 93.334862 181.234628 93.334862 " stroke="#0a1a44" stroke-width="2" stroke-opacity="1" stroke-miterlimit="4"/><path stroke-linecap="round" transform="matrix(0.237077, 0, 0, 0.237077, 237.345092, 220.231363)" fill-opacity="1" fill="#ffffff" fill-rule="nonzero" stroke-linejoin="round" d="M 127.771355 83.269605 C 127.771355 83.269605 -127.766201 83.269605 -127.766201 83.269605 C -127.766201 83.269605 -127.766201 -83.260673 -127.766201 -83.260673 C -127.766201 -83.260673 127.771355 -83.260673 127.771355 -83.260673 C 127.771355 -83.260673 127.771355 83.269605 127.771355 83.269605 Z M 127.771355 83.269605 " stroke="#0a1a44" stroke-width="2" stroke-opacity="1" stroke-miterlimit="4"/><path stroke-linecap="round" transform="matrix(0.237077, 0, 0, 0.237077, 237.345092, 226.390152)" fill-opacity="1" fill="#2e99ff" fill-rule="nonzero" stroke-linejoin="round" d="M -127.766201 57.291576 C -127.766201 53.732603 -27.554748 -57.287582 -27.554748 -57.287582 C -27.554748 -57.287582 36.440859 11.618089 36.440859 11.618089 C 36.440859 11.618089 74.716295 -17.908205 74.716295 -17.908205 C 74.716295 -17.908205 127.771355 57.291576 127.771355 57.291576 C 127.771355 57.291576 -127.766201 57.291576 -127.766201 57.291576 Z M -127.766201 57.291576 " stroke="#0a1a44" stroke-width="2" stroke-opacity="1" stroke-miterlimit="4"/><path stroke-linecap="round" transform="matrix(0.237077, 0, 0, 0.237077, 245.07595, 214.3644)" fill-opacity="1" fill="#2e99ff" fill-rule="nonzero" stroke-linejoin="round" d="M 19.682386 -0.0047203 C 19.682386 10.869919 10.867337 19.684968 -0.00730251 19.684968 C -10.881942 19.684968 -19.696991 10.869919 -19.696991 -0.0047203 C -19.696991 -10.87936 -10.881942 -19.694409 -0.00730251 -19.694409 C 10.867337 -19.694409 19.682386 -10.87936 19.682386 -0.0047203 Z M 19.682386 -0.0047203 " stroke="#0a1a44" stroke-width="2" stroke-opacity="1" stroke-miterlimit="4"/><path stroke-linecap="round" transform="matrix(-0.276147, 0, 0, 0.276147, 83.757069, 210.380494)" fill-opacity="1" fill="#ffffff" fill-rule="nonzero" stroke-linejoin="round" d="M 48.629676 -42.498956 C 48.629676 -42.498956 -2.379145 79.152697 -2.379145 79.152697 C -13.738014 106.085808 -56.797041 87.668313 -45.438172 60.735203 C -26.270964 -1.957835 -5.448727 -56.814243 16.547589 -106.083163 C 36.280619 -85.812602 56.805799 -84.270738 48.629676 -42.498956 Z M 48.629676 -42.498956 " stroke="#0a1a44" stroke-width="2" stroke-opacity="1" stroke-miterlimit="4"/><path stroke-linecap="round" transform="matrix(-0.276147, 0, 0, 0.276147, 15.124303, 211.025876)" fill-opacity="1" fill="#ffffff" fill-rule="nonzero" stroke-linejoin="round" d="M -45.480439 -41.441119 C -45.480439 -41.441119 -2.506285 83.152806 -2.506285 83.152806 C 8.35749 111.641926 52.703762 93.224432 41.839986 64.721166 C 23.960022 -1.46582 4.184556 -59.476684 -16.934737 -111.64544 C -37.558936 -90.780767 -52.708811 -85.447898 -45.480439 -41.441119 Z M -45.480439 -41.441119 " stroke="#0a1a44" stroke-width="2" stroke-opacity="1" stroke-miterlimit="4"/><path stroke-linecap="round" transform="matrix(-0.276147, 0, 0, 0.276147, 49.310476, 209.483835)" fill-opacity="1" fill="#2e99ff" fill-rule="nonzero" stroke-linejoin="round" d="M -106.91933 -102.836128 C -86.917535 -115.142749 -67.325961 -125.850924 -48.583119 -133.404642 C -48.583119 -133.404642 39.416292 -140.576432 39.416292 -140.576432 C 62.756435 -131.707178 85.431737 -120.928275 106.918814 -106.726152 C 106.918814 -106.726152 61.921848 132.206182 61.921848 132.206182 C 2.87836 140.056957 -44.396039 140.580342 -74.271421 130.211661 C -74.271421 130.211661 -106.91933 -102.836128 -106.91933 -102.836128 Z M -106.91933 -102.836128 " stroke="#0a1a44" stroke-width="2" stroke-opacity="1" stroke-miterlimit="4"/><path fill="#d9d9d9" d="M 41.519531 156.109375 C 41.519531 156.109375 42.300781 167.394531 42.300781 167.394531 C 42.300781 167.394531 53.515625 181.085938 53.515625 181.085938 C 53.515625 181.085938 57.886719 172.917969 57.886719 172.917969 C 57.886719 172.917969 57.886719 162.03125 57.886719 162.03125 C 57.886719 162.03125 41.519531 156.109375 41.519531 156.109375 Z M 41.519531 156.109375 " fill-opacity="1" fill-rule="nonzero"/><path stroke-linecap="round" transform="matrix(-0.276147, 0, 0, 0.276147, 44.376011, 173.853694)" fill-opacity="1" fill="#ffffff" fill-rule="nonzero" stroke-linejoin="round" d="M -33.096904 26.189823 C -33.096904 26.189823 -12.090776 14.533897 -12.090776 14.533897 C -12.090776 14.533897 -0.349977 31.253926 -0.349977 31.253926 C -0.349977 31.253926 33.104228 -13.545002 33.104228 -13.545002 C 33.104228 -13.545002 16.56809 -31.25522 16.56809 -31.25522 C 16.56809 -31.25522 8.06662 -31.25522 8.06662 -31.25522 C 8.06662 -31.25522 7.514944 -23.390299 7.514944 -23.390299 C 7.514944 -23.390299 -33.096904 26.189823 -33.096904 26.189823 Z M -33.096904 26.189823 " stroke="#0a1a44" stroke-width="2" stroke-opacity="1" stroke-miterlimit="4"/><path stroke-linecap="round" transform="matrix(-0.276147, 0, 0, 0.276147, 58.121782, 175.997976)" fill-opacity="1" fill="#ffffff" fill-rule="nonzero" stroke-linejoin="round" d="M 16.680086 18.410677 C 16.680086 18.410677 2.081888 9.159493 2.081888 9.159493 C 2.081888 9.159493 -14.086466 25.483447 -14.086466 25.483447 C -14.086466 25.483447 -16.6751 -12.143692 -16.6751 -12.143692 C -16.6751 -12.143692 0.851226 -25.482937 0.851226 -25.482937 C 0.851226 -25.482937 0.851226 -11.153504 0.851226 -11.153504 C 0.851226 -11.153504 16.680086 18.410677 16.680086 18.410677 Z M 16.680086 18.410677 " stroke="#0a1a44" stroke-width="2" stroke-opacity="1" stroke-miterlimit="4"/><path stroke-linecap="round" transform="matrix(-0.276147, 0, 0, 0.276147, 52.632251, 186.82985)" fill-opacity="1" fill="#ffffff" fill-rule="nonzero" stroke-linejoin="round" d="M -17.797125 -30.065522 C -17.797125 -30.065522 -1.402443 32.45777 -1.402443 32.45777 C -1.402443 32.45777 17.807202 -32.456118 17.807202 -32.456118 C 17.807202 -32.456118 -3.198927 -20.800193 -3.198927 -20.800193 C -3.198927 -20.800193 -17.797125 -30.065522 -17.797125 -30.065522 Z M -17.797125 -30.065522 " stroke="#0a1a44" stroke-width="2" stroke-opacity="1" stroke-miterlimit="4"/><path stroke-linecap="round" transform="matrix(-0.276147, 0, 0, 0.276147, 56.6687, 191.31863)" fill-opacity="1" fill="#ffffff" fill-rule="nonzero" stroke-linejoin="round" d="M -10.097268 -34.028078 C -10.097268 -34.028078 10.102564 34.02612 10.102564 34.02612 " stroke="#0a1a44" stroke-width="2" stroke-opacity="1" stroke-miterlimit="4"/><path stroke-linecap="round" transform="matrix(-0.276147, 0, 0, 0.276147, 48.361643, 190.162399)" fill-opacity="1" fill="#ffffff" fill-rule="nonzero" stroke-linejoin="round" d="M 7.887279 -25.809587 C 7.887279 -25.809587 -7.884999 25.807492 -7.884999 25.807492 " stroke="#0a1a44" stroke-width="2" stroke-opacity="1" stroke-miterlimit="4"/><path stroke-linecap="round" transform="matrix(-0.276147, 0, 0, 0.276147, 56.427075, 242.660727)" fill="none" stroke-linejoin="round" d="M -43.648454 -3.750636 C -16.460724 3.689918 12.862983 3.746501 43.64368 -1.261021 " stroke="#0a1a44" stroke-width="2" stroke-opacity="1" stroke-miterlimit="4"/><path stroke-linecap="round" transform="matrix(-0.276147, 0, 0, 0.276147, 49.703164, 168.596415)" fill="none" stroke-linejoin="round" d="M 29.635048 -45.218801 C 29.635048 -45.218801 26.80594 -4.352333 26.80594 -4.352333 C 26.80594 -4.352333 -13.805908 45.227788 -13.805908 45.227788 C -13.805908 45.227788 -29.634769 15.649462 -29.634769 15.649462 C -29.634769 15.649462 -29.634769 -23.774161 -29.634769 -23.774161 C -29.634769 -23.774161 29.635048 -45.218801 29.635048 -45.218801 Z M 29.635048 -45.218801 " stroke="#0a1a44" stroke-width="2" stroke-opacity="1" stroke-miterlimit="4"/><path fill="#0a1a44" d="M 57.859375 163.292969 C 57.859375 163.292969 57.859375 167.148438 57.859375 167.148438 C 49.480469 167.308594 44.992188 163.773438 41.859375 158.003906 C 47.164062 161.765625 52.328125 163.378906 57.859375 163.292969 Z M 57.859375 163.292969 " fill-opacity="1" fill-rule="nonzero"/><path stroke-linecap="round" transform="matrix(-0.276147, 0, 0, 0.276147, 68.404337, 135.998048)" fill-opacity="1" fill="#0a1a44" fill-rule="nonzero" stroke-linejoin="round" d="M -4.024262 -23.700858 C -6.825079 -4.887288 -3.133093 9.725056 1.563227 23.70085 C 1.563227 23.70085 6.825368 -23.092599 6.825368 -23.092599 C 6.825368 -23.092599 -4.024262 -23.700858 -4.024262 -23.700858 Z M -4.024262 -23.700858 " stroke="#0a1a44" stroke-width="2" stroke-opacity="1" stroke-miterlimit="4"/><path stroke-linecap="round" transform="matrix(-0.276147, 0, 0, 0.276147, 54.400369, 142.675011)" fill-opacity="1" fill="#d9d9d9" fill-rule="nonzero" stroke-linejoin="round" d="M 49.19104 -10.535637 C 49.19104 -10.535637 48.738383 19.169999 48.738383 19.169999 C 48.738383 19.169999 46.206331 54.873344 46.206331 54.873344 C 22.611569 71.451919 -2.341166 79.826079 -29.783515 73.375712 C -35.653915 71.989449 -40.36438 67.618477 -42.217446 61.875387 C -50.365278 36.554869 -51.284738 1.473927 -45.18801 -43.098673 C -24.125299 -79.834643 22.455968 -77.585502 51.284581 -47.271608 C 51.284581 -47.271608 49.19104 -10.535637 49.19104 -10.535637 Z M 49.19104 -10.535637 " stroke="#0a1a44" stroke-width="2" stroke-opacity="1" stroke-miterlimit="4"/><path stroke-linecap="round" transform="matrix(-0.276147, 0, 0, 0.276147, 37.878763, 142.706782)" fill-opacity="1" fill="#d9d9d9" fill-rule="nonzero" stroke-linejoin="round" d="M -10.637965 -10.650689 C -4.866585 -20.213075 11.160313 -13.9466 6.294247 2.094443 C 1.088688 15.490271 -4.951458 18.927637 -11.16135 20.214881 C -11.16135 20.214881 -10.637965 -10.650689 -10.637965 -10.650689 Z M -10.637965 -10.650689 " stroke="#0a1a44" stroke-width="2" stroke-opacity="1" stroke-miterlimit="4"/><path stroke-linecap="round" transform="matrix(-0.276147, 0, 0, 0.276147, 53.163783, 125.862911)" fill-opacity="1" fill="#0a1a44" fill-rule="nonzero" stroke-linejoin="round" d="M 44.288678 50.345322 C 35.716481 45.040744 29.987536 33.243363 27.59694 13.83568 C 12.857286 19.861681 1.554999 16.876971 -6.720143 5.984905 C -17.23028 15.80191 -31.135347 19.592915 -47.416864 19.168549 C -60.982438 20.455793 -66.485054 13.849826 -64.631988 0.0296321 C -58.690861 -27.441009 -41.999122 -29.958915 -21.572961 -23.81975 C -13.170509 -50.34264 19.816892 -45.787775 21.797268 -23.81975 C 42.704378 -28.247305 54.204703 -23.749022 48.362594 -2.799476 C 61.914023 -1.469795 66.497178 5.843449 62.522281 18.857347 C 62.522281 18.857347 57.401595 47.205012 57.401595 47.205012 C 52.94575 46.158242 48.588923 47.445486 44.288678 50.345322 Z M 44.288678 50.345322 " stroke="#0a1a44" stroke-width="2" stroke-opacity="1" stroke-miterlimit="4"/><path stroke-linecap="round" transform="matrix(-0.276147, 0, 0, 0.276147, 61.805801, 145.159238)" fill="none" stroke-linejoin="round" d="M 2.239029 -22.516378 C 1.432733 -5.909513 -2.146089 8.165301 -8.511583 19.736353 C -2.372418 21.943058 3.257508 22.523025 8.505503 21.829893 " stroke="#0a1a44" stroke-width="2" stroke-opacity="1" stroke-miterlimit="4"/><path stroke-linecap="round" transform="matrix(-0.276147, 0, 0, 0.276147, 50.864303, 135.368444)" fill="none" stroke-linejoin="round" d="M -8.21486 -2.89024 C -0.944052 -3.979447 4.530272 -1.687869 8.208113 3.984493 " stroke="#0a1a44" stroke-width="2" stroke-opacity="1" stroke-miterlimit="4"/><path stroke-linecap="round" transform="matrix(-0.276147, 0, 0, 0.276147, 64.451851, 135.079868)" fill="none" stroke-linejoin="round" d="M -6.497415 2.214538 C -3.187359 -0.642861 0.81583 -2.213016 6.502337 -0.671152 " stroke="#0a1a44" stroke-width="2" stroke-opacity="1" stroke-miterlimit="4"/><path stroke-linecap="round" transform="matrix(-0.276147, 0, 0, 0.276147, 52.211358, 142.994523)" fill-opacity="1" fill="#0a1a44" fill-rule="nonzero" stroke-linejoin="round" d="M 3.33987 0.0056895 C 3.33987 3.655239 1.840443 6.625803 0.00152227 6.625803 C -1.837398 6.625803 -3.336825 3.655239 -3.336825 0.0056895 C -3.336825 -3.658006 -1.837398 -6.614424 0.00152227 -6.614424 C 1.840443 -6.614424 3.33987 -3.658006 3.33987 0.0056895 Z M 3.33987 0.0056895 " stroke="#0a1a44" stroke-width="2" stroke-opacity="1" stroke-miterlimit="4"/><path stroke-linecap="round" transform="matrix(-0.276147, 0, 0, 0.276147, 64.850319, 141.909804)" fill-opacity="1" fill="#0a1a44" fill-rule="nonzero" stroke-linejoin="round" d="M 2.640712 0.00127457 C 2.640712 2.971838 1.452486 5.37658 -0.00450433 5.37658 C -1.461495 5.37658 -2.635575 2.971838 -2.635575 0.00127457 C -2.635575 -2.969289 -1.461495 -5.374031 -0.00450433 -5.374031 C 1.452486 -5.374031 2.640712 -2.969289 2.640712 0.00127457 Z M 2.640712 0.00127457 " stroke="#0a1a44" stroke-width="2" stroke-opacity="1" stroke-miterlimit="4"/><path stroke-linecap="round" transform="matrix(-0.276147, 0, 0, 0.276147, 53.882319, 155.644823)" fill-opacity="1" fill="#0a1a44" fill-rule="nonzero" stroke-linejoin="round" d="M -12.577172 1.682262 C -0.00178578 11.867051 11.569267 5.55814 12.5736 -11.869167 C 5.953487 -5.121744 -2.434819 -0.609316 -12.577172 1.682262 Z M -12.577172 1.682262 " stroke="#0a1a44" stroke-width="2" stroke-opacity="1" stroke-miterlimit="4"/><path stroke-linecap="round" transform="matrix(-0.276147, 0, 0, 0.276147, 52.237242, 241.122347)" fill-opacity="1" fill="#d9d9d9" fill-rule="nonzero" stroke-linejoin="round" d="M 32.813891 6.021464 C 24.199257 12.966924 14.056904 18.257357 3.193128 22.769784 C 1.721992 23.378043 0.1094 23.646808 -1.460755 23.378043 C -3.992806 22.925385 -5.379069 21.326939 -5.817581 18.794887 C -6.439985 15.088756 -4.459609 11.410915 -1.262717 9.671013 C -1.262717 9.671013 10.110298 3.517703 10.110298 3.517703 C 5.18765 2.867008 0.36402 3.022609 -4.374736 3.758177 C -10.48561 4.720074 -15.97408 8.242314 -19.807521 13.306417 C -19.849958 13.363 -19.878249 13.405436 -19.920686 13.462018 C -23.513653 18.21492 -30.798607 16.291127 -31.80294 10.335854 C -31.916105 9.642722 -32.000978 8.9213 -32.05756 8.199877 C -32.807274 -1.122035 -28.224118 -10.01958 -20.726982 -15.12612 C -14.54538 -19.327346 -7.104825 -22.283764 2.259523 -23.330534 C 2.259523 -23.330534 29.984783 -23.655881 29.984783 -23.655881 C 29.984783 -23.655881 32.813891 6.021464 32.813891 6.021464 Z M 32.813891 6.021464 " stroke="#0a1a44" stroke-width="2" stroke-opacity="1" stroke-miterlimit="4"/><path fill="#ffffff" d="M 8.042969 237.730469 C 0.503906 236.503906 2.460938 223.410156 9.996094 224.636719 C 9.996094 224.636719 47.183594 234.414062 47.183594 234.414062 C 47.183594 234.414062 43.851562 244.328125 43.851562 244.328125 C 43.851562 244.328125 8.042969 237.730469 8.042969 237.730469 Z M 8.042969 237.730469 " fill-opacity="1" fill-rule="nonzero"/><path stroke-linecap="butt" transform="matrix(-0.276147, 0, 0, 0.276147, 27.613754, 239.372123)" fill="none" stroke-linejoin="miter" d="M -70.867449 -17.954418 C -70.867449 -17.954418 -58.801302 17.946966 -58.801302 17.946966 C -58.801302 17.946966 70.870873 -5.944853 70.870873 -5.944853 " stroke="#0a1a44" stroke-width="2" stroke-opacity="1" stroke-miterlimit="10"/><path stroke-linecap="round" transform="matrix(-0.276147, 0, 0, 0.276147, 32.351611, 230.514419)" fill="none" stroke-linejoin="round" d="M 53.710796 -14.127029 C 53.710796 -14.127029 -53.710443 14.121616 -53.710443 14.121616 " stroke="#0a1a44" stroke-width="2" stroke-opacity="1" stroke-miterlimit="4"/><path stroke-linecap="round" transform="matrix(-0.276147, 0, 0, 0.276147, 43.459348, 238.839155)" fill-opacity="1" fill="#ffffff" fill-rule="nonzero" stroke-linejoin="round" d="M 2.611169 -27.312545 C 2.611169 -27.312545 -15.084903 -19.688098 -15.084903 -19.688098 C -15.084903 -19.688098 -0.00575582 27.317535 -0.00575582 27.317535 C -0.00575582 27.317535 15.087536 22.762671 15.087536 22.762671 C 15.087536 22.762671 2.611169 -27.312545 2.611169 -27.312545 Z M 2.611169 -27.312545 " stroke="#0a1a44" stroke-width="2" stroke-opacity="1" stroke-miterlimit="4"/><path stroke-linecap="round" transform="matrix(-0.276147, 0, 0, 0.276147, 4.893752, 232.177396)" fill="none" stroke-linejoin="round" d="M 2.529231 -20.106661 C 11.398485 2.738388 3.929639 16.006905 -11.404127 20.109112 " stroke="#0a1a44" stroke-width="2" stroke-opacity="1" stroke-miterlimit="4"/><path stroke-linecap="round" transform="matrix(-0.276147, 0, 0, 0.276147, 50.211868, 259.820462)" fill-opacity="1" fill="#0a1a44" fill-rule="nonzero" stroke-linejoin="round" d="M 77.252168 20.241727 C 76.346853 8.430201 77.803844 -41.744034 64.224125 -67.488918 C 64.224125 -67.488918 -69.295638 -67.488918 -69.295638 -67.488918 C -78.150746 -47.458832 -74.161704 11.018835 -74.161704 23.622512 C -74.161704 33.679991 -73.595882 31.515724 -63.495966 42.973612 C -53.410195 54.417355 -27.424836 67.487835 -21.427127 67.487835 C -15.429417 67.487835 26.540403 59.226839 53.982753 47.684077 C 67.703928 41.926842 78.157483 32.053254 77.252168 20.241727 Z M 77.252168 20.241727 " stroke="#0a1a44" stroke-width="2" stroke-opacity="1" stroke-miterlimit="4"/><path stroke-linecap="butt" transform="matrix(-0.276147, 0, 0, 0.276147, 76.790479, 225.224457)" fill-opacity="1" fill="#ffffff" fill-rule="nonzero" stroke-linejoin="miter" d="M -145.863691 -56.461376 C -145.863691 -56.461376 -103.059284 58.824784 -103.059284 58.824784 C -100.612105 65.40246 -94.303194 69.745141 -87.27286 69.646122 C -87.27286 69.646122 148.27869 66.548249 148.27869 66.548249 C 148.27869 66.548249 148.27869 48.65414 148.27869 48.65414 C 148.27869 48.65414 60.873391 51.836886 60.873391 51.836886 C 60.873391 51.836886 23.769637 -63.222945 23.769637 -63.222945 C 22.510684 -67.112969 18.889426 -69.744039 14.801364 -69.729894 C 14.801364 -69.729894 -137.150038 -69.291382 -137.150038 -69.291382 C -143.756006 -69.277236 -148.282579 -62.600541 -145.863691 -56.461376 Z M -145.863691 -56.461376 " stroke="#0a1a44" stroke-width="2" stroke-opacity="1" stroke-miterlimit="10"/><path stroke-linecap="butt" transform="matrix(-0.276147, 0, 0, 0.276147, 90.556405, 223.813901)" fill-opacity="1" fill="#ffffff" fill-rule="nonzero" stroke-linejoin="miter" d="M 4.999595 -7.756828 C 1.944158 -9.822077 -3.699912 -9.001636 -6.458293 -6.540312 C -9.202528 -4.064842 -10.093697 0.192966 -8.693288 3.616187 C -7.307025 7.025262 -3.784786 9.415859 -0.0927994 9.613896 C 3.825515 9.826079 7.899431 7.378901 9.002783 3.616187 C 10.09199 -0.146527 8.875474 -5.776452 4.999595 -7.756828 Z M 4.999595 -7.756828 " stroke="#0a1a44" stroke-width="2" stroke-opacity="1" stroke-miterlimit="10"/><path stroke-linecap="round" transform="matrix(-0.276147, 0, 0, 0.276147, 86.04057, 269.747385)" fill-opacity="1" fill="#0a1a44" fill-rule="nonzero" stroke-linejoin="round" d="M 27.759011 4.932119 C 27.759011 4.932119 -4.620133 -28.408921 -4.620133 -28.408921 C -4.620133 -28.408921 -27.762238 -1.009008 -27.762238 -1.009008 C -27.762238 -1.009008 -22.471806 8.878725 -22.471806 8.878725 C -22.471806 8.878725 6.781173 28.413717 6.781173 28.413717 C 6.781173 28.413717 18.960484 20.322468 18.960484 20.322468 C 18.960484 20.322468 27.759011 4.932119 27.759011 4.932119 Z M 27.759011 4.932119 " stroke="#0a1a44" stroke-width="2" stroke-opacity="1" stroke-miterlimit="4"/><path stroke-linecap="round" transform="matrix(-0.276147, 0, 0, 0.276147, 96.854206, 251.373118)" fill-opacity="1" fill="#0a1a44" fill-rule="nonzero" stroke-linejoin="round" d="M -98.867759 -59.206419 C -98.867759 -59.206419 -122.207902 -50.874696 -122.30692 -24.705445 C -122.490812 25.426353 -21.010701 80.692982 -21.010701 80.692982 C -21.010701 80.692982 114.03678 -8.791711 114.03678 -8.791711 C 114.03678 -8.791711 122.495813 -12.214932 122.495813 -12.214932 C 122.495813 -12.214932 -59.81192 -80.693496 -98.867759 -59.206419 Z M -98.867759 -59.206419 " stroke="#0a1a44" stroke-width="2" stroke-opacity="1" stroke-miterlimit="4"/><path stroke-linecap="round" transform="matrix(-0.276147, 0, 0, 0.276147, 66.693984, 260.992425)" fill-opacity="1" fill="#0a1a44" fill-rule="nonzero" stroke-linejoin="round" d="M -148.971503 45.561927 C -148.971503 45.561927 41.625517 -76.514093 50.042114 -81.309431 C 57.199758 -85.383347 76.338675 -97.166583 95.222972 -91.961023 C 114.107269 -86.755464 131.039482 -69.823252 139.498516 -45.0827 C 144.336291 -30.951305 146.613723 -6.833157 147.688784 11.25899 C 148.976028 32.873376 142.271042 54.431181 128.125501 70.840009 C 121.689279 78.308854 113.753631 84.801658 104.3327 87.74393 C 102.352325 88.352189 100.287076 88.889719 98.17939 89.342376 C 62.094115 97.164861 25.018652 80.968216 4.748091 50.130937 C 4.748091 50.130937 0.306391 43.341077 0.306391 43.341077 C 0.306391 43.341077 -124.513863 89.200921 -126.465948 88.550226 C -126.465948 88.550226 -148.971503 45.561927 -148.971503 45.561927 Z M -148.971503 45.561927 " stroke="#0a1a44" stroke-width="2" stroke-opacity="1" stroke-miterlimit="4"/><path stroke-linecap="round" transform="matrix(-0.276147, 0, 0, 0.276147, 40.604709, 253.539504)" fill-opacity="1" fill="#0a1a44" fill-rule="nonzero" stroke-linejoin="round" d="M -54.279192 -47.558908 C -54.265047 -47.544763 -54.109446 -47.629636 -53.798244 -47.841819 C -53.444605 -48.082293 -53.006094 -48.37935 -52.468563 -48.747134 C -51.294483 -49.55343 -49.582873 -50.741655 -47.319586 -52.198646 C -42.793013 -55.084336 -36.102172 -59.200689 -27.077317 -62.482454 C -22.564889 -64.095046 -17.430058 -65.38229 -11.828423 -65.693492 C -6.240935 -65.933966 -0.186643 -65.099379 5.697902 -62.836093 C 11.610738 -60.615243 17.339682 -57.107149 22.559387 -52.623012 C 25.162166 -50.373871 27.680073 -47.912547 30.028233 -45.267331 C 32.362247 -42.607969 34.41335 -39.62326 36.22398 -36.468804 C 39.845238 -30.131602 42.532891 -23.440761 44.442539 -16.820648 C 46.239023 -10.172243 47.681868 -3.608712 49.053985 2.587035 C 51.769929 15.020965 53.241065 26.422271 53.439103 36.027094 C 53.594704 45.646062 52.618662 53.397818 51.699201 58.702396 C 51.288981 61.361758 50.808032 63.398716 50.525122 64.784979 C 50.397812 65.421528 50.298793 65.944913 50.21392 66.369279 C 50.143192 66.722918 50.129046 66.920955 50.143192 66.920955 C 50.157337 66.920955 50.228065 66.751209 50.327084 66.39757 C 50.440248 65.98735 50.581704 65.463965 50.75145 64.841561 C 51.105089 63.455298 51.656765 61.432486 52.137713 58.773124 C 53.198629 53.496837 54.287835 45.702644 54.245399 36.027094 C 54.14638 26.351544 52.745972 14.865364 50.072464 2.374852 C 48.728638 -3.877478 47.314084 -10.384426 45.5176 -17.13185 C 43.579661 -23.836836 40.892008 -30.598405 37.214167 -37.034626 C 35.361102 -40.245664 33.267561 -43.286955 30.891111 -46.017044 C 28.472223 -48.718843 25.940171 -51.194312 23.280809 -53.457599 C 17.976232 -58.012463 12.119978 -61.57714 6.065686 -63.812135 C 0.0396855 -66.103713 -6.156061 -66.924154 -11.885006 -66.641243 C -17.599804 -66.273459 -22.805363 -64.915487 -27.346082 -63.232168 C -36.441665 -59.808947 -43.090069 -55.57943 -47.56006 -52.56643 C -49.795056 -51.052857 -51.478375 -49.793904 -52.595873 -48.931026 C -53.119258 -48.520805 -53.529479 -48.195458 -53.868972 -47.926692 C -54.151882 -47.700364 -54.293338 -47.573054 -54.279192 -47.558908 Z M -54.279192 -47.558908 " stroke="#0a1a44" stroke-width="2" stroke-opacity="1" stroke-miterlimit="4"/><path stroke-linecap="round" transform="matrix(-0.276147, 0, 0, 0.276147, 115.525353, 279.452295)" fill-opacity="1" fill="#0a1a44" fill-rule="nonzero" stroke-linejoin="round" d="M 35.639554 -21.484072 C 14.463679 -16.377532 -7.065834 -23.506885 -28.765094 -36.223726 C -48.00303 -45.757821 -55.203111 -40.382515 -59.89943 -31.923481 C -47.437209 -6.122015 -23.927319 19.764326 14.831463 45.76383 C 14.831463 45.76383 59.899157 18.222462 59.899157 18.222462 C 59.899157 18.222462 35.639554 -21.484072 35.639554 -21.484072 Z M 35.639554 -21.484072 " stroke="#0a1a44" stroke-width="2" stroke-opacity="1" stroke-miterlimit="4"/><path stroke-linecap="round" transform="matrix(-0.276147, 0, 0, 0.276147, 76.547181, 281.682462)" fill-opacity="1" fill="#0a1a44" fill-rule="nonzero" stroke-linejoin="round" d="M -33.736007 -21.893197 C -17.7374 -7.125253 -11.697254 14.743754 -10.226118 39.852089 C -7.467737 61.141129 1.005442 64.125838 10.652701 63.347833 C 25.180171 38.649718 33.653351 4.728711 33.738224 -41.951575 C 33.738224 -41.951575 -14.201015 -64.131783 -14.201015 -64.131783 C -14.201015 -64.131783 -33.736007 -21.893197 -33.736007 -21.893197 Z M -33.736007 -21.893197 " stroke="#0a1a44" stroke-width="2" stroke-opacity="1" stroke-miterlimit="4"/><path stroke-linecap="round" transform="matrix(0.237077, 0, 0, 0.237077, 86.767895, 266.082316)" fill="none" stroke-linejoin="round" d="M -87.830528 -81.445662 C -87.830528 -81.445662 87.827856 30.826754 87.827856 30.826754 C 87.827856 30.826754 58.054411 81.443259 58.054411 81.443259 " stroke="#d9d9d9" stroke-width="2" stroke-opacity="1" stroke-miterlimit="4"/><path stroke-linecap="round" transform="matrix(0.237077, 0, 0, 0.237077, 90.080564, 248.751752)" fill="none" stroke-linejoin="round" d="M -54.037476 22.120855 C -54.037476 22.120855 54.033375 -22.119156 54.033375 -22.119156 " stroke="#d9d9d9" stroke-width="2" stroke-opacity="1" stroke-miterlimit="4"/></svg>