<svg xmlns="http://www.w3.org/2000/svg" xmlns:xlink="http://www.w3.org/1999/xlink" width="500" zoomAndPan="magnify" viewBox="0 0 375 374.999991" height="500" preserveAspectRatio="xMidYMid meet" version="1.0"><path fill="#004aad" d="M 347.527344 206.738281 C 347.527344 227.953125 336.167969 247.121094 317.886719 260.808594 C 307.910156 268.28125 298.9375 276.992188 290.824219 286.457031 C 273.367188 306.816406 243.433594 320.246094 209.445312 320.246094 C 168.21875 320.246094 132.96875 300.496094 118.691406 272.585938 C 112.101562 259.695312 101.5625 249.210938 88.480469 243.019531 C 59.328125 229.222656 39.730469 203.523438 39.730469 174.09375 C 39.730469 130.089844 83.546875 94.414062 137.601562 94.414062 C 167.566406 94.414062 194.390625 105.382812 212.34375 122.652344 C 219.40625 129.449219 229.105469 132.757812 238.867188 131.898438 C 242.519531 131.582031 246.230469 131.414062 249.988281 131.414062 C 303.859375 131.414062 347.527344 165.136719 347.527344 206.738281 Z M 347.527344 206.738281 " fill-opacity="1" fill-rule="nonzero"/><path fill="#e6e6e6" d="M 142.898438 171.210938 C 132.789062 175.195312 125.90625 193.675781 126.023438 210.105469 C 126.023438 210.105469 143.902344 314.40625 143.902344 314.40625 C 143.902344 314.40625 160.796875 314.289062 160.796875 314.289062 C 155.183594 256.296875 149.695312 194.550781 142.898438 171.210938 Z M 142.898438 171.210938 " fill-opacity="1" fill-rule="nonzero"/><path stroke-linecap="round" transform="matrix(0.347222, 0, 0, 0.347222, 143.353121, 242.8097)" fill="none" stroke-linejoin="round" d="M -1.309488 -206.204455 C -30.42449 -194.729454 -50.246992 -141.505699 -49.909492 -94.188195 C -49.909492 -94.188195 1.581763 206.198083 1.581763 206.198083 C 1.581763 206.198083 50.238017 205.860583 50.238017 205.860583 C 34.071766 38.854317 18.265514 -138.985699 -1.309488 -206.204455 Z M -1.309488 -206.204455 " stroke="#231f1f" stroke-width="2" stroke-opacity="1" stroke-miterlimit="4"/><path stroke-linecap="round" transform="matrix(0.347222, 0, 0, 0.347222, 96.054505, 216.607265)" fill-opacity="1" fill="#e6e6e6" fill-rule="nonzero" stroke-linejoin="round" d="M 135.923039 -130.741435 C 110.486787 -146.367687 85.590535 -159.980188 61.763033 -169.587689 C 61.763033 -169.587689 -50.106978 -178.70019 -50.106978 -178.70019 C -79.784481 -167.427689 -108.606983 -153.725187 -135.921986 -135.668936 C -135.921986 -135.668936 -78.715731 168.058592 -78.715731 168.058592 C -3.655724 178.048593 56.441782 178.701093 94.410536 165.527342 C 94.410536 165.527342 135.923039 -130.741435 135.923039 -130.741435 Z M 135.923039 -130.741435 " stroke="#231f1f" stroke-width="2" stroke-opacity="1" stroke-miterlimit="4"/><path stroke-linecap="butt" transform="matrix(0.347222, 0, 0, 0.347222, 96.681927, 151.252051)" fill-opacity="1" fill="#ffffff" fill-rule="nonzero" stroke-linejoin="miter" d="M -37.682703 -57.482162 C -37.682703 -57.482162 -34.082703 -5.540907 -34.082703 -5.540907 C -34.082703 -5.540907 17.554802 57.481599 17.554802 57.481599 C 17.554802 57.481599 37.681054 19.895345 37.681054 19.895345 C 37.681054 19.895345 37.681054 -30.212159 37.681054 -30.212159 C 37.681054 -30.212159 -37.682703 -57.482162 -37.682703 -57.482162 Z M -37.682703 -57.482162 " stroke="#231f1f" stroke-width="2" stroke-opacity="1" stroke-miterlimit="10"/><path stroke-linecap="round" transform="matrix(0.347222, 0, 0, 0.347222, 96.681927, 141.787123)" fill-opacity="1" fill="#231f1f" fill-rule="nonzero" stroke-linejoin="round" d="M 36.117304 2.998085 C 36.117304 2.998085 36.117304 20.761836 36.117304 20.761836 C -2.4477 21.504336 -21.673952 5.045585 -36.118953 -21.504418 C -11.683951 -4.190666 10.647301 3.403085 36.117304 2.998085 Z M 36.117304 2.998085 " stroke="#231f1f" stroke-width="2" stroke-opacity="1" stroke-miterlimit="4"/><path stroke-linecap="round" transform="matrix(0.347222, 0, 0, 0.347222, 88.167011, 159.655538)" fill-opacity="1" fill="#e6e6e6" fill-rule="nonzero" stroke-linejoin="round" d="M 42.077763 33.279555 C 42.077763 33.279555 15.381511 18.474554 15.381511 18.474554 C 15.381511 18.474554 0.441509 39.737056 0.441509 39.737056 C 0.441509 39.737056 -42.083495 -17.21045 -42.083495 -17.21045 C -42.083495 -17.21045 -21.068493 -39.732952 -21.068493 -39.732952 C -21.068493 -39.732952 -10.245992 -39.732952 -10.245992 -39.732952 C -10.245992 -39.732952 -9.559742 -29.742951 -9.559742 -29.742951 C -9.559742 -29.742951 42.077763 33.279555 42.077763 33.279555 Z M 42.077763 33.279555 " stroke="#231f1f" stroke-width="2" stroke-opacity="1" stroke-miterlimit="4"/><path stroke-linecap="round" transform="matrix(0.347222, 0, 0, 0.347222, 110.138186, 163.082963)" fill-opacity="1" fill="#e6e6e6" fill-rule="nonzero" stroke-linejoin="round" d="M -21.199228 23.408569 C -21.199228 23.408569 -2.636726 11.641068 -2.636726 11.641068 C -2.636726 11.641068 17.905776 32.39732 17.905776 32.39732 C 17.905776 32.39732 21.202026 -15.437685 21.202026 -15.437685 C 21.202026 -15.437685 -1.072976 -32.402686 -1.072976 -32.402686 C -1.072976 -32.402686 -1.072976 -14.177684 -1.072976 -14.177684 C -1.072976 -14.177684 -21.199228 23.408569 -21.199228 23.408569 Z M -21.199228 23.408569 " stroke="#231f1f" stroke-width="2" stroke-opacity="1" stroke-miterlimit="4"/><path stroke-linecap="round" transform="matrix(0.347222, 0, 0, 0.347222, 101.56146, 173.651019)" fill-opacity="1" fill="#2e99ff" fill-rule="nonzero" stroke-linejoin="round" d="M 17.519246 -15.914936 C 19.094246 -1.852435 17.552996 10.005066 12.805496 19.556317 C 12.805496 19.556317 -9.593256 19.556317 -9.593256 19.556317 C -16.062007 9.622566 -18.424507 -4.169935 -19.088257 -19.548687 C -19.088257 -19.548687 3.501745 -7.027435 3.501745 -7.027435 C 3.501745 -7.027435 17.519246 -15.914936 17.519246 -15.914936 Z M 17.519246 -15.914936 " stroke="#231f1f" stroke-width="2" stroke-opacity="1" stroke-miterlimit="4"/><path stroke-linecap="round" transform="matrix(0.347222, 0, 0, 0.347222, 102.909718, 225.058636)" fill-opacity="1" fill="#2e99ff" fill-rule="nonzero" stroke-linejoin="round" d="M 8.922514 -128.497635 C 8.922514 -128.497635 25.820015 -22.950125 25.820015 -22.950125 C 21.151265 24.479879 12.106264 75.948634 1.902513 128.497389 C -9.729988 80.606135 -20.338739 30.59988 -25.817489 -30.172626 C -25.817489 -30.172626 -13.476238 -128.497635 -13.476238 -128.497635 C -13.476238 -128.497635 8.922514 -128.497635 8.922514 -128.497635 Z M 8.922514 -128.497635 " stroke="#231f1f" stroke-width="2" stroke-opacity="1" stroke-miterlimit="4"/><path stroke-linecap="round" transform="matrix(0.347222, 0, 0, 0.347222, 98.471518, 282.143389)" fill-opacity="1" fill="#231f1f" fill-rule="nonzero" stroke-linejoin="round" d="M 87.449536 -23.216712 C 87.449536 -23.216712 87.449536 7.034541 87.449536 7.034541 C 34.293281 23.212043 -24.645474 21.220793 -87.45423 7.034541 C -87.45423 7.034541 -85.67673 -20.685461 -85.67673 -20.685461 C -18.469224 -10.43671 40.255782 -10.08796 87.449536 -23.216712 Z M 87.449536 -23.216712 " stroke="#231f1f" stroke-width="2" stroke-opacity="1" stroke-miterlimit="4"/><path stroke-linecap="round" transform="matrix(0.347222, 0, 0, 0.347222, 98.031927, 303.897196)" fill-opacity="1" fill="#231f1f" fill-rule="nonzero" stroke-linejoin="round" d="M 88.715559 -55.61643 C 88.715559 -55.61643 97.56931 55.623581 97.56931 55.623581 C 97.56931 55.623581 -97.573208 55.623581 -97.573208 55.623581 C -97.573208 55.623581 -86.188207 -55.61643 -86.188207 -55.61643 C -86.188207 -55.61643 88.715559 -55.61643 88.715559 -55.61643 Z M 88.715559 -55.61643 " stroke="#231f1f" stroke-width="2" stroke-opacity="1" stroke-miterlimit="4"/><path stroke-linecap="round" transform="matrix(0.347222, 0, 0, 0.347222, 41.584375, 223.856923)" fill-opacity="1" fill="#e6e6e6" fill-rule="nonzero" stroke-linejoin="round" d="M 58.200757 -23.04419 C 58.200757 -23.04419 13.684503 115.668323 13.684503 115.668323 C -0.175499 156.033327 -65.740505 133.522074 -51.891754 93.157071 C -30.370502 -0.060438 -5.564249 -82.050446 21.593253 -156.030452 C 52.924506 -128.46795 65.749507 -84.682946 58.200757 -23.04419 Z M 58.200757 -23.04419 " stroke="#231f1f" stroke-width="2" stroke-opacity="1" stroke-miterlimit="4"/><path fill="#231f1f" d="M 83.855469 132.8125 C 83.855469 132.8125 85.15625 135.589844 85.15625 135.589844 C 85.15625 135.589844 94.097656 141.753906 94.097656 141.753906 C 94.097656 141.753906 109.808594 144.703125 109.808594 144.703125 C 109.808594 144.703125 109.984375 137.414062 109.984375 137.414062 C 109.984375 137.414062 83.855469 132.8125 83.855469 132.8125 Z M 83.855469 132.8125 " fill-opacity="1" fill-rule="nonzero"/><path stroke-linecap="round" transform="matrix(0.347222, 0, 0, 0.347222, 127.051388, 97.71457)" fill-opacity="1" fill="#231f1f" fill-rule="nonzero" stroke-linejoin="round" d="M 6.883253 -30.576716 C 13.307003 -10.461714 9.189503 9.945788 -3.365498 30.57829 C -3.365498 30.57829 -13.310499 -27.449215 -13.310499 -27.449215 C -13.310499 -27.449215 6.883253 -30.576716 6.883253 -30.576716 Z M 6.883253 -30.576716 " stroke="#231f1f" stroke-width="2" stroke-opacity="1" stroke-miterlimit="4"/><path stroke-linecap="butt" transform="matrix(0.347222, 0, 0, 0.347222, 104.18958, 109.819087)" fill-opacity="1" fill="#ffffff" fill-rule="nonzero" stroke-linejoin="miter" d="M -62.533496 -13.395222 C -62.533496 -13.395222 -61.959746 24.382281 -61.959746 24.382281 C -61.959746 24.382281 -58.742246 69.753535 -58.742246 69.753535 C -28.738493 90.824787 2.98651 101.478538 37.850263 93.266038 C 45.320264 91.511037 51.316514 85.953537 53.667764 78.652286 C 64.017765 46.466033 65.187765 1.871029 57.436515 -54.783976 C 30.672762 -101.482731 -28.558493 -98.63648 -65.188497 -60.093977 C -65.188497 -60.093977 -62.533496 -13.395222 -62.533496 -13.395222 Z M -62.533496 -13.395222 " stroke="#231f1f" stroke-width="2" stroke-opacity="1" stroke-miterlimit="10"/><path stroke-linecap="butt" transform="matrix(0.347222, 0, 0, 0.347222, 77.781254, 109.869778)" fill-opacity="1" fill="#ffffff" fill-rule="nonzero" stroke-linejoin="miter" d="M 13.52249 -13.541211 C 6.18749 -25.691212 -14.197512 -17.714961 -7.987512 2.658791 C -1.383761 19.680042 6.28874 24.056293 14.19749 25.698793 C 14.19749 25.698793 13.52249 -13.541211 13.52249 -13.541211 Z M 13.52249 -13.541211 " stroke="#231f1f" stroke-width="2" stroke-opacity="1" stroke-miterlimit="10"/><path stroke-linecap="round" transform="matrix(0.347222, 0, 0, 0.347222, 82.240972, 95.589229)" fill-opacity="1" fill="#231f1f" fill-rule="nonzero" stroke-linejoin="round" d="M 17.936003 -35.323233 C 32.741004 -12.48573 20.804753 32.514274 1.353501 44.304275 C 1.353501 44.304275 0.678501 27.586773 0.678501 27.586773 C -4.248999 22.456773 -9.559 19.374272 -16.354001 24.279273 C -30.844002 -3.60948 -32.745252 -26.851982 -18.941501 -44.300733 C -18.941501 -44.300733 17.936003 -35.323233 17.936003 -35.323233 Z M 17.936003 -35.323233 " stroke="#231f1f" stroke-width="2" stroke-opacity="1" stroke-miterlimit="4"/><path stroke-linecap="round" transform="matrix(0.347222, 0, 0, 0.347222, 105.875688, 77.745823)" fill-opacity="1" fill="#231f1f" fill-rule="nonzero" stroke-linejoin="round" d="M 64.730525 -37.202973 C 87.005527 -3.68922 75.485526 21.960782 53.581774 45.180784 C 35.041772 25.358282 2.259269 22.905782 -43.494485 36.259533 C -43.494485 36.259533 -87.009489 7.088281 -87.009489 7.088281 C -83.150739 -32.275473 -39.669485 -45.179224 -6.211982 -25.626722 C 29.923021 -10.596721 54.065524 -13.724221 64.730525 -37.202973 Z M 64.730525 -37.202973 " stroke="#231f1f" stroke-width="2" stroke-opacity="1" stroke-miterlimit="4"/><path stroke-linecap="round" transform="matrix(0.347222, 0, 0, 0.347222, 116.026389, 113.789918)" fill="none" stroke-linejoin="round" d="M -2.8435 -28.633717 C -1.831 -7.517465 2.7365 10.392537 10.825251 25.096288 C 3.029 27.886288 -4.1485 28.628788 -10.819751 27.751288 " stroke="#231f1f" stroke-width="2" stroke-opacity="1" stroke-miterlimit="4"/><path stroke-linecap="round" transform="matrix(0.347222, 0, 0, 0.347222, 101.173959, 103.382631)" fill="none" stroke-linejoin="round" d="M 10.44525 -3.666977 C 1.197749 -5.061977 -5.754751 -2.148227 -10.446002 5.063024 " stroke="#231f1f" stroke-width="2" stroke-opacity="1" stroke-miterlimit="4"/><path stroke-linecap="round" transform="matrix(0.347222, 0, 0, 0.347222, 120.893397, 102.969785)" fill="none" stroke-linejoin="round" d="M 8.260769 2.809519 C 4.064518 -0.824232 -1.031732 -2.804232 -8.254233 -0.857982 " stroke="#231f1f" stroke-width="2" stroke-opacity="1" stroke-miterlimit="4"/><path stroke-linecap="round" transform="matrix(0.347222, 0, 0, 0.347222, 103.32708, 110.329848)" fill-opacity="1" fill="#231f1f" fill-rule="nonzero" stroke-linejoin="round" d="M -4.238241 -0.00496211 C -4.238241 4.652538 -2.336991 8.421289 0.00300927 8.421289 C 2.343009 8.421289 4.24426 4.652538 4.24426 -0.00496211 C 4.24426 -4.651213 2.343009 -8.419963 0.00300927 -8.419963 C -2.336991 -8.419963 -4.238241 -4.651213 -4.238241 -0.00496211 Z M -4.238241 -0.00496211 " stroke="#231f1f" stroke-width="2" stroke-opacity="1" stroke-miterlimit="4"/><path stroke-linecap="round" transform="matrix(0.347222, 0, 0, 0.347222, 120.893397, 108.596177)" fill-opacity="1" fill="#231f1f" fill-rule="nonzero" stroke-linejoin="round" d="M -3.349232 0.00426062 C -3.349232 3.773011 -1.852982 6.844261 0.0032679 6.844261 C 1.848268 6.844261 3.355768 3.773011 3.355768 0.00426062 C 3.355768 -3.77574 1.848268 -6.83574 0.0032679 -6.83574 C -1.852982 -6.83574 -3.349232 -3.77574 -3.349232 0.00426062 Z M -3.349232 0.00426062 " stroke="#231f1f" stroke-width="2" stroke-opacity="1" stroke-miterlimit="4"/><path stroke-linecap="round" transform="matrix(0.347222, 0, 0, 0.347222, 105.019099, 130.082291)" fill="none" stroke-linejoin="round" d="M 15.379996 7.593004 C 3.612495 5.050503 -6.996256 0.573003 -15.377507 -7.594498 " stroke="#231f1f" stroke-width="2" stroke-opacity="1" stroke-miterlimit="4"/><path stroke-linecap="round" transform="matrix(0.347222, 0.000165121, -0.000165121, 0.347222, 263.15193, 144.542539)" fill-opacity="1" fill="#231f1f" fill-rule="nonzero" stroke-linejoin="round" d="M 24.522523 -102.351701 C -29.000529 -140.283757 -96.740699 -77.521528 -87.16999 -12.951063 C -101.103304 22.144322 -94.628155 59.255002 -77.847523 97.373282 C -31.935576 122.472705 74.059167 140.276053 101.098013 56.349424 C 95.304865 10.305917 89.332488 -34.117504 81.714033 -62.407638 C 75.513078 -90.698446 53.447146 -100.531705 24.522523 -102.351701 Z M 24.522523 -102.351701 " stroke="#231f1f" stroke-width="2" stroke-opacity="1" stroke-miterlimit="4"/><path stroke-linecap="round" transform="matrix(0.347222, 0.000165121, -0.000165121, 0.347222, 263.15193, 144.542539)" fill-opacity="1" fill="#231f1f" fill-rule="nonzero" stroke-linejoin="round" d="M 24.522523 -102.351701 C -29.000529 -140.283757 -96.740699 -77.521528 -87.16999 -12.951063 C -101.103304 22.144322 -94.628155 59.255002 -77.847523 97.373282 C -31.935576 122.472705 74.059167 140.276053 101.098013 56.349424 C 95.304865 10.305917 89.332488 -34.117504 81.714033 -62.407638 C 75.513078 -90.698446 53.447146 -100.531705 24.522523 -102.351701 Z M 24.522523 -102.351701 " stroke="#231f1f" stroke-width="2" stroke-opacity="1" stroke-miterlimit="4"/><path stroke-linecap="butt" transform="matrix(0.347222, 0, 0, 0.347222, 225.747558, 251.170121)" fill-opacity="1" fill="#e6e6e6" fill-rule="nonzero" stroke-linejoin="miter" d="M 4.709532 51.170056 C -6.360469 85.212559 -44.419223 72.848808 -33.360472 38.795055 C -33.360472 38.795055 3.989532 -85.213707 3.989532 -85.213707 C 3.989532 -85.213707 44.422036 -55.828704 44.422036 -55.828704 C 44.422036 -55.828704 4.709532 51.170056 4.709532 51.170056 Z M 4.709532 51.170056 " stroke="#231f1f" stroke-width="2" stroke-opacity="1" stroke-miterlimit="10"/><path stroke-linecap="round" transform="matrix(0.347222, 0, 0, 0.347222, 234.181924, 215.515942)" fill-opacity="1" fill="#2e99ff" fill-rule="nonzero" stroke-linejoin="round" d="M 12.728561 -64.002168 C -10.007691 -40.545916 -27.377692 -7.785913 -40.450193 32.37659 C -40.450193 32.37659 20.333562 64.000343 20.333562 64.000343 C 20.333562 64.000343 33.574813 14.511589 33.574813 14.511589 C 40.448564 -25.257165 38.873564 -56.700918 12.728561 -64.002168 Z M 12.728561 -64.002168 " stroke="#231f1f" stroke-width="2" stroke-opacity="1" stroke-miterlimit="4"/><path fill="#231f1f" d="M 244.332031 272.296875 C 244.332031 272.296875 290.222656 271.394531 290.222656 271.394531 C 301.5625 309.546875 294.097656 319.617188 294.019531 327.792969 C 276.53125 332.636719 258.914062 332.5 241.347656 326.929688 C 229.949219 297.222656 240.800781 283.160156 244.332031 272.296875 Z M 244.332031 272.296875 " fill-opacity="1" fill-rule="nonzero"/><path stroke-linecap="round" transform="matrix(0.347222, 0, 0, 0.347222, 267.67774, 337.389206)" fill="none" stroke-linejoin="round" d="M -67.235647 -187.46593 C -67.235647 -187.46593 64.929366 -190.06468 64.929366 -190.06468 C 102.088119 -67.180919 71.083116 -49.180917 75.616867 -26.883415 C 25.250612 -12.933414 -25.239393 -14.080914 -75.830647 -30.123416 C -90.410649 -66.685919 -103.91065 -98.185922 -67.235647 -187.46593 Z M -67.235647 -187.46593 " stroke="#231f1f" stroke-width="2" stroke-opacity="1" stroke-miterlimit="4"/><path stroke-linecap="round" transform="matrix(0.347222, 0, 0, 0.347222, 269.793035, 230.702402)" fill-opacity="1" fill="#2e99ff" fill-rule="nonzero" stroke-linejoin="round" d="M -89.921449 -107.401677 C -71.527697 -118.572928 -52.368945 -125.919178 -32.017693 -127.201679 C -32.017693 -127.201679 -15.108942 -110.619177 -15.108942 -110.619177 C -15.108942 -110.619177 28.709812 -138.33918 28.709812 -138.33918 C 28.709812 -138.33918 101.699819 -107.401677 101.699819 -107.401677 C 76.691067 -32.02667 62.009816 42.853337 58.837315 117.193344 C 14.771061 138.343346 -29.283943 137.252096 -73.327697 119.792094 C -69.378947 77.36834 -67.927696 39.804587 -76.185197 21.230835 C -98.696449 4.940834 -101.7002 -26.120419 -84.937698 -72.144173 C -84.183948 -81.594174 -86.501448 -93.980425 -89.921449 -107.401677 Z M -89.921449 -107.401677 " stroke="#231f1f" stroke-width="2" stroke-opacity="1" stroke-miterlimit="4"/><path stroke-linecap="round" transform="matrix(0.347222, 0, 0, 0.347222, 269.219783, 175.410399)" fill-opacity="1" fill="#e6e6e6" fill-rule="nonzero" stroke-linejoin="round" d="M -30.355477 -19.193201 C -30.355477 -19.193201 -30.355477 32.039304 -30.355477 32.039304 C -30.355477 32.039304 -13.457976 48.621806 -13.457976 48.621806 C -13.457976 48.621806 30.360778 20.901803 30.360778 20.901803 C 30.360778 20.901803 29.944528 -48.623203 29.944528 -48.623203 C 29.944528 -48.623203 -30.355477 -19.193201 -30.355477 -19.193201 Z M -30.355477 -19.193201 " stroke="#231f1f" stroke-width="2" stroke-opacity="1" stroke-miterlimit="4"/><path stroke-linecap="round" transform="matrix(0.347222, 0, 0, 0.347222, 268.95274, 168.260747)" fill-opacity="1" fill="#231f1f" fill-rule="nonzero" stroke-linejoin="round" d="M -29.586393 5.61655 C -29.586393 5.61655 -29.586393 22.930302 -29.586393 22.930302 C -4.566391 23.346552 18.304862 4.9528 29.588613 -23.340952 C 12.488611 -7.883451 -10.393891 4.7278 -29.586393 5.61655 Z M -29.586393 5.61655 " stroke="#231f1f" stroke-width="2" stroke-opacity="1" stroke-miterlimit="4"/><path stroke-linecap="round" transform="matrix(0.347222, 0, 0, 0.347222, 256.899626, 160.940262)" fill="none" stroke-linejoin="round" d="M -13.807174 -0.784205 C -2.703423 6.348295 6.510328 4.492045 13.811578 -6.352956 " stroke="#231f1f" stroke-width="2" stroke-opacity="1" stroke-miterlimit="4"/><path stroke-linecap="round" transform="matrix(0.347222, 0, 0, 0.347222, 269.219783, 175.410399)" fill-opacity="1" fill="#e6e6e6" fill-rule="nonzero" stroke-linejoin="round" d="M -30.355477 -19.193201 C -30.355477 -19.193201 -30.355477 32.039304 -30.355477 32.039304 C -30.355477 32.039304 -13.457976 48.621806 -13.457976 48.621806 C -13.457976 48.621806 30.360778 20.901803 30.360778 20.901803 C 30.360778 20.901803 29.944528 -48.623203 29.944528 -48.623203 C 29.944528 -48.623203 -30.355477 -19.193201 -30.355477 -19.193201 Z M -30.355477 -19.193201 " stroke="#231f1f" stroke-width="2" stroke-opacity="1" stroke-miterlimit="4"/><path stroke-linecap="round" transform="matrix(0.347222, 0, 0, 0.347222, 268.95274, 168.260747)" fill-opacity="1" fill="#231f1f" fill-rule="nonzero" stroke-linejoin="round" d="M -29.586393 5.61655 C -29.586393 5.61655 -29.586393 22.930302 -29.586393 22.930302 C -4.566391 23.346552 18.304862 4.9528 29.588613 -23.340952 C 12.488611 -7.883451 -10.393891 4.7278 -29.586393 5.61655 Z M -29.586393 5.61655 " stroke="#231f1f" stroke-width="2" stroke-opacity="1" stroke-miterlimit="4"/><path stroke-linecap="round" transform="matrix(0.347222, 0, 0, 0.347222, 258.13402, 190.025335)" fill-opacity="1" fill="#2e99ff" fill-rule="nonzero" stroke-linejoin="round" d="M 1.560272 -17.352966 C -14.07723 -10.906715 -18.47598 -3.560464 -15.11223 4.730786 C -13.05348 9.804537 -8.699729 13.562037 -3.580979 14.968287 C 5.059022 17.353288 12.112773 13.348287 18.469023 6.530787 C 18.469023 6.530787 1.560272 -10.051715 1.560272 -10.051715 C 1.560272 -10.051715 1.560272 -17.352966 1.560272 -17.352966 Z M 1.560272 -17.352966 " stroke="#231f1f" stroke-width="2" stroke-opacity="1" stroke-miterlimit="4"/><path stroke-linecap="round" transform="matrix(0.347222, 0, 0, 0.347222, 275.148238, 189.34859)" fill-opacity="1" fill="#2e99ff" fill-rule="nonzero" stroke-linejoin="round" d="M -30.53193 8.479812 C -30.53193 8.479812 13.286825 -19.240191 13.286825 -19.240191 C 13.286825 -19.240191 13.286825 -24.876441 13.286825 -24.876441 C 30.533076 -10.56644 29.948076 3.091061 12.510574 16.152312 C -7.390677 24.871063 -20.823179 20.438563 -30.53193 8.479812 Z M -30.53193 8.479812 " stroke="#231f1f" stroke-width="2" stroke-opacity="1" stroke-miterlimit="4"/><path stroke-linecap="round" transform="matrix(0.347222, 0, 0, 0.347222, 261.681227, 239.407631)" fill="none" stroke-linejoin="round" d="M -42.788189 -3.333977 C -30.806938 0.693524 -17.914436 -2.523977 -5.719435 -5.707727 C -3.570685 -6.258977 -1.365685 -6.821477 0.828065 -6.540227 C 3.910566 -6.146477 6.588066 -4.155227 9.299316 -2.501477 C 19.435567 3.641024 31.281818 5.294774 42.790569 6.824774 " stroke="#231f1f" stroke-width="2" stroke-opacity="1" stroke-miterlimit="4"/><path stroke-linecap="butt" transform="matrix(0.347222, 0, 0, 0.347222, 306.18435, 252.752064)" fill-opacity="1" fill="#e6e6e6" fill-rule="nonzero" stroke-linejoin="miter" d="M -12.714679 49.12281 C -8.304679 84.650313 31.407825 79.722812 27.009075 44.195309 C 27.009075 44.195309 13.869073 -84.650953 13.869073 -84.650953 C 13.869073 -84.650953 -31.412181 -63.467201 -31.412181 -63.467201 C -31.412181 -63.467201 -12.714679 49.12281 -12.714679 49.12281 Z M -12.714679 49.12281 " stroke="#231f1f" stroke-width="2" stroke-opacity="1" stroke-miterlimit="10"/><path stroke-linecap="round" transform="matrix(0.347222, 0, 0, 0.347222, 304.856204, 214.977408)" fill-opacity="1" fill="#2e99ff" fill-rule="nonzero" stroke-linejoin="round" d="M 0.717881 -62.113692 C 18.594133 -34.776189 29.427884 0.683814 34.647884 42.601318 C 34.647884 42.601318 -31.029622 62.12007 -31.029622 62.12007 C -31.029622 62.12007 -34.652122 11.011315 -34.652122 11.011315 C -33.853372 -29.331189 -26.327121 -59.908691 0.717881 -62.113692 Z M 0.717881 -62.113692 " stroke="#231f1f" stroke-width="2" stroke-opacity="1" stroke-miterlimit="4"/><path fill="#231f1f" d="M 279.6875 156.769531 C 279.6875 156.769531 258.507812 163.890625 258.507812 163.890625 C 258.507812 163.890625 258.941406 170.3125 258.941406 170.3125 C 258.941406 170.3125 258.074219 173.523438 258.941406 173.003906 C 259.808594 172.484375 275 165.972656 278.472656 161.890625 C 281.945312 157.8125 279.6875 156.769531 279.6875 156.769531 Z M 279.6875 156.769531 " fill-opacity="1" fill-rule="nonzero"/><path stroke-linecap="round" transform="matrix(0.347222, 0.000165121, -0.000165121, 0.347222, 256.86611, 144.641635)" fill-opacity="1" fill="#e6e6e6" fill-rule="nonzero" stroke-linejoin="round" d="M -50.010223 -38.510387 C -67.86574 76.068133 7.881433 101.625868 65.363909 43.717268 C 65.363909 43.717268 67.870057 -9.068938 67.870057 -9.068938 C 67.870057 -9.068938 67.864594 -44.213944 67.864594 -44.213944 C 44.763538 -101.622973 -37.152395 -87.769014 -50.010223 -38.510387 Z M -50.010223 -38.510387 " stroke="#231f1f" stroke-width="2" stroke-opacity="1" stroke-miterlimit="4"/><path stroke-linecap="round" transform="matrix(0.347222, 0.000165121, -0.000165121, 0.347222, 284.245563, 146.232778)" fill-opacity="1" fill="#e6e6e6" fill-rule="nonzero" stroke-linejoin="round" d="M -10.984947 -13.613929 C 2.70228 -22.08044 10.701715 -20.644244 12.181548 -7.853694 C 12.644718 -3.815164 12.219166 0.28004 11.208528 4.195521 C 6.817925 21.331364 -2.676722 22.078379 -12.64458 21.329369 C -12.64458 21.329369 -10.984947 -13.613929 -10.984947 -13.613929 Z M -10.984947 -13.613929 " stroke="#231f1f" stroke-width="2" stroke-opacity="1" stroke-miterlimit="4"/><path stroke-linecap="round" transform="matrix(0.347222, 0.000165121, -0.000165121, 0.347222, 251.842927, 145.215283)" fill="none" stroke-linejoin="round" d="M 1.791295 -23.289624 C 0.529648 -3.095268 -2.580091 10.597464 -7.143493 19.217136 C -4.363015 22.849565 1.070944 23.285731 7.145778 22.934092 " stroke="#231f1f" stroke-width="2" stroke-opacity="1" stroke-miterlimit="4"/><path stroke-linecap="round" transform="matrix(0.347222, 0.000165121, -0.000165121, 0.347222, 264.275174, 135.836828)" fill="none" stroke-linejoin="round" d="M -11.143898 -2.933516 C -1.919283 -3.747903 5.158316 -0.916268 11.145531 3.738386 " stroke="#231f1f" stroke-width="2" stroke-opacity="1" stroke-miterlimit="4"/><path stroke-linecap="round" transform="matrix(0.347222, 0.000165121, -0.000165121, 0.347222, 246.483212, 135.688424)" fill="none" stroke-linejoin="round" d="M -8.309047 2.847541 C -2.76483 -1.430096 2.769496 -2.850229 8.305176 -1.424111 " stroke="#231f1f" stroke-width="2" stroke-opacity="1" stroke-miterlimit="4"/><path stroke-linecap="round" transform="matrix(0.347222, 0.000165121, -0.000165121, 0.347222, 262.158239, 143.730958)" fill-opacity="1" fill="#231f1f" fill-rule="nonzero" stroke-linejoin="round" d="M 3.57177 -0.00310691 C 3.573659 3.968143 1.977683 7.175153 -0.00231655 7.176095 C -1.971067 7.177031 -3.570097 3.96029 -3.57198 0.000290299 C -3.573863 -3.95971 -1.977893 -7.17797 0.00210693 -7.178911 C 1.970857 -7.179847 3.569887 -3.963107 3.57177 -0.00310691 Z M 3.57177 -0.00310691 " stroke="#231f1f" stroke-width="2" stroke-opacity="1" stroke-miterlimit="4"/><path stroke-linecap="round" transform="matrix(0.347222, 0.000165121, -0.000165121, 0.347222, 264.017097, 141.838087)" fill-opacity="1" fill="#231f1f" fill-rule="nonzero" stroke-linejoin="round" d="M -5.34881 -1.724899 C -1.253719 -1.535596 2.278433 -2.268526 5.348977 -3.754987 C 4.574268 -0.514617 1.661598 1.759268 -1.881205 3.752204 C -1.881205 3.752204 -5.34881 -1.724899 -5.34881 -1.724899 Z M -5.34881 -1.724899 " stroke="#231f1f" stroke-width="2" stroke-opacity="1" stroke-miterlimit="4"/><path stroke-linecap="round" transform="matrix(0.347222, 0.000165121, -0.000165121, 0.347222, 246.526013, 143.586715)" fill-opacity="1" fill="#231f1f" fill-rule="nonzero" stroke-linejoin="round" d="M -3.573669 -0.000540813 C -3.571786 3.959459 -1.972756 7.1762 -0.00400557 7.175263 C 1.975994 7.174322 3.57197 3.967312 3.570081 -0.00393802 C 3.568198 -3.963938 1.969168 -7.180679 0.000417918 -7.179742 C -1.968332 -7.178806 -3.575552 -3.960541 -3.573669 -0.000540813 Z M -3.573669 -0.000540813 " stroke="#231f1f" stroke-width="2" stroke-opacity="1" stroke-miterlimit="4"/><path stroke-linecap="round" transform="matrix(0.347222, 0.000165121, -0.000165121, 0.347222, 244.669265, 141.692086)" fill-opacity="1" fill="#231f1f" fill-rule="nonzero" stroke-linejoin="round" d="M 5.350447 -1.725752 C 1.255538 -1.532555 -2.27731 -2.262125 -5.349266 -3.745664 C -4.571481 -0.517284 -1.65665 1.753831 1.876802 3.754651 C 1.876802 3.754651 5.350447 -1.725752 5.350447 -1.725752 Z M 5.350447 -1.725752 " stroke="#231f1f" stroke-width="2" stroke-opacity="1" stroke-miterlimit="4"/><path stroke-linecap="round" transform="matrix(0.347222, 0.000165121, -0.000165121, 0.347222, 260.100487, 124.196301)" fill-opacity="1" fill="#231f1f" fill-rule="nonzero" stroke-linejoin="round" d="M 16.657446 -14.523271 C 16.515734 18.675555 32.231022 40.301837 58.585119 54.160558 C 58.585119 54.160558 66.078708 -14.524273 66.078708 -14.524273 C -3.341407 -54.15877 -35.44834 -29.292246 -66.080325 -1.906422 C -66.080325 -1.906422 -59.297226 20.376608 -59.297226 20.376608 C -31.511127 17.415894 -5.539306 8.08854 16.657446 -14.523271 Z M 16.657446 -14.523271 " stroke="#231f1f" stroke-width="2" stroke-opacity="1" stroke-miterlimit="4"/><path stroke-linecap="round" transform="matrix(0.347222, 0.000165121, -0.000165121, 0.347222, 256.86611, 144.641635)" fill-opacity="1" fill="#e6e6e6" fill-rule="nonzero" stroke-linejoin="round" d="M -50.010223 -38.510387 C -67.86574 76.068133 7.881433 101.625868 65.363909 43.717268 C 65.363909 43.717268 67.870057 -9.068938 67.870057 -9.068938 C 67.870057 -9.068938 67.864594 -44.213944 67.864594 -44.213944 C 44.763538 -101.622973 -37.152395 -87.769014 -50.010223 -38.510387 Z M -50.010223 -38.510387 " stroke="#231f1f" stroke-width="2" stroke-opacity="1" stroke-miterlimit="4"/><path stroke-linecap="round" transform="matrix(0.347222, 0.000165121, -0.000165121, 0.347222, 284.245563, 146.232778)" fill-opacity="1" fill="#e6e6e6" fill-rule="nonzero" stroke-linejoin="round" d="M -10.984947 -13.613929 C 2.70228 -22.08044 10.701715 -20.644244 12.181548 -7.853694 C 12.644718 -3.815164 12.219166 0.28004 11.208528 4.195521 C 6.817925 21.331364 -2.676722 22.078379 -12.64458 21.329369 C -12.64458 21.329369 -10.984947 -13.613929 -10.984947 -13.613929 Z M -10.984947 -13.613929 " stroke="#231f1f" stroke-width="2" stroke-opacity="1" stroke-miterlimit="4"/><path stroke-linecap="round" transform="matrix(0.347222, 0.000165121, -0.000165121, 0.347222, 251.842927, 145.215283)" fill="none" stroke-linejoin="round" d="M 1.791295 -23.289624 C 0.529648 -3.095268 -2.580091 10.597464 -7.143493 19.217136 C -4.363015 22.849565 1.070944 23.285731 7.145778 22.934092 " stroke="#231f1f" stroke-width="2" stroke-opacity="1" stroke-miterlimit="4"/><path stroke-linecap="round" transform="matrix(0.347222, 0.000165121, -0.000165121, 0.347222, 260.100487, 124.196301)" fill-opacity="1" fill="#231f1f" fill-rule="nonzero" stroke-linejoin="round" d="M 16.657446 -14.523271 C 16.515734 18.675555 32.231022 40.301837 58.585119 54.160558 C 58.585119 54.160558 66.078708 -14.524273 66.078708 -14.524273 C -3.341407 -54.15877 -35.44834 -29.292246 -66.080325 -1.906422 C -66.080325 -1.906422 -59.297226 20.376608 -59.297226 20.376608 C -31.511127 17.415894 -5.539306 8.08854 16.657446 -14.523271 Z M 16.657446 -14.523271 " stroke="#231f1f" stroke-width="2" stroke-opacity="1" stroke-miterlimit="4"/><path stroke-linecap="round" transform="matrix(0.347222, 0.000165121, -0.000165121, 0.347222, 265.087545, 134.653174)" fill="none" stroke-linejoin="round" d="M -11.143532 -2.944594 C -1.918911 -3.747731 5.158687 -0.916096 11.145902 3.738558 " stroke="#231f1f" stroke-width="2" stroke-opacity="1" stroke-miterlimit="4"/><path stroke-linecap="round" transform="matrix(0.347222, 0.000165121, -0.000165121, 0.347222, 245.290404, 133.771544)" fill="none" stroke-linejoin="round" d="M -8.305014 2.844403 C -2.760792 -1.421984 2.773534 -2.842116 8.309209 -1.427249 " stroke="#231f1f" stroke-width="2" stroke-opacity="1" stroke-miterlimit="4"/><path stroke-linecap="round" transform="matrix(0.347222, 0.000165121, -0.000165121, 0.347222, 262.159382, 142.052129)" fill-opacity="1" fill="#231f1f" fill-rule="nonzero" stroke-linejoin="round" d="M 3.568479 -0.00557872 C 3.570368 3.965671 1.974392 7.172681 -0.00560784 7.173623 C -1.974358 7.174559 -3.573383 3.969069 -3.575271 -0.00218151 C -3.577154 -3.962182 -1.969934 -7.180447 -0.00118435 -7.181383 C 1.967566 -7.182319 3.566596 -3.965579 3.568479 -0.00557872 Z M 3.568479 -0.00557872 " stroke="#231f1f" stroke-width="2" stroke-opacity="1" stroke-miterlimit="4"/><path stroke-linecap="round" transform="matrix(0.347222, 0.000165121, -0.000165121, 0.347222, 264.017918, 140.159273)" fill-opacity="1" fill="#231f1f" fill-rule="nonzero" stroke-linejoin="round" d="M -5.351175 -1.727412 C -1.256084 -1.53811 2.276073 -2.25979 5.346617 -3.74625 C 4.571903 -0.517131 1.659233 1.756755 -1.88357 3.74969 C -1.88357 3.74969 -5.351175 -1.727412 -5.351175 -1.727412 Z M -5.351175 -1.727412 " stroke="#231f1f" stroke-width="2" stroke-opacity="1" stroke-miterlimit="4"/><path stroke-linecap="round" transform="matrix(0.347222, 0.000165121, -0.000165121, 0.347222, 246.527362, 141.450958)" fill-opacity="1" fill="#231f1f" fill-rule="nonzero" stroke-linejoin="round" d="M -3.577555 -0.00330748 C -3.575666 3.967943 -1.976641 7.173433 0.00335857 7.172491 C 1.972109 7.171555 3.568084 3.964545 3.577451 0.00453996 C 3.575562 -3.96671 1.976537 -7.172201 -0.00346794 -7.182509 C -1.972218 -7.181573 -3.568188 -3.963313 -3.577555 -0.00330748 Z M -3.577555 -0.00330748 " stroke="#231f1f" stroke-width="2" stroke-opacity="1" stroke-miterlimit="4"/><path stroke-linecap="round" transform="matrix(0.347222, 0.000165121, -0.000165121, 0.347222, 244.670276, 139.556314)" fill-opacity="1" fill="#231f1f" fill-rule="nonzero" stroke-linejoin="round" d="M 5.347536 -1.728478 C 1.263876 -1.535286 -2.280221 -2.264851 -5.352178 -3.74839 C -4.574392 -0.520009 -1.659562 1.751105 1.885141 3.75192 C 1.885141 3.75192 5.347536 -1.728478 5.347536 -1.728478 Z M 5.347536 -1.728478 " stroke="#231f1f" stroke-width="2" stroke-opacity="1" stroke-miterlimit="4"/><path stroke-linecap="round" transform="matrix(0.347222, 0.000165121, -0.000165121, 0.347222, 261.20117, 158.514174)" fill-opacity="1" fill="#231f1f" fill-rule="nonzero" stroke-linejoin="round" d="M 17.461926 -7.800378 C 18.352163 -4.673301 12.776978 5.454353 3.137028 8.192688 C -6.514172 10.931028 -16.574385 5.232061 -17.464622 2.104984 C -18.34361 -1.022099 -9.90612 -1.048612 -0.26617 -3.786947 C 9.37378 -6.525282 16.571689 -10.927456 17.461926 -7.800378 Z M 17.461926 -7.800378 " stroke="#231f1f" stroke-width="2" stroke-opacity="1" stroke-miterlimit="4"/><path stroke-linecap="round" transform="matrix(0.347222, 0, 0, 0.347222, 187.499992, 44.359336)" fill-opacity="1" fill="#ffffff" fill-rule="nonzero" stroke-linejoin="round" d="M 71.493779 -5.827389 C 71.493779 14.580113 62.943778 32.985115 49.230027 46.012616 C 39.251276 56.351367 31.286275 66.746368 30.183775 77.332619 C 30.183775 77.332619 -30.23998 77.332619 -30.23998 77.332619 C -31.39873 66.296368 -39.982481 55.485117 -50.557482 44.718866 C -50.602482 44.673866 -50.647482 44.640116 -50.692482 44.595116 C -63.551233 31.657614 -71.493734 13.837613 -71.493734 -5.827389 C -71.493734 -45.326143 -39.487481 -77.332396 0.0000225 -77.332396 C 39.487526 -77.332396 71.493779 -45.326143 71.493779 -5.827389 Z M 71.493779 -5.827389 " stroke="#231f1f" stroke-width="2" stroke-opacity="1" stroke-miterlimit="4"/><path stroke-linecap="round" transform="matrix(0.347222, 0, 0, 0.347222, 187.534019, 55.112809)" fill="none" stroke-linejoin="round" d="M -10.189227 48.995114 C -8.524227 26.742612 -8.141727 4.37761 -9.064227 -17.897392 C -9.457977 -27.313643 -10.110477 -36.898644 -13.316727 -45.617395 C -14.475477 -48.789895 -16.804227 -52.299895 -19.897978 -51.692395 C -21.866728 -51.298645 -23.295478 -49.183645 -23.531728 -47.012395 C -23.779228 -44.852395 -23.036728 -42.681144 -21.990478 -40.836144 C -19.211728 -35.908644 -14.385477 -32.758643 -9.379227 -30.823643 C -4.192976 -28.832393 1.432024 -27.966143 6.877025 -28.978643 C 12.322025 -30.002393 17.553276 -33.006144 20.984526 -37.764894 C 22.559526 -39.969894 23.774526 -42.737394 23.347026 -45.471145 C 22.919526 -48.204895 20.287026 -50.567395 17.868276 -49.656145 C 16.900776 -49.296145 16.113276 -48.486145 15.472026 -47.608645 C 13.042025 -44.289895 12.333275 -39.891144 11.849525 -35.683644 C 8.474525 -6.523641 12.277025 23.075112 9.419525 52.302614 " stroke="#231f1f" stroke-width="2" stroke-opacity="1" stroke-miterlimit="4"/><path stroke-linecap="butt" transform="matrix(0.347222, 0, 0, 0.347222, 187.393732, 72.890232)" fill-opacity="1" fill="#2e99ff" fill-rule="nonzero" stroke-linejoin="miter" d="M 31.423554 4.838632 C 31.423554 4.838632 -31.418952 4.838632 -31.418952 4.838632 C -31.418952 4.838632 -31.418952 -4.847619 -31.418952 -4.847619 C -31.418952 -4.847619 31.423554 -4.847619 31.423554 -4.847619 C 31.423554 -4.847619 31.423554 4.838632 31.423554 4.838632 Z M 31.423554 4.838632 " stroke="#231f1f" stroke-width="2" stroke-opacity="1" stroke-miterlimit="10"/><path stroke-linecap="butt" transform="matrix(0.347222, 0, 0, 0.347222, 187.393732, 79.312802)" fill-opacity="1" fill="#2e99ff" fill-rule="nonzero" stroke-linejoin="miter" d="M 31.423554 4.836631 C 31.423554 4.836631 -31.418952 4.836631 -31.418952 4.836631 C -31.418952 4.836631 -31.418952 -4.83837 -31.418952 -4.83837 C -31.418952 -4.83837 31.423554 -4.83837 31.423554 -4.83837 C 31.423554 -4.83837 31.423554 4.836631 31.423554 4.836631 Z M 31.423554 4.836631 " stroke="#231f1f" stroke-width="2" stroke-opacity="1" stroke-miterlimit="10"/><path stroke-linecap="butt" transform="matrix(0.347222, 0, 0, 0.347222, 187.393732, 76.103441)" fill-opacity="1" fill="#2e99ff" fill-rule="nonzero" stroke-linejoin="miter" d="M 33.369804 4.415841 C 33.369804 4.415841 -33.365202 4.415841 -33.365202 4.415841 C -33.365202 4.415841 -33.365202 -4.415409 -33.365202 -4.415409 C -33.365202 -4.415409 33.369804 -4.415409 33.369804 -4.415409 C 33.369804 -4.415409 33.369804 4.415841 33.369804 4.415841 Z M 33.369804 4.415841 " stroke="#231f1f" stroke-width="2" stroke-opacity="1" stroke-miterlimit="10"/><path stroke-linecap="butt" transform="matrix(0.347222, 0, 0, 0.347222, 187.393732, 82.673572)" fill-opacity="1" fill="#2e99ff" fill-rule="nonzero" stroke-linejoin="miter" d="M 27.868554 4.832613 C 27.868554 4.832613 -27.863951 4.832613 -27.863951 4.832613 C -27.863951 4.832613 -27.863951 -4.842388 -27.863951 -4.842388 C -27.863951 -4.842388 27.868554 -4.842388 27.868554 -4.842388 C 27.868554 -4.842388 27.868554 4.832613 27.868554 4.832613 Z M 27.868554 4.832613 " stroke="#231f1f" stroke-width="2" stroke-opacity="1" stroke-miterlimit="10"/><path stroke-linecap="butt" transform="matrix(0.347222, 0.0000793499, -0.0000793499, 0.347222, 105.948835, 216.683921)" fill-opacity="1" fill="#ffffff" fill-rule="nonzero" stroke-linejoin="miter" d="M -49.003838 0.269006 C -39.275606 -12.940718 -26.655743 -24.486103 -12.685701 -35.244297 C -10.784785 -36.707231 -8.557524 -37.75399 -6.172583 -38.013285 C -2.31393 -38.441667 0.330192 -36.811021 1.950959 -33.458891 C 4.337077 -28.565686 2.920932 -22.636612 -1.038215 -18.900707 C -1.038215 -18.900707 -15.086437 -5.644995 -15.086437 -5.644995 C -7.684193 -6.771687 -0.754697 -8.978271 5.825867 -11.983525 C 14.307485 -15.844214 20.887103 -22.989468 24.428881 -31.619028 C 24.462611 -31.709036 24.49634 -31.799043 24.53007 -31.889051 C 27.858224 -39.967312 39.198144 -40.318654 42.991192 -32.45577 C 43.441403 -31.533373 43.846621 -30.577215 44.218097 -29.5873 C 49.002232 -16.965892 45.889245 -2.68893 37.026571 7.494347 C 29.727241 15.899766 20.098881 23.079467 6.948846 28.403722 C 6.948846 28.403722 -33.154683 40.326638 -33.154683 40.326638 C -33.154683 40.326638 -49.003838 0.269006 -49.003838 0.269006 Z M -49.003838 0.269006 " stroke="#231f1f" stroke-width="2" stroke-opacity="1" stroke-miterlimit="10"/><path fill="#e6e6e6" d="M 41.207031 270.351562 C 29.492188 278.839844 15.367188 259.347656 27.078125 250.859375 C 27.078125 250.859375 89.644531 213.773438 89.644531 213.773438 C 89.644531 213.773438 97.851562 231.007812 97.851562 231.007812 C 97.851562 231.007812 41.207031 270.351562 41.207031 270.351562 Z M 41.207031 270.351562 " fill-opacity="1" fill-rule="nonzero"/><path stroke-linecap="butt" transform="matrix(0.347222, 0.0000793499, -0.0000793499, 0.347222, 69.529848, 242.063451)" fill="none" stroke-linejoin="miter" d="M 57.922921 -81.488484 C 57.922921 -81.488484 81.559265 -31.858881 81.559265 -31.858881 C 81.559265 -31.858881 -81.551097 81.488404 -81.551097 81.488404 " stroke="#231f1f" stroke-width="2" stroke-opacity="1" stroke-miterlimit="10"/><path stroke-linecap="round" transform="matrix(0.347222, 0.0000793499, -0.0000793499, 0.347222, 30.072194, 264.936369)" fill="none" stroke-linejoin="round" d="M -16.393468 -35.21675 C -32.067536 1.686836 -0.44737 35.215863 32.071897 15.588429 " stroke="#231f1f" stroke-width="2" stroke-opacity="1" stroke-miterlimit="4"/><path stroke-linecap="round" transform="matrix(0.347222, 0.0000793499, -0.0000793499, 0.347222, 64.689881, 228.567201)" fill="none" stroke-linejoin="round" d="M -71.862125 42.617888 C -71.862125 42.617888 71.870909 -42.622467 71.870909 -42.622467 " stroke="#231f1f" stroke-width="2" stroke-opacity="1" stroke-miterlimit="4"/><path stroke-linecap="round" transform="matrix(0.347222, 0.000042153, -0.000042153, 0.347222, 188.865314, 222.601831)" fill-opacity="1" fill="#e6e6e6" fill-rule="nonzero" stroke-linejoin="round" d="M 31.924905 26.815354 C 29.841979 13.011855 25.182758 -1.162581 19.331016 -15.505621 C 18.532031 -17.440525 17.384311 -19.251635 15.83164 -20.657697 C 13.322615 -22.918643 10.937584 -23.177103 8.654004 -21.770576 C 5.335501 -19.733923 4.064763 -15.515018 5.235216 -11.79141 C 5.235216 -11.79141 10.671071 5.544182 10.671071 5.544182 C 5.97927 1.011001 1.984909 -4.017265 -1.491991 -9.371843 C -5.981583 -16.301299 -8.007569 -24.423553 -7.43474 -32.006124 C -7.333652 -33.344886 -7.232562 -34.661148 -7.131468 -35.943661 C -6.727126 -41.36621 -12.15013 -45.516802 -17.178631 -43.457442 C -19.20353 -42.624696 -21.12713 -41.386962 -22.949433 -39.766741 C -29.248748 -34.118476 -31.925198 -25.4669 -30.630433 -17.108306 C -28.952869 -6.286009 -24.766499 4.997234 -16.338784 17.056212 C -16.338784 17.056212 7.075923 45.515872 7.075923 45.515872 " stroke="#231f1f" stroke-width="2" stroke-opacity="1" stroke-miterlimit="4"/><path fill="#e6e6e6" d="M 224.453125 265.207031 C 230.484375 272.261719 219.8125 281.386719 213.78125 274.332031 C 213.78125 274.332031 191.320312 238.40625 191.320312 238.40625 C 191.320312 238.40625 199.949219 231.917969 199.949219 231.917969 C 199.949219 231.917969 224.453125 265.207031 224.453125 265.207031 Z M 224.453125 265.207031 " fill-opacity="1" fill-rule="nonzero"/><path stroke-linecap="round" transform="matrix(0.347222, 0.000042153, -0.000042153, 0.347222, 208.489868, 243.520179)" fill="none" stroke-linejoin="round" d="M 24.603241 33.4189 C 24.603241 33.4189 -24.601129 -33.422633 -24.601129 -33.422633 " stroke="#231f1f" stroke-width="2" stroke-opacity="1" stroke-miterlimit="4"/><path stroke-linecap="round" transform="matrix(0.347222, 0.000042153, -0.000042153, 0.347222, 208.906779, 258.579271)" fill="none" stroke-linejoin="round" d="M 50.661605 36.024302 C 43.891211 53.372626 25.565533 58.099851 14.043986 45.366249 C 14.043986 45.366249 -50.65608 -58.092156 -50.65608 -58.092156 " stroke="#231f1f" stroke-width="2" stroke-opacity="1" stroke-miterlimit="4"/><path stroke-linecap="round" transform="matrix(0.347222, -0.000042153, 0.000042153, 0.347222, 348.332588, 231.789038)" fill-opacity="1" fill="#e6e6e6" fill-rule="nonzero" stroke-linejoin="round" d="M -36.29651 19.795667 C -31.637412 6.633732 -24.379578 -6.404139 -15.906753 -19.374361 C -14.75904 -21.129222 -13.285101 -22.681543 -11.496219 -23.772576 C -8.604757 -25.515975 -6.208531 -25.313184 -4.240001 -23.501695 C -1.37157 -20.868847 -0.922103 -16.481292 -2.767519 -13.050265 C -2.767519 -13.050265 -11.398211 2.934938 -11.398211 2.934938 C -5.930278 -0.630648 -1.058522 -4.792557 3.374539 -9.404519 C 9.09026 -15.343826 12.623684 -22.948398 13.5021 -30.497042 C 13.648513 -31.835774 13.806171 -33.140755 13.952575 -34.411988 C 14.583232 -39.823162 20.692352 -42.85992 25.236991 -39.889368 C 27.070595 -38.685395 28.724154 -37.110195 30.208918 -35.163764 C 35.315602 -28.435644 36.304508 -19.424273 33.446041 -11.459619 C 29.754789 -1.155066 23.498541 9.126675 12.933547 19.362894 C 12.933547 19.362894 -15.453058 42.8607 -15.453058 42.8607 " stroke="#231f1f" stroke-width="2" stroke-opacity="1" stroke-miterlimit="4"/><path fill="#e6e6e6" d="M 305.351562 266.703125 C 298.089844 272.484375 306.839844 283.464844 314.097656 277.683594 C 314.097656 277.683594 342.96875 246.671875 342.96875 246.671875 C 342.96875 246.671875 335.730469 238.664062 335.730469 238.664062 C 335.730469 238.664062 305.351562 266.703125 305.351562 266.703125 Z M 305.351562 266.703125 " fill-opacity="1" fill-rule="nonzero"/><path stroke-linecap="round" transform="matrix(0.347222, -0.000042153, 0.000042153, 0.347222, 325.139837, 248.436984)" fill="none" stroke-linejoin="round" d="M -30.4999 28.145285 C -30.4999 28.145285 30.493189 -28.142316 30.493189 -28.142316 " stroke="#231f1f" stroke-width="2" stroke-opacity="1" stroke-miterlimit="4"/><path stroke-linecap="round" transform="matrix(0.347222, -0.000042153, 0.000042153, 0.347222, 322.601117, 263.969925)" fill="none" stroke-linejoin="round" d="M -58.67031 23.378245 C -55.308783 41.693655 -38.221017 49.80698 -24.494763 39.492396 C -24.494763 39.492396 58.664836 -49.811267 58.664836 -49.811267 " stroke="#231f1f" stroke-width="2" stroke-opacity="1" stroke-miterlimit="4"/><path stroke-linecap="round" transform="matrix(0.347222, 0, 0, 0.347222, 185.80451, 308.896854)" fill-opacity="1" fill="#e6e6e6" fill-rule="nonzero" stroke-linejoin="round" d="M 513.529309 50.685815 C 513.529309 50.685815 -513.528286 50.685815 -513.528286 50.685815 C -513.528286 50.685815 -415.867027 -50.687945 -415.867027 -50.687945 C -415.867027 -50.687945 440.483052 -50.687945 440.483052 -50.687945 C 440.483052 -50.687945 513.529309 50.685815 513.529309 50.685815 Z M 513.529309 50.685815 " stroke="#231f1f" stroke-width="2" stroke-opacity="1" stroke-miterlimit="4"/><path stroke-linecap="round" transform="matrix(0.347222, 0, 0, 0.347222, 94.056591, 310.557606)" fill-opacity="1" fill="#ffffff" fill-rule="nonzero" stroke-linejoin="round" d="M -88.846741 33.797848 C -88.846741 33.797848 -32.169235 -35.749659 -32.169235 -35.749659 C -32.169235 -35.749659 88.847026 -35.749659 88.847026 -35.749659 C 88.847026 -35.749659 50.552022 35.744098 50.552022 35.744098 C 50.552022 35.744098 -88.846741 33.797848 -88.846741 33.797848 Z M -88.846741 33.797848 " stroke="#231f1f" stroke-width="2" stroke-opacity="1" stroke-miterlimit="4"/><path stroke-linecap="round" transform="matrix(0.347222, 0, 0, 0.347222, 5.758332, 289.559688)" fill="none" stroke-linejoin="round" d="M 194.218522 78.859355 C 194.218522 78.859355 292.509782 78.859355 292.509782 78.859355 " stroke="#231f1f" stroke-width="2" stroke-opacity="1" stroke-miterlimit="4"/><path stroke-linecap="round" transform="matrix(0.347222, 0, 0, 0.347222, 5.758332, 289.559688)" fill="none" stroke-linejoin="round" d="M 208.517274 63.030604 C 208.517274 63.030604 306.808533 63.030604 306.808533 63.030604 " stroke="#231f1f" stroke-width="2" stroke-opacity="1" stroke-miterlimit="4"/><path stroke-linecap="round" transform="matrix(0.347222, 0, 0, 0.347222, 5.758332, 289.559688)" fill="none" stroke-linejoin="round" d="M 199.281023 70.680605 C 199.281023 70.680605 302.871033 70.680605 302.871033 70.680605 " stroke="#231f1f" stroke-width="2" stroke-opacity="1" stroke-miterlimit="4"/><path stroke-linecap="round" transform="matrix(0.347222, 0, 0, 0.347222, 99.449638, 304.263174)" fill-opacity="1" fill="#2e99ff" fill-rule="nonzero" stroke-linejoin="round" d="M -42.728711 -9.701693 C -42.728711 -9.701693 -57.409963 9.704559 -57.409963 9.704559 C -57.409963 9.704559 44.470047 9.704559 44.470047 9.704559 C 44.470047 9.704559 57.407548 -9.701693 57.407548 -9.701693 C 57.407548 -9.701693 -42.728711 -9.701693 -42.728711 -9.701693 Z M -42.728711 -9.701693 " stroke="#231f1f" stroke-width="2" stroke-opacity="1" stroke-miterlimit="4"/><path stroke-linecap="round" transform="matrix(0.347222, 0, 0, 0.347222, 81.054162, 307.631903)" fill-opacity="1" fill="#ffffff" fill-rule="nonzero" stroke-linejoin="round" d="M -88.850996 33.797622 C -88.850996 33.797622 -32.173491 -35.749884 -32.173491 -35.749884 C -32.173491 -35.749884 88.854021 -35.749884 88.854021 -35.749884 C 88.854021 -35.749884 50.547767 35.743873 50.547767 35.743873 C 50.547767 35.743873 -88.850996 33.797622 -88.850996 33.797622 Z M -88.850996 33.797622 " stroke="#231f1f" stroke-width="2" stroke-opacity="1" stroke-miterlimit="4"/><path stroke-linecap="round" transform="matrix(0.347222, 0, 0, 0.347222, 5.758332, 289.559688)" fill="none" stroke-linejoin="round" d="M 156.767269 70.433105 C 156.767269 70.433105 255.069778 70.433105 255.069778 70.433105 " stroke="#231f1f" stroke-width="2" stroke-opacity="1" stroke-miterlimit="4"/><path stroke-linecap="round" transform="matrix(0.347222, 0, 0, 0.347222, 5.758332, 289.559688)" fill="none" stroke-linejoin="round" d="M 171.06602 54.604353 C 171.06602 54.604353 269.368529 54.604353 269.368529 54.604353 " stroke="#231f1f" stroke-width="2" stroke-opacity="1" stroke-miterlimit="4"/><path stroke-linecap="round" transform="matrix(0.347222, 0, 0, 0.347222, 5.758332, 289.559688)" fill="none" stroke-linejoin="round" d="M 161.829769 62.265604 C 161.829769 62.265604 265.431029 62.265604 265.431029 62.265604 " stroke="#231f1f" stroke-width="2" stroke-opacity="1" stroke-miterlimit="4"/><path stroke-linecap="round" transform="matrix(0.347222, 0, 0, 0.347222, 5.758332, 289.559688)" fill="none" stroke-linejoin="round" d="M 175.622271 43.883102 C 175.622271 43.883102 273.91353 43.883102 273.91353 43.883102 " stroke="#231f1f" stroke-width="2" stroke-opacity="1" stroke-miterlimit="4"/><path stroke-linecap="round" transform="matrix(0.347222, 0, 0, 0.347222, 5.758332, 289.559688)" fill="none" stroke-linejoin="round" d="M 189.921022 28.043101 C 189.921022 28.043101 288.212281 28.043101 288.212281 28.043101 " stroke="#231f1f" stroke-width="2" stroke-opacity="1" stroke-miterlimit="4"/><path stroke-linecap="round" transform="matrix(0.347222, 0, 0, 0.347222, 5.758332, 289.559688)" fill="none" stroke-linejoin="round" d="M 180.684771 35.704351 C 180.684771 35.704351 284.274781 35.704351 284.274781 35.704351 " stroke="#231f1f" stroke-width="2" stroke-opacity="1" stroke-miterlimit="4"/><path stroke-linecap="round" transform="matrix(0.347222, 0, 0, 0.347222, 230.507627, 309.094756)" fill-opacity="1" fill="#ffffff" fill-rule="nonzero" stroke-linejoin="round" d="M -252.258239 -31.536649 C -252.258239 -31.536649 245.104307 -31.536649 245.104307 -31.536649 C 245.104307 -31.536649 282.893061 31.530857 282.893061 31.530857 C 282.893061 31.530857 -282.891992 31.530857 -282.891992 31.530857 C -282.891992 31.530857 -252.258239 -31.536649 -252.258239 -31.536649 Z M -252.258239 -31.536649 " stroke="#231f1f" stroke-width="2" stroke-opacity="1" stroke-miterlimit="4"/><path fill="#ffffff" d="M 145.578125 300.894531 C 145.578125 300.894531 137.953125 316.941406 137.953125 316.941406 C 137.953125 316.941406 203.558594 316.941406 203.558594 316.941406 C 203.558594 316.941406 205.863281 300.894531 205.863281 300.894531 C 205.863281 300.894531 145.578125 300.894531 145.578125 300.894531 Z M 145.578125 300.894531 " fill-opacity="1" fill-rule="nonzero"/><path stroke-linecap="round" transform="matrix(0.347222, 0, 0, 0.347222, 146.1729, 301.835049)" fill="none" stroke-linejoin="round" d="M 4.283299 -2.708691 C 4.283299 -2.708691 -1.712951 -2.708691 -1.712951 -2.708691 C -1.712951 -2.708691 -4.289202 2.713809 -4.289202 2.713809 " stroke="#231f1f" stroke-width="2" stroke-opacity="1" stroke-miterlimit="4"/><path fill="#231f1f" d="M 143.054688 307.019531 L 141.59375 310.089844 L 141.074219 311.183594 C 141.03125 311.269531 140.96875 311.332031 140.875 311.363281 C 140.785156 311.394531 140.699219 311.390625 140.609375 311.347656 C 140.523438 311.308594 140.464844 311.242188 140.433594 311.152344 C 140.402344 311.0625 140.40625 310.972656 140.445312 310.886719 L 140.964844 309.792969 L 142.425781 306.722656 C 142.464844 306.632812 142.53125 306.574219 142.621094 306.542969 C 142.714844 306.511719 142.800781 306.515625 142.886719 306.554688 C 142.976562 306.597656 143.035156 306.664062 143.066406 306.753906 C 143.097656 306.84375 143.09375 306.933594 143.054688 307.019531 Z M 143.054688 307.019531 " fill-opacity="1" fill-rule="nonzero"/><path stroke-linecap="round" transform="matrix(0.347222, 0, 0, 0.347222, 138.996163, 315.999618)" fill="none" stroke-linejoin="round" d="M -0.427701 -2.710149 C -0.427701 -2.710149 -3.003951 2.712351 -3.003951 2.712351 C -3.003951 2.712351 3.00355 2.712351 3.00355 2.712351 " stroke="#231f1f" stroke-width="2" stroke-opacity="1" stroke-miterlimit="4"/><path fill="#231f1f" d="M 144.132812 316.59375 L 148.125 316.59375 C 148.222656 316.59375 148.304688 316.625 148.371094 316.695312 C 148.441406 316.761719 148.472656 316.84375 148.472656 316.941406 C 148.472656 317.035156 148.441406 317.117188 148.371094 317.1875 C 148.304688 317.253906 148.222656 317.289062 148.125 317.289062 L 144.132812 317.289062 C 144.039062 317.289062 143.957031 317.253906 143.886719 317.1875 C 143.820312 317.117188 143.785156 317.035156 143.785156 316.941406 C 143.785156 316.84375 143.820312 316.761719 143.886719 316.695312 C 143.957031 316.625 144.039062 316.59375 144.132812 316.59375 Z M 152.285156 316.59375 L 156.390625 316.59375 C 156.484375 316.59375 156.566406 316.625 156.636719 316.695312 C 156.703125 316.761719 156.738281 316.84375 156.738281 316.941406 C 156.738281 317.035156 156.703125 317.117188 156.636719 317.1875 C 156.566406 317.253906 156.484375 317.289062 156.390625 317.289062 L 152.285156 317.289062 C 152.191406 317.289062 152.109375 317.253906 152.039062 317.1875 C 151.972656 317.117188 151.9375 317.035156 151.9375 316.941406 C 151.9375 316.84375 151.972656 316.761719 152.039062 316.695312 C 152.109375 316.625 152.191406 316.59375 152.285156 316.59375 Z M 160.480469 316.59375 L 164.535156 316.59375 C 164.632812 316.59375 164.714844 316.625 164.78125 316.695312 C 164.847656 316.761719 164.882812 316.84375 164.882812 316.941406 C 164.882812 317.035156 164.847656 317.117188 164.78125 317.1875 C 164.714844 317.253906 164.632812 317.289062 164.535156 317.289062 L 160.480469 317.289062 C 160.386719 317.289062 160.304688 317.253906 160.234375 317.1875 C 160.167969 317.117188 160.132812 317.035156 160.132812 316.941406 C 160.132812 316.84375 160.167969 316.761719 160.234375 316.695312 C 160.304688 316.625 160.386719 316.59375 160.480469 316.59375 Z M 168.648438 316.59375 L 172.824219 316.59375 C 172.921875 316.59375 173.003906 316.625 173.070312 316.695312 C 173.140625 316.761719 173.171875 316.84375 173.171875 316.941406 C 173.171875 317.035156 173.140625 317.117188 173.070312 317.1875 C 173.003906 317.253906 172.921875 317.289062 172.824219 317.289062 L 168.648438 317.289062 C 168.554688 317.289062 168.472656 317.253906 168.402344 317.1875 C 168.335938 317.117188 168.300781 317.035156 168.300781 316.941406 C 168.300781 316.84375 168.335938 316.761719 168.402344 316.695312 C 168.472656 316.625 168.554688 316.59375 168.648438 316.59375 Z M 176.980469 316.59375 L 181.03125 316.59375 C 181.125 316.59375 181.207031 316.625 181.277344 316.695312 C 181.34375 316.761719 181.378906 316.84375 181.378906 316.941406 C 181.378906 317.035156 181.34375 317.117188 181.277344 317.1875 C 181.207031 317.253906 181.125 317.289062 181.03125 317.289062 L 176.980469 317.289062 C 176.886719 317.289062 176.804688 317.253906 176.734375 317.1875 C 176.667969 317.117188 176.632812 317.035156 176.632812 316.941406 C 176.632812 316.84375 176.667969 316.761719 176.734375 316.695312 C 176.804688 316.625 176.886719 316.59375 176.980469 316.59375 Z M 185.136719 316.59375 L 189.253906 316.59375 C 189.351562 316.59375 189.433594 316.625 189.5 316.695312 C 189.570312 316.761719 189.601562 316.84375 189.601562 316.941406 C 189.601562 317.035156 189.570312 317.117188 189.5 317.1875 C 189.433594 317.253906 189.351562 317.289062 189.253906 317.289062 L 185.136719 317.289062 C 185.042969 317.289062 184.960938 317.253906 184.890625 317.1875 C 184.824219 317.117188 184.789062 317.035156 184.789062 316.941406 C 184.789062 316.84375 184.824219 316.761719 184.890625 316.695312 C 184.960938 316.625 185.042969 316.59375 185.136719 316.59375 Z M 193.359375 316.59375 L 197.40625 316.59375 C 197.503906 316.59375 197.585938 316.625 197.652344 316.695312 C 197.71875 316.761719 197.753906 316.84375 197.753906 316.941406 C 197.753906 317.035156 197.71875 317.117188 197.652344 317.1875 C 197.585938 317.253906 197.503906 317.289062 197.40625 317.289062 L 193.359375 317.289062 C 193.265625 317.289062 193.183594 317.253906 193.113281 317.1875 C 193.046875 317.117188 193.011719 317.035156 193.011719 316.941406 C 193.011719 316.84375 193.046875 316.761719 193.113281 316.695312 C 193.183594 316.625 193.265625 316.59375 193.359375 316.59375 Z M 193.359375 316.59375 " fill-opacity="1" fill-rule="nonzero"/><path stroke-linecap="round" transform="matrix(0.347222, 0, 0, 0.347222, 202.663513, 315.909354)" fill="none" stroke-linejoin="round" d="M -3.429667 2.972312 C -3.429667 2.972312 2.577833 2.972312 2.577833 2.972312 C 2.577833 2.972312 3.421583 -2.967689 3.421583 -2.967689 " stroke="#231f1f" stroke-width="2" stroke-opacity="1" stroke-miterlimit="4"/><path fill="#231f1f" d="M 204.082031 310.855469 L 204.507812 307.875 L 204.660156 306.8125 C 204.675781 306.71875 204.71875 306.640625 204.796875 306.582031 C 204.875 306.527344 204.960938 306.503906 205.054688 306.515625 C 205.148438 306.53125 205.226562 306.578125 205.28125 306.652344 C 205.339844 306.730469 205.363281 306.816406 205.347656 306.910156 L 205.195312 307.972656 L 204.769531 310.953125 C 204.753906 311.046875 204.710938 311.125 204.632812 311.183594 C 204.554688 311.238281 204.46875 311.261719 204.375 311.246094 C 204.28125 311.234375 204.203125 311.1875 204.144531 311.113281 C 204.089844 311.035156 204.066406 310.949219 204.082031 310.855469 Z M 204.082031 310.855469 " fill-opacity="1" fill-rule="nonzero"/><path stroke-linecap="round" transform="matrix(0.347222, 0, 0, 0.347222, 204.820465, 301.925313)" fill="none" stroke-linejoin="round" d="M 2.148312 2.971349 C 2.148312 2.971349 3.003312 -2.968652 3.003312 -2.968652 C 3.003312 -2.968652 -3.004188 -2.968652 -3.004188 -2.968652 " stroke="#231f1f" stroke-width="2" stroke-opacity="1" stroke-miterlimit="4"/><path fill="#231f1f" d="M 199.460938 301.242188 L 195.183594 301.242188 C 195.085938 301.242188 195.003906 301.207031 194.9375 301.140625 C 194.871094 301.070312 194.835938 300.992188 194.835938 300.894531 C 194.835938 300.796875 194.871094 300.714844 194.9375 300.648438 C 195.003906 300.582031 195.085938 300.546875 195.183594 300.546875 L 199.460938 300.546875 C 199.558594 300.546875 199.640625 300.582031 199.707031 300.648438 C 199.777344 300.714844 199.808594 300.796875 199.808594 300.894531 C 199.808594 300.992188 199.777344 301.070312 199.707031 301.140625 C 199.640625 301.207031 199.558594 301.242188 199.460938 301.242188 Z M 190.875 301.242188 L 186.554688 301.242188 C 186.457031 301.242188 186.375 301.207031 186.308594 301.140625 C 186.242188 301.070312 186.207031 300.992188 186.207031 300.894531 C 186.207031 300.796875 186.242188 300.714844 186.308594 300.648438 C 186.375 300.582031 186.457031 300.546875 186.554688 300.546875 L 190.875 300.546875 C 190.972656 300.546875 191.054688 300.582031 191.121094 300.648438 C 191.1875 300.714844 191.222656 300.796875 191.222656 300.894531 C 191.222656 300.992188 191.1875 301.070312 191.121094 301.140625 C 191.054688 301.207031 190.972656 301.242188 190.875 301.242188 Z M 182.246094 301.242188 L 177.9375 301.242188 C 177.84375 301.242188 177.761719 301.207031 177.695312 301.140625 C 177.625 301.070312 177.589844 300.992188 177.589844 300.894531 C 177.589844 300.796875 177.625 300.714844 177.695312 300.648438 C 177.761719 300.582031 177.84375 300.546875 177.9375 300.546875 L 182.246094 300.546875 C 182.339844 300.546875 182.421875 300.582031 182.492188 300.648438 C 182.558594 300.714844 182.59375 300.796875 182.59375 300.894531 C 182.59375 300.992188 182.558594 301.070312 182.492188 301.140625 C 182.421875 301.207031 182.339844 301.242188 182.246094 301.242188 Z M 173.539062 301.242188 L 169.171875 301.242188 C 169.074219 301.242188 168.992188 301.207031 168.925781 301.140625 C 168.859375 301.070312 168.824219 300.992188 168.824219 300.894531 C 168.824219 300.796875 168.859375 300.714844 168.925781 300.648438 C 168.992188 300.582031 169.074219 300.546875 169.171875 300.546875 L 173.539062 300.546875 C 173.636719 300.546875 173.71875 300.582031 173.785156 300.648438 C 173.851562 300.714844 173.886719 300.796875 173.886719 300.894531 C 173.886719 300.992188 173.851562 301.070312 173.785156 301.140625 C 173.71875 301.207031 173.636719 301.242188 173.539062 301.242188 Z M 164.90625 301.242188 L 160.574219 301.242188 C 160.476562 301.242188 160.394531 301.207031 160.328125 301.140625 C 160.261719 301.070312 160.226562 300.992188 160.226562 300.894531 C 160.226562 300.796875 160.261719 300.714844 160.328125 300.648438 C 160.394531 300.582031 160.476562 300.546875 160.574219 300.546875 L 164.90625 300.546875 C 165.003906 300.546875 165.085938 300.582031 165.152344 300.648438 C 165.222656 300.714844 165.253906 300.796875 165.253906 300.894531 C 165.253906 300.992188 165.222656 301.070312 165.152344 301.140625 C 165.085938 301.207031 165.003906 301.242188 164.90625 301.242188 Z M 156.21875 301.242188 L 151.972656 301.242188 C 151.878906 301.242188 151.796875 301.207031 151.730469 301.140625 C 151.660156 301.070312 151.628906 300.992188 151.628906 300.894531 C 151.628906 300.796875 151.660156 300.714844 151.730469 300.648438 C 151.796875 300.582031 151.878906 300.546875 151.972656 300.546875 L 156.21875 300.546875 C 156.3125 300.546875 156.394531 300.582031 156.460938 300.648438 C 156.53125 300.714844 156.566406 300.796875 156.566406 300.894531 C 156.566406 300.992188 156.53125 301.070312 156.460938 301.140625 C 156.394531 301.207031 156.3125 301.242188 156.21875 301.242188 Z M 156.21875 301.242188 " fill-opacity="1" fill-rule="nonzero"/><path stroke-linecap="round" transform="matrix(0.347222, 0, 0, 0.347222, 5.758332, 289.559688)" fill="none" stroke-linejoin="round" d="M 591.107309 42.341852 C 591.107309 42.341852 693.234819 42.341852 693.234819 42.341852 " stroke="#231f1f" stroke-width="2" stroke-opacity="1" stroke-miterlimit="4"/><path stroke-linecap="butt" transform="matrix(0.347222, 0, 0, 0.347222, 5.758332, 289.559688)" fill="none" stroke-linejoin="miter" d="M 591.107309 53.839353 C 591.107309 53.839353 693.234819 53.839353 693.234819 53.839353 " stroke="#231f1f" stroke-width="2" stroke-opacity="1" stroke-miterlimit="10"/><path stroke-linecap="butt" transform="matrix(0.347222, 0, 0, 0.347222, 5.758332, 289.559688)" fill="none" stroke-linejoin="miter" d="M 588.047309 68.475604 C 588.047309 68.475604 697.656069 68.475604 697.656069 68.475604 " stroke="#231f1f" stroke-width="2" stroke-opacity="1" stroke-miterlimit="10"/><path stroke-linecap="round" transform="matrix(0.347222, 0, 0, 0.347222, 170.755877, 309.138877)" fill-opacity="1" fill="#ffffff" fill-rule="nonzero" stroke-linejoin="round" d="M -66.211933 -14.046218 C -66.211933 -14.046218 -77.788184 14.045035 -77.788184 14.045035 C -77.788184 14.045035 -18.579428 14.045035 -18.579428 14.045035 C -18.579428 14.045035 -15.148178 -2.548717 -15.148178 -2.548717 C -15.148178 -2.548717 75.74058 -2.548717 75.74058 -2.548717 C 75.74058 -2.548717 77.788081 -14.046218 77.788081 -14.046218 " stroke="#231f1f" stroke-width="2" stroke-opacity="1" stroke-miterlimit="4"/><path stroke-linecap="butt" transform="matrix(0.347222, 0, 0, 0.347222, 185.804846, 332.180193)" fill-opacity="1" fill="#e6e6e6" fill-rule="nonzero" stroke-linejoin="round" d="M 513.528341 16.367295 C 513.528341 16.367295 -513.529254 16.367295 -513.529254 16.367295 C -513.529254 16.367295 -513.529254 -16.370208 -513.529254 -16.370208 C -513.529254 -16.370208 513.528341 -16.370208 513.528341 -16.370208 C 513.528341 -16.370208 513.528341 16.367295 513.528341 16.367295 Z M 513.528341 16.367295 " stroke="#231f1f" stroke-width="2" stroke-opacity="1" stroke-miterlimit="4"/><path stroke-linecap="round" transform="matrix(0.347222, 0, 0, 0.347222, 290.248229, 305.327061)" fill-opacity="1" fill="#ffffff" fill-rule="nonzero" stroke-linejoin="round" d="M 88.84636 33.798068 C 88.84636 33.798068 32.168855 -35.749438 32.168855 -35.749438 C 32.168855 -35.749438 -88.847407 -35.749438 -88.847407 -35.749438 C -88.847407 -35.749438 -50.552403 35.744318 -50.552403 35.744318 C -50.552403 35.744318 88.84636 33.798068 88.84636 33.798068 Z M 88.84636 33.798068 " stroke="#231f1f" stroke-width="2" stroke-opacity="1" stroke-miterlimit="4"/><path stroke-linecap="round" transform="matrix(0.347222, 0, 0, 0.347222, 5.758332, 289.559688)" fill="none" stroke-linejoin="round" d="M 879.411086 63.795604 C 879.411086 63.795604 781.119827 63.795604 781.119827 63.795604 " stroke="#231f1f" stroke-width="2" stroke-opacity="1" stroke-miterlimit="4"/><path stroke-linecap="round" transform="matrix(0.347222, 0, 0, 0.347222, 5.758332, 289.559688)" fill="none" stroke-linejoin="round" d="M 865.123585 47.966852 C 865.123585 47.966852 766.821076 47.966852 766.821076 47.966852 " stroke="#231f1f" stroke-width="2" stroke-opacity="1" stroke-miterlimit="4"/><path stroke-linecap="round" transform="matrix(0.347222, 0, 0, 0.347222, 5.758332, 289.559688)" fill="none" stroke-linejoin="round" d="M 874.348586 55.616853 C 874.348586 55.616853 770.758576 55.616853 770.758576 55.616853 " stroke="#231f1f" stroke-width="2" stroke-opacity="1" stroke-miterlimit="4"/><path stroke-linecap="round" transform="matrix(0.347222, 0, 0, 0.347222, 284.855172, 299.032598)" fill-opacity="1" fill="#2e99ff" fill-rule="nonzero" stroke-linejoin="round" d="M 42.728358 -9.701383 C 42.728358 -9.701383 57.409609 9.704869 57.409609 9.704869 C 57.409609 9.704869 -44.4704 9.704869 -44.4704 9.704869 C -44.4704 9.704869 -57.407901 -9.701383 -57.407901 -9.701383 C -57.407901 -9.701383 42.728358 -9.701383 42.728358 -9.701383 Z M 42.728358 -9.701383 " stroke="#231f1f" stroke-width="2" stroke-opacity="1" stroke-miterlimit="4"/><path stroke-linecap="round" transform="matrix(0.347222, 0, 0, 0.347222, 321.099271, 309.094756)" fill-opacity="1" fill="#ffffff" fill-rule="nonzero" stroke-linejoin="round" d="M 88.847857 33.792107 C 88.847857 33.792107 32.170351 -35.74415 32.170351 -35.74415 C 32.170351 -35.74415 -88.84591 -35.74415 -88.84591 -35.74415 C -88.84591 -35.74415 -50.550906 35.749607 -50.550906 35.749607 C -50.550906 35.749607 88.847857 33.792107 88.847857 33.792107 Z M 88.847857 33.792107 " stroke="#231f1f" stroke-width="2" stroke-opacity="1" stroke-miterlimit="4"/><path stroke-linecap="round" transform="matrix(0.347222, 0, 0, 0.347222, 5.758332, 289.559688)" fill="none" stroke-linejoin="round" d="M 968.263594 74.640605 C 968.263594 74.640605 869.972335 74.640605 869.972335 74.640605 " stroke="#231f1f" stroke-width="2" stroke-opacity="1" stroke-miterlimit="4"/><path stroke-linecap="round" transform="matrix(0.347222, 0, 0, 0.347222, 5.758332, 289.559688)" fill="none" stroke-linejoin="round" d="M 953.964843 58.811853 C 953.964843 58.811853 855.673584 58.811853 855.673584 58.811853 " stroke="#231f1f" stroke-width="2" stroke-opacity="1" stroke-miterlimit="4"/><path stroke-linecap="round" transform="matrix(0.347222, 0, 0, 0.347222, 5.758332, 289.559688)" fill="none" stroke-linejoin="round" d="M 963.201094 66.473104 C 963.201094 66.473104 859.611084 66.473104 859.611084 66.473104 " stroke="#231f1f" stroke-width="2" stroke-opacity="1" stroke-miterlimit="4"/><path stroke-linecap="round" transform="matrix(0.347222, 0, 0, 0.347222, 5.758332, 289.559688)" fill="none" stroke-linejoin="round" d="M 949.419843 48.090602 C 949.419843 48.090602 851.117333 48.090602 851.117333 48.090602 " stroke="#231f1f" stroke-width="2" stroke-opacity="1" stroke-miterlimit="4"/><path stroke-linecap="round" transform="matrix(0.347222, 0, 0, 0.347222, 5.758332, 289.559688)" fill="none" stroke-linejoin="round" d="M 935.121091 32.261851 C 935.121091 32.261851 836.818582 32.261851 836.818582 32.261851 " stroke="#231f1f" stroke-width="2" stroke-opacity="1" stroke-miterlimit="4"/><path stroke-linecap="round" transform="matrix(0.347222, 0, 0, 0.347222, 5.758332, 289.559688)" fill="none" stroke-linejoin="round" d="M 944.357342 39.923102 C 944.357342 39.923102 840.756082 39.923102 840.756082 39.923102 " stroke="#231f1f" stroke-width="2" stroke-opacity="1" stroke-miterlimit="4"/></svg>